<svg width="141" height="32" viewBox="0 0 141 32" fill="none" xmlns="http://www.w3.org/2000/svg">
<g clip-path="url(#clip0_119_555)">
<path fill-rule="evenodd" clip-rule="evenodd" d="M44.9365 2.62378C44.9365 1.578 45.7935 0.730225 46.8508 0.730225H50.1857C50.9382 0.730225 51.6674 0.98817 52.2493 1.46015L53.2637 2.28305L53.2891 2.30594C53.3125 2.29813 53.3359 2.2905 53.3594 2.28305C55.1896 1.70319 57.4102 1.59291 59.6766 1.59291C61.9431 1.59291 64.1636 1.70319 65.9939 2.28305C66.0174 2.2905 66.0408 2.29813 66.0642 2.30594L66.0895 2.28305L67.104 1.46015C67.6858 0.98817 68.4151 0.730225 69.1676 0.730225H72.5024C73.5597 0.730225 74.4168 1.578 74.4168 2.62378V3.79434C74.4168 4.70002 74.0311 5.56379 73.3543 6.17377L72.5359 6.9114C72.1363 7.2715 71.6568 7.53357 71.1359 7.67645L70.9424 7.72956C71.7007 9.51939 72.1196 11.4326 72.1196 12.9803C72.1196 19.206 68.2253 21.8949 64.7939 24.264C62.0917 26.1298 59.6766 27.7972 59.6766 30.8378C59.6766 27.7972 57.2616 26.1298 54.5593 24.264C51.128 21.8949 47.2337 19.206 47.2337 12.9803C47.2337 11.4326 47.6526 9.51939 48.4109 7.72956L48.2173 7.67645C47.6965 7.53357 47.2169 7.2715 46.8174 6.9114L45.999 6.17377C45.3222 5.56379 44.9365 4.70002 44.9365 3.79434V2.62378ZM62.1653 18.0701C62.1653 18.3675 62.0341 18.6527 61.8008 18.8631C61.5675 19.0734 61.251 19.1916 60.9209 19.1916C60.636 19.1916 60.3611 19.1034 60.1412 18.944C60.5156 19.9353 61.4737 20.8746 62.931 19.3641C64.2175 17.9606 62.8738 15.0003 61.5647 13.2437C61.1283 12.6582 60.412 12.3764 59.6766 12.3764C58.9413 12.3764 58.2249 12.6582 57.7886 13.2437C56.4795 15.0003 55.1358 17.9606 56.4223 19.3641C57.8796 20.8746 58.8377 19.9353 59.2121 18.944C58.9921 19.1034 58.7173 19.1916 58.4324 19.1916C58.1023 19.1916 57.7858 19.0734 57.5525 18.8631C57.3191 18.6527 57.188 18.3675 57.188 18.0701H62.1653ZM54.9116 9.30721H51.4452L54.1771 11.471C54.7782 11.947 55.6569 11.7948 56.0289 11.1502C56.4986 10.3362 55.8747 9.30721 54.9116 9.30721ZM64.4417 9.30721H67.9081L65.1762 11.471C64.5751 11.947 63.6964 11.7948 63.3244 11.1502C62.8547 10.3362 63.4785 9.30721 64.4417 9.30721Z" fill="#555555"/>
<path d="M78.5461 22.0563H81.6171V10.4724H78.5461V22.0563ZM78.5461 8.66598H81.6171V5.91113H78.5461V8.66598Z" fill="#555555"/>
<path d="M83.5959 25.8499H86.6669V20.7467H86.7121C87.3669 21.7402 88.4282 22.3951 90.054 22.3951C93.0347 22.3951 95.0669 20.0241 95.0669 16.2757C95.0669 12.6628 93.1024 10.1564 90.0314 10.1564C88.4508 10.1564 87.3669 10.9015 86.6218 11.9177H86.554V10.4725H83.5959V25.8499ZM89.3992 19.8435C87.5701 19.8435 86.5992 18.466 86.5992 16.366C86.5992 14.2886 87.3669 12.6402 89.2863 12.6402C91.183 12.6402 91.9508 14.1757 91.9508 16.366C91.9508 18.5564 90.9572 19.8435 89.3992 19.8435Z" fill="#555555"/>
<path d="M101.193 22.3951C104.083 22.3951 106.07 20.9951 106.07 18.6693C106.07 15.9596 103.925 15.4177 101.983 15.0112C100.335 14.6725 98.7995 14.5822 98.7995 13.5886C98.7995 12.7531 99.5898 12.3015 100.787 12.3015C102.096 12.3015 102.887 12.7531 103.022 13.9951H105.799C105.574 11.6693 103.88 10.1564 100.832 10.1564C98.1898 10.1564 96.1124 11.3531 96.1124 13.8596C96.1124 16.3886 98.1447 16.9531 100.222 17.3596C101.803 17.6757 103.27 17.7886 103.27 18.8951C103.27 19.708 102.503 20.2273 101.148 20.2273C99.7705 20.2273 98.8221 19.6402 98.6188 18.308H95.7737C95.9543 20.7693 97.8285 22.3951 101.193 22.3951Z" fill="#555555"/>
<path d="M117.73 22.0564V10.4725H114.66V17.1564C114.66 18.6919 113.779 19.7758 112.334 19.7758C111.024 19.7758 110.414 19.0306 110.414 17.6758V10.4725H107.366V18.1951C107.366 20.7241 108.811 22.3725 111.385 22.3725C113.011 22.3725 113.914 21.7629 114.705 20.7016H114.772V22.0564H117.73Z" fill="#555555"/>
<path d="M119.717 22.0564H122.788V15.3273C122.788 13.7919 123.623 12.7983 124.865 12.7983C125.994 12.7983 126.649 13.4757 126.649 14.7854V22.0564H129.72V15.3273C129.72 13.7919 130.51 12.7983 131.797 12.7983C132.926 12.7983 133.581 13.4757 133.581 14.7854V22.0564H136.652V14.266C136.652 11.737 135.275 10.1564 132.836 10.1564C131.368 10.1564 130.149 10.9241 129.359 12.1886H129.314C128.749 10.9693 127.575 10.1564 126.107 10.1564C124.504 10.1564 123.375 10.9693 122.743 12.0306H122.675V10.4725H119.717V22.0564Z" fill="#555555"/>
<path d="M1.01489 22.0563H4.08586V5.91113H1.01489V22.0563Z" fill="#555555"/>
<path d="M11.5949 22.3951C15.1852 22.3951 17.6465 19.7306 17.6465 16.2757C17.6465 12.8209 15.1852 10.1564 11.5949 10.1564C8.0045 10.1564 5.54321 12.8209 5.54321 16.2757C5.54321 19.7306 8.0045 22.3951 11.5949 22.3951ZM11.5949 20.0467C9.69809 20.0467 8.65938 18.5338 8.65938 16.2757C8.65938 14.0177 9.69809 12.4822 11.5949 12.4822C13.4691 12.4822 14.5303 14.0177 14.5303 16.2757C14.5303 18.5338 13.4691 20.0467 11.5949 20.0467Z" fill="#555555"/>
<path d="M24.1773 26.008C25.8934 26.008 27.3837 25.6015 28.3547 24.6983C29.2127 23.908 29.7321 22.8015 29.7321 21.1757V10.4725H26.774V11.6919H26.7289C26.0289 10.7209 24.9676 10.1564 23.5224 10.1564C20.5869 10.1564 18.5095 12.3693 18.5095 15.8241C18.5095 19.3241 21.0386 21.3564 23.6127 21.3564C25.0805 21.3564 25.9611 20.7693 26.6386 20.0015H26.7063V21.266C26.7063 22.8467 25.8708 23.6822 24.1321 23.6822C22.7095 23.6822 22.0547 23.1177 21.8063 22.3951H18.7579C19.074 24.6531 21.016 26.008 24.1773 26.008ZM24.1321 18.8951C22.5515 18.8951 21.5127 17.7435 21.5127 15.779C21.5127 13.837 22.5515 12.6177 24.1095 12.6177C25.9611 12.6177 26.8644 14.0628 26.8644 15.7564C26.8644 17.4725 26.074 18.8951 24.1321 18.8951Z" fill="#555555"/>
<path d="M37.1964 22.3951C40.7867 22.3951 43.248 19.7306 43.248 16.2757C43.248 12.8209 40.7867 10.1564 37.1964 10.1564C33.6061 10.1564 31.1448 12.8209 31.1448 16.2757C31.1448 19.7306 33.6061 22.3951 37.1964 22.3951ZM37.1964 20.0467C35.2996 20.0467 34.2609 18.5338 34.2609 16.2757C34.2609 14.0177 35.2996 12.4822 37.1964 12.4822C39.0706 12.4822 40.1319 14.0177 40.1319 16.2757C40.1319 18.5338 39.0706 20.0467 37.1964 20.0467Z" fill="#555555"/>
<path d="M136.514 7.94342C136.514 7.4238 136.934 7.00256 137.455 7.00256H139.336C139.856 7.00256 140.277 7.4238 140.277 7.94342C140.277 8.46301 139.856 8.88429 139.336 8.88429H137.455C136.934 8.88429 136.514 8.46301 136.514 7.94342Z" fill="#555555"/>
</g>
<defs>
<clipPath id="clip0_119_555">
<rect width="140" height="30.8602" fill="white" transform="translate(0.5 0.569824)"/>
</clipPath>
</defs>
</svg>
