<svg width="141" height="28" viewBox="0 0 141 28" fill="none" xmlns="http://www.w3.org/2000/svg">
<g clip-path="url(#clip0_119_530)">
<path fill-rule="evenodd" clip-rule="evenodd" d="M18.2119 8.23739C17.0721 7.47585 15.7321 7.06936 14.3614 7.06936V0.138672C17.1029 0.138672 19.7829 0.951628 22.0624 2.47474C24.3419 3.99784 26.1185 6.1627 27.1676 8.69551C28.2167 11.2283 28.4913 14.0154 27.9564 16.7043C27.4216 19.3931 26.1014 21.863 24.1628 23.8015C22.2243 25.7401 19.7544 27.0603 17.0656 27.5951C14.3768 28.1299 11.5897 27.8554 9.05684 26.8063C6.52402 25.7571 4.35917 23.9805 2.83607 21.701C1.31296 19.4215 0.5 16.7416 0.5 14.0001H7.43069C7.43069 15.3708 7.83718 16.7108 8.59872 17.8505C9.36027 18.9903 10.4427 19.8786 11.7091 20.4032C12.9755 20.9278 14.3691 21.065 15.7135 20.7975C17.0579 20.5302 18.2928 19.8701 19.2621 18.9008C20.2314 17.9315 20.8915 16.6966 21.1589 15.3522C21.4263 14.0077 21.2891 12.6142 20.7645 11.3478C20.2399 10.0814 19.3516 8.99894 18.2119 8.23739Z" fill="#555555"/>
<path fill-rule="evenodd" clip-rule="evenodd" d="M7.43069 0.138676C7.43069 1.04883 7.25143 1.95007 6.90313 2.79094C6.55482 3.63181 6.04432 4.39584 5.40074 5.03942C4.75717 5.68299 3.99313 6.1935 3.15226 6.5418C2.31139 6.8901 1.41015 7.06937 0.5 7.06937L0.5 14.0001C2.3203 14.0001 4.12278 13.6415 5.80453 12.9449C7.48627 12.2483 9.01435 11.2273 10.3015 9.94013C11.5886 8.65303 12.6096 7.12495 13.3063 5.4432C14.0029 3.76145 14.3614 1.95897 14.3614 0.138672L7.43069 0.138676Z" fill="#555555"/>
<path d="M87.5627 10.1552H84.2V20.8369H87.5627V10.1552Z" fill="#555555"/>
<path d="M84.5741 8.15508C84.9254 8.50675 85.3648 8.68258 85.8923 8.68258C86.4197 8.68258 86.8522 8.50675 87.189 8.15508C87.5265 7.7888 87.6949 7.34918 87.6949 6.83634C87.6949 6.30886 87.5265 5.86926 87.189 5.51761C86.8522 5.16594 86.4197 4.99011 85.8923 4.99011C85.3648 4.99011 84.9254 5.16594 84.5741 5.51761C84.2365 5.86926 84.0681 6.30886 84.0681 6.83634C84.0681 7.34918 84.2365 7.7888 84.5741 8.15508Z" fill="#555555"/>
<path d="M35.9548 20.837V5.31982H39.4056V17.804H46.285V20.837H35.9548Z" fill="#555555"/>
<path fill-rule="evenodd" clip-rule="evenodd" d="M52.4992 21.0787C51.4003 21.0787 50.4039 20.8369 49.5101 20.3534C48.6309 19.8552 47.9349 19.1812 47.4221 18.3313C46.9093 17.4814 46.6528 16.529 46.6528 15.474C46.6528 14.419 46.9093 13.474 47.4221 12.6388C47.9349 11.8035 48.6309 11.1442 49.5101 10.6607C50.3892 10.1624 51.3857 9.91333 52.4992 9.91333C53.6128 9.91333 54.6092 10.1551 55.4884 10.6386C56.3675 11.1222 57.0636 11.7889 57.5764 12.6388C58.0892 13.474 58.3457 14.419 58.3457 15.474C58.3457 16.529 58.0892 17.4814 57.5764 18.3313C57.0636 19.1812 56.3675 19.8552 55.4884 20.3534C54.6092 20.8369 53.6128 21.0787 52.4992 21.0787ZM52.4992 18.0236C52.9828 18.0236 53.4077 17.9211 53.774 17.7159C54.1403 17.4961 54.4187 17.1958 54.6092 16.8148C54.8143 16.4192 54.9169 15.9722 54.9169 15.474C54.9169 14.9759 54.8143 14.5436 54.6092 14.1773C54.404 13.7963 54.1184 13.5033 53.752 13.2981C53.4003 13.0783 52.9828 12.9684 52.4992 12.9684C52.0304 12.9684 51.6128 13.0783 51.2464 13.2981C50.8801 13.5033 50.5944 13.7963 50.3892 14.1773C50.1841 14.5583 50.0816 14.9978 50.0816 15.496C50.0816 15.9796 50.1841 16.4192 50.3892 16.8148C50.5944 17.1958 50.8801 17.4961 51.2464 17.7159C51.6128 17.9211 52.0304 18.0236 52.4992 18.0236Z" fill="#555555"/>
<path fill-rule="evenodd" clip-rule="evenodd" d="M61.0089 25.013C61.9027 25.4232 62.9357 25.6283 64.108 25.6283C65.2508 25.6283 66.2692 25.4012 67.163 24.947C68.0569 24.4927 68.7601 23.8627 69.273 23.0568C69.7858 22.2509 70.0426 21.2985 70.0426 20.1995V10.1551H66.7454V10.8728C66.5002 10.6664 66.2217 10.4932 65.9102 10.3529C65.3387 10.0745 64.6867 9.9353 63.9541 9.9353C62.9724 9.9353 62.1005 10.1698 61.3386 10.6386C60.5766 11.0929 59.9759 11.7229 59.5363 12.5288C59.0967 13.3201 58.877 14.2139 58.877 15.2103C58.877 16.1921 59.0967 17.0858 59.5363 17.8917C59.9759 18.6976 60.5766 19.3351 61.3386 19.8039C62.1005 20.2728 62.9724 20.5072 63.9541 20.5072C64.6721 20.5072 65.3241 20.3681 65.9102 20.0897C66.1941 19.9548 66.4505 19.7959 66.6795 19.6128V20.2875C66.6795 21.0347 66.4377 21.6135 65.9542 22.0238C65.4853 22.4341 64.8333 22.6392 63.998 22.6392C63.324 22.6392 62.7452 22.522 62.2617 22.2875C61.7928 22.0531 61.3678 21.7087 60.9869 21.2545L58.9209 23.3205C59.4337 24.0532 60.1297 24.6174 61.0089 25.013ZM65.8003 17.2104C65.4633 17.4155 65.0604 17.5181 64.5914 17.5181C64.1226 17.5181 63.7123 17.4155 63.3606 17.2104C63.0236 17.0052 62.7599 16.7268 62.5694 16.3752C62.3789 16.0089 62.2837 15.6206 62.2837 15.2103C62.2837 14.7707 62.3789 14.3751 62.5694 14.0234C62.7599 13.6718 63.0309 13.3934 63.3826 13.1882C63.7343 12.9831 64.1372 12.8805 64.5914 12.8805C65.0604 12.8805 65.4633 12.9831 65.8003 13.1882C66.152 13.3934 66.4157 13.6718 66.5916 14.0234C66.782 14.3751 66.8773 14.7707 66.8773 15.2103C66.8773 15.6499 66.782 16.0455 66.5916 16.3971C66.4157 16.7342 66.152 17.0052 65.8003 17.2104Z" fill="#555555"/>
<path fill-rule="evenodd" clip-rule="evenodd" d="M77.1194 21.0787C76.0202 21.0787 75.0236 20.8369 74.1302 20.3534C73.2507 19.8552 72.5549 19.1812 72.042 18.3313C71.5291 17.4814 71.2727 16.529 71.2727 15.474C71.2727 14.419 71.5291 13.474 72.042 12.6388C72.5549 11.8035 73.2507 11.1442 74.1302 10.6607C75.009 10.1624 76.0057 9.91333 77.1194 9.91333C78.2325 9.91333 79.2291 10.1551 80.108 10.6386C80.9875 11.1222 81.6833 11.7889 82.1962 12.6388C82.709 13.474 82.9655 14.419 82.9655 15.474C82.9655 16.529 82.709 17.4814 82.1962 18.3313C81.6833 19.1812 80.9875 19.8552 80.108 20.3534C79.2291 20.8369 78.2325 21.0787 77.1194 21.0787ZM77.1194 18.0236C77.6025 18.0236 78.0274 17.9211 78.394 17.7159C78.7599 17.4961 79.0385 17.1958 79.2291 16.8148C79.4343 16.4192 79.5369 15.9722 79.5369 15.474C79.5369 14.9759 79.4343 14.5436 79.2291 14.1773C79.024 13.7963 78.7385 13.5033 78.3718 13.2981C78.0204 13.0783 77.6025 12.9684 77.1194 12.9684C76.6502 12.9684 76.2323 13.0783 75.8664 13.2981C75.4997 13.5033 75.2142 13.7963 75.009 14.1773C74.8039 14.5583 74.7013 14.9978 74.7013 15.496C74.7013 15.9796 74.8039 16.4192 75.009 16.8148C75.2142 17.1958 75.4997 17.4961 75.8664 17.7159C76.2323 17.9211 76.6502 18.0236 77.1194 18.0236Z" fill="#555555"/>
<path fill-rule="evenodd" clip-rule="evenodd" d="M95.6452 21.0567C94.9279 21.0567 94.2681 20.9175 93.6672 20.6391C93.3512 20.4926 93.0656 20.3177 92.8106 20.1143V25.3426H89.4915V10.1551H92.8542V10.8924C93.0982 10.6928 93.3692 10.5203 93.6672 10.3749C94.2681 10.0818 94.9279 9.9353 95.6452 9.9353C96.6564 9.9353 97.5505 10.1771 98.3267 10.6607C99.1182 11.1442 99.7336 11.8035 100.173 12.6388C100.628 13.474 100.854 14.4264 100.854 15.496C100.854 16.5657 100.628 17.5181 100.173 18.3533C99.7336 19.1885 99.1182 19.8479 98.3267 20.3314C97.5505 20.815 96.6564 21.0567 95.6452 21.0567ZM95.0305 18.0236C95.5135 18.0236 95.9315 17.9137 96.2828 17.6939C96.6495 17.4742 96.935 17.1737 97.1402 16.7928C97.3453 16.4118 97.4479 15.9796 97.4479 15.496C97.4479 14.9978 97.3453 14.5583 97.1402 14.1773C96.935 13.7963 96.6495 13.5033 96.2828 13.2981C95.9315 13.0783 95.5212 12.9685 95.052 12.9685C94.5834 12.9685 94.1655 13.0783 93.7996 13.2981C93.4475 13.5033 93.1696 13.7963 92.9644 14.1773C92.7593 14.5583 92.6567 14.9978 92.6567 15.496C92.6567 15.9796 92.7517 16.4118 92.9423 16.7928C93.1474 17.1737 93.4329 17.4742 93.7996 17.6939C94.1655 17.9137 94.5758 18.0236 95.0305 18.0236Z" fill="#555555"/>
<path d="M104.146 20.859C104.761 21.0202 105.383 21.1008 106.013 21.1008C107.347 21.1008 108.402 20.7931 109.179 20.1777C109.97 19.5623 110.365 18.7344 110.365 17.694C110.365 17.02 110.241 16.4779 109.992 16.0676C109.743 15.6427 109.421 15.3057 109.025 15.0566C108.629 14.8075 108.211 14.6096 107.772 14.4631C107.332 14.3166 106.914 14.192 106.519 14.0895C106.124 13.9869 105.801 13.8697 105.552 13.7378C105.303 13.6059 105.178 13.4301 105.178 13.2103C105.178 13.0052 105.274 12.8513 105.464 12.7487C105.654 12.6315 105.94 12.573 106.321 12.573C106.717 12.573 107.12 12.6535 107.53 12.8147C107.955 12.9758 108.336 13.2543 108.673 13.6499L110.585 11.7158C110.102 11.1003 109.472 10.6387 108.695 10.3311C107.933 10.0087 107.098 9.84753 106.19 9.84753C105.325 9.84753 104.571 9.99405 103.926 10.2871C103.281 10.5802 102.782 10.9831 102.431 11.4959C102.08 11.9941 101.904 12.5876 101.904 13.2763C101.904 13.921 102.028 14.4558 102.277 14.8807C102.526 15.291 102.849 15.6134 103.244 15.8478C103.64 16.0822 104.058 16.2654 104.497 16.3972C104.936 16.5291 105.354 16.6537 105.75 16.7709C106.145 16.8735 106.468 16.9981 106.717 17.1446C106.981 17.2765 107.113 17.4743 107.113 17.738C107.113 17.9431 107.002 18.1043 106.783 18.2215C106.578 18.3387 106.278 18.3974 105.882 18.3974C105.31 18.3974 104.783 18.2948 104.3 18.0897C103.816 17.8699 103.398 17.5695 103.046 17.1885L101.134 19.1227C101.501 19.5183 101.94 19.87 102.453 20.1777C102.981 20.4707 103.545 20.6978 104.146 20.859Z" fill="#555555"/>
<path d="M116.498 21.0787C115.516 21.0787 114.644 20.8809 113.883 20.4853C113.135 20.075 112.549 19.5182 112.124 18.8148C111.699 18.0969 111.487 17.2764 111.487 16.3532V10.1552H114.85V16.3093C114.85 16.6755 114.908 16.9906 115.026 17.2543C115.157 17.5181 115.348 17.7233 115.597 17.8698C115.846 18.0163 116.146 18.0895 116.498 18.0895C116.996 18.0895 117.392 17.9357 117.685 17.628C117.978 17.3056 118.124 16.8661 118.124 16.3093V10.1552H121.487V16.3312C121.487 17.269 121.275 18.0969 120.849 18.8148C120.425 19.5182 119.839 20.075 119.091 20.4853C118.344 20.8809 117.48 21.0787 116.498 21.0787Z" fill="#555555"/>
<path d="M126.521 10.1551H123.159V20.8369H126.521V14.5949C126.521 14.2286 126.595 13.9209 126.741 13.6718C126.903 13.4227 127.115 13.2322 127.379 13.1003C127.643 12.9538 127.943 12.8805 128.28 12.8805C128.764 12.8805 129.166 13.0344 129.488 13.3421C129.826 13.6351 129.994 14.0528 129.994 14.5949V20.8369H133.357V14.5949C133.357 14.2286 133.431 13.9209 133.577 13.6718C133.738 13.4227 133.95 13.2322 134.215 13.1003C134.478 12.9538 134.779 12.8805 135.116 12.8805C135.599 12.8805 136.002 13.0344 136.324 13.3421C136.661 13.6351 136.829 14.0528 136.829 14.5949V20.8369H140.193V14.2212C140.193 13.3275 140.002 12.5655 139.621 11.9354C139.255 11.2907 138.749 10.7998 138.105 10.4629C137.475 10.1111 136.749 9.9353 135.928 9.9353C135.093 9.9353 134.339 10.1185 133.665 10.4848C133.227 10.7182 132.844 11.0194 132.517 11.3884C132.211 11.0024 131.839 10.6866 131.401 10.4408C130.815 10.1039 130.148 9.9353 129.401 9.9353C128.61 9.9353 127.899 10.1039 127.269 10.4408C126.995 10.581 126.746 10.749 126.521 10.9446V10.1551Z" fill="#555555"/>
</g>
<defs>
<clipPath id="clip0_119_530">
<rect width="140" height="27.7228" fill="white" transform="translate(0.5 0.138672)"/>
</clipPath>
</defs>
</svg>
