<svg width="141" height="34" viewBox="0 0 141 34" fill="none" xmlns="http://www.w3.org/2000/svg">
<g clip-path="url(#clip0_119_605)">
<path d="M42.7285 24.2662H52.5713V21.3015H46.2269V10.1344H42.7285V24.2662Z" fill="#555555"/>
<path d="M58.4028 22.2896C56.9996 22.2896 56.2683 21.0642 56.2683 19.2261C56.2683 17.388 56.9996 16.1428 58.4028 16.1428C59.8061 16.1428 60.5572 17.388 60.5572 19.2261C60.5572 21.0642 59.8061 22.2896 58.4028 22.2896ZM58.4226 24.5823C61.6838 24.5823 63.8184 22.2699 63.8184 19.2261C63.8184 16.1823 61.6838 13.8699 58.4226 13.8699C55.1812 13.8699 53.0071 16.1823 53.0071 19.2261C53.0071 22.2699 55.1812 24.5823 58.4226 24.5823Z" fill="#555555"/>
<path d="M69.4633 27.7646C70.9654 27.7646 72.2896 27.4286 73.179 26.638C73.9894 25.9067 74.523 24.7999 74.523 23.278V14.1467H71.4397V15.2337H71.4002C70.8073 14.3839 69.8981 13.8502 68.5541 13.8502C66.044 13.8502 64.3047 15.9453 64.3047 18.91C64.3047 22.013 66.4195 23.7128 68.6925 23.7128C69.9179 23.7128 70.6887 23.2187 71.2816 22.5467H71.3607V23.5547C71.3607 24.7801 70.7875 25.4916 69.4237 25.4916C68.3565 25.4916 67.8228 25.037 67.6449 24.5034H64.5221C64.8383 26.6182 66.6765 27.7646 69.4633 27.7646ZM69.4435 21.3213C68.2379 21.3213 67.4473 20.333 67.4473 18.8112C67.4473 17.2695 68.2379 16.2813 69.4435 16.2813C70.7875 16.2813 71.499 17.4276 71.499 18.7914C71.499 20.2145 70.8468 21.3213 69.4435 21.3213Z" fill="#555555"/>
<path d="M80.8628 22.2896C79.4595 22.2896 78.7282 21.0642 78.7282 19.2261C78.7282 17.388 79.4595 16.1428 80.8628 16.1428C82.2661 16.1428 83.0168 17.388 83.0168 19.2261C83.0168 21.0642 82.2661 22.2896 80.8628 22.2896ZM80.8826 24.5823C84.1434 24.5823 86.278 22.2699 86.278 19.2261C86.278 16.1823 84.1434 13.8699 80.8826 13.8699C77.6412 13.8699 75.467 16.1823 75.467 19.2261C75.467 22.2699 77.6412 24.5823 80.8826 24.5823Z" fill="#555555"/>
<path d="M87.2192 24.2662H90.4409V14.1466H87.2192V24.2662ZM87.2192 12.7433H90.4409V10.1344H87.2192V12.7433Z" fill="#555555"/>
<path d="M91.8384 27.6065H95.06V23.2187H95.0996C95.732 24.0686 96.661 24.5825 97.9654 24.5825C100.614 24.5825 102.373 22.4874 102.373 19.2065C102.373 16.1627 100.732 13.8502 98.0445 13.8502C96.661 13.8502 95.6727 14.4629 94.981 15.3721H94.9217V14.1467H91.8384V27.6065ZM97.1353 22.0921C95.7518 22.0921 94.9612 20.9655 94.9612 19.325C94.9612 17.6846 95.6727 16.4394 97.076 16.4394C98.4596 16.4394 99.1118 17.5857 99.1118 19.325C99.1118 21.0446 98.3607 22.0921 97.1353 22.0921Z" fill="#555555"/>
<path d="M107.618 24.5825C110.267 24.5825 112.223 23.4361 112.223 21.2225C112.223 18.6333 110.128 18.1787 108.349 17.8822C107.065 17.645 105.918 17.5462 105.918 16.8347C105.918 16.2022 106.531 15.9057 107.322 15.9057C108.211 15.9057 108.824 16.1825 108.942 17.0916H111.907C111.749 15.0954 110.207 13.8502 107.341 13.8502C104.95 13.8502 102.973 14.957 102.973 17.0916C102.973 19.4634 104.851 19.9377 106.61 20.2342C107.954 20.4714 109.18 20.5702 109.18 21.4794C109.18 22.1316 108.567 22.4874 107.598 22.4874C106.531 22.4874 105.859 21.9933 105.741 20.9853H102.697C102.796 23.2187 104.653 24.5825 107.618 24.5825Z" fill="#555555"/>
<path d="M116.6 24.5626C118.003 24.5626 118.892 24.0092 119.624 23.021H119.683V24.2661H122.766V14.1466H119.545V19.7993C119.545 21.005 118.873 21.8351 117.766 21.8351C116.738 21.8351 116.244 21.2224 116.244 20.1155V14.1466H113.042V20.7875C113.042 23.0407 114.267 24.5626 116.6 24.5626Z" fill="#555555"/>
<path d="M124.168 24.2662H127.39V18.5937C127.39 17.3881 127.983 16.5382 128.991 16.5382C129.959 16.5382 130.414 17.1707 130.414 18.2578V24.2662H133.635V18.5937C133.635 17.3881 134.208 16.5382 135.236 16.5382C136.205 16.5382 136.659 17.1707 136.659 18.2578V24.2662H139.881V17.6846C139.881 15.4116 138.735 13.8502 136.442 13.8502C135.137 13.8502 134.05 14.4036 133.26 15.629H133.22C132.706 14.542 131.698 13.8502 130.374 13.8502C128.911 13.8502 127.943 14.542 127.311 15.5895H127.251V14.1467H124.168V24.2662Z" fill="#555555"/>
<path fill-rule="evenodd" clip-rule="evenodd" d="M17.0541 33.3249C26.1506 33.3249 33.5246 25.9508 33.5246 16.8543C33.5246 7.75792 26.1506 0.383789 17.0541 0.383789C7.95762 0.383789 0.583496 7.75792 0.583496 16.8543C0.583496 25.9508 7.95762 33.3249 17.0541 33.3249ZM19.5963 13.1094C21.0002 11.7054 21.0002 9.42907 19.5963 8.02504C18.1923 6.62102 15.9159 6.62102 14.5119 8.02504C13.1079 9.42907 13.1079 11.7054 14.5119 13.1094L17.0541 15.6516L19.5963 13.1094ZM20.7991 19.3966C22.2031 20.8006 24.4794 20.8006 25.8834 19.3966C27.2874 17.9925 27.2874 15.7162 25.8834 14.3122C24.4794 12.9082 22.2031 12.9082 20.7991 14.3122L18.2569 16.8544L20.7991 19.3966ZM19.5963 25.6837C21.0002 24.2797 21.0002 22.0034 19.5963 20.5993L17.0541 18.0572L14.5119 20.5993C13.1079 22.0034 13.1079 24.2797 14.5119 25.6837C15.9159 27.0878 18.1923 27.0878 19.5963 25.6837ZM8.22472 19.3966C6.82073 17.9925 6.82073 15.7162 8.22472 14.3122C9.62878 12.9082 11.9051 12.9082 13.3091 14.3122L15.8513 16.8544L13.3091 19.3966C11.9051 20.8006 9.62878 20.8006 8.22472 19.3966Z" fill="#555555"/>
</g>
<defs>
<clipPath id="clip0_119_605">
<rect width="140" height="33.7647" fill="white" transform="translate(0.5 0.117676)"/>
</clipPath>
</defs>
</svg>
