<svg width="141" height="36" viewBox="0 0 141 36" fill="none" xmlns="http://www.w3.org/2000/svg">
<g clip-path="url(#clip0_119_652)">
<path d="M23.0181 18.0229C24.1606 17.0662 24.8871 15.6291 24.8871 14.0223C24.8871 12.4156 24.1606 10.9785 23.0181 10.0218C23.149 9.95838 23.275 9.88957 23.3951 9.81499C24.1529 9.34379 25.0473 9.07166 26.0054 9.07166C28.7396 9.07166 30.9561 11.2882 30.9561 14.0223C30.9561 16.7565 28.7396 18.973 26.0054 18.973C25.0473 18.973 24.1529 18.7009 23.3951 18.2297C23.275 18.1551 23.149 18.0863 23.0181 18.0229Z" fill="#555555"/>
<path d="M21.6432 14.8017C22.1542 13.4019 22.0649 11.7941 21.2615 10.4026C20.4581 9.01111 19.1104 8.12986 17.6426 7.87254C17.7243 7.75219 17.799 7.62958 17.8656 7.50497C18.2863 6.718 18.9249 6.03508 19.7546 5.55606C22.1225 4.18897 25.1503 5.00026 26.5174 7.36814C27.8844 9.73602 27.0732 12.7638 24.7053 14.1309C23.8756 14.6099 22.9649 14.8215 22.073 14.7924C21.9318 14.7877 21.7882 14.7912 21.6432 14.8017Z" fill="#555555"/>
<path d="M18.8415 12.6995C18.5842 11.2317 17.703 9.88397 16.3115 9.08058C14.92 8.2772 13.3122 8.1879 11.9124 8.69895C11.923 8.55388 11.9264 8.41034 11.9217 8.26913C11.8926 7.37722 12.1041 6.46651 12.5832 5.63681C13.9503 3.26894 16.9781 2.45764 19.346 3.82474C21.7138 5.19183 22.5252 8.21963 21.158 10.5875C20.679 11.4172 19.9961 12.0558 19.2091 12.4765C19.0846 12.5431 18.9619 12.6178 18.8415 12.6995Z" fill="#555555"/>
<path d="M15.3639 12.2798C14.4071 11.1373 12.9701 10.4108 11.3633 10.4108C9.75649 10.4108 8.31947 11.1373 7.36272 12.2798C7.29935 12.1489 7.23052 12.0229 7.15592 11.9028C6.68473 11.145 6.4126 10.2506 6.4126 9.2925C6.4126 6.5583 8.6291 4.3418 11.3633 4.3418C14.0975 4.3418 16.314 6.5583 16.314 9.2925C16.314 10.2506 16.0419 11.145 15.5707 11.9028C15.496 12.0229 15.4272 12.1489 15.3639 12.2798Z" fill="#555555"/>
<path d="M12.142 13.6549C10.7422 13.1439 9.13433 13.2332 7.74283 14.0365C6.35133 14.8399 5.47007 16.1876 5.21276 17.6554C5.09241 17.5737 4.9698 17.4991 4.84519 17.4325C4.05821 17.0117 3.3753 16.3731 2.89628 15.5435C1.52917 13.1755 2.34047 10.1478 4.70835 8.78068C7.07624 7.41357 10.104 8.22487 11.4712 10.5928C11.9502 11.4224 12.1617 12.3332 12.1326 13.225C12.128 13.3662 12.1314 13.5098 12.142 13.6549Z" fill="#555555"/>
<path d="M10.0389 16.4568C8.5711 16.7141 7.22336 17.5954 6.41998 18.9869C5.6166 20.3784 5.52729 21.9862 6.03835 23.386C5.89327 23.3754 5.74971 23.372 5.60848 23.3766C4.71658 23.4058 3.80587 23.1942 2.97618 22.7152C0.608293 21.348 -0.203003 18.3203 1.16409 15.9524C2.53119 13.5845 5.55899 12.7732 7.92687 14.1403C8.75656 14.6193 9.39513 15.3022 9.81586 16.0892C9.88247 16.2138 9.95723 16.3364 10.0389 16.4568Z" fill="#555555"/>
<path d="M9.61843 19.9347C8.47592 20.8914 7.74936 22.3285 7.74936 23.9352C7.74936 25.542 8.47592 26.979 9.61843 27.9358C9.4875 27.9991 9.36148 28.068 9.24148 28.1426C8.48364 28.6138 7.58916 28.8859 6.63111 28.8859C3.89692 28.8859 1.68042 26.6694 1.68042 23.9352C1.68042 21.201 3.89692 18.9845 6.63111 18.9845C7.58916 18.9845 8.48364 19.2566 9.24148 19.7279C9.36148 19.8024 9.4875 19.8713 9.61843 19.9347Z" fill="#555555"/>
<path d="M10.993 23.1566C10.4818 24.5564 10.5711 26.1642 11.3745 27.5557C12.1779 28.9473 13.5257 29.8285 14.9935 30.0858C14.9118 30.2062 14.8371 30.3288 14.7705 30.4535C14.3498 31.2404 13.7112 31.9233 12.8815 32.4023C10.5136 33.7694 7.48578 32.9581 6.11869 30.5902C4.75158 28.2223 5.56289 25.1946 7.93076 23.8274C8.76046 23.3484 9.67119 23.1369 10.5631 23.166C10.7043 23.1706 10.8478 23.1672 10.993 23.1566Z" fill="#555555"/>
<path d="M13.7948 25.2598C14.0521 26.7276 14.9333 28.0753 16.3248 28.8786C17.7163 29.682 19.3242 29.7713 20.724 29.2603C20.7134 29.4054 20.71 29.5489 20.7146 29.6902C20.7438 30.5821 20.5322 31.4928 20.0532 32.3224C18.6861 34.6904 15.6583 35.5016 13.2904 34.1345C10.9225 32.7674 10.1112 29.7397 11.4783 27.3718C11.9574 26.5421 12.6403 25.9035 13.4272 25.4828C13.5518 25.4161 13.6744 25.3414 13.7948 25.2598Z" fill="#555555"/>
<path d="M17.2726 25.6803C18.2293 26.8228 19.6664 27.5493 21.2732 27.5493C22.88 27.5493 24.3171 26.8228 25.2738 25.6803C25.3371 25.8112 25.4059 25.9372 25.4806 26.0572C25.9518 26.815 26.2239 27.7096 26.2239 28.6676C26.2239 31.4018 24.0074 33.6183 21.2732 33.6183C18.539 33.6183 16.3225 31.4018 16.3225 28.6676C16.3225 27.7096 16.5946 26.815 17.0658 26.0572C17.1405 25.9372 17.2093 25.8112 17.2726 25.6803Z" fill="#555555"/>
<path d="M20.4946 24.3057C21.8944 24.8167 23.5022 24.7274 24.8937 23.9241C26.2852 23.1207 27.1665 21.773 27.4238 20.3052C27.5441 20.3868 27.6667 20.4616 27.7914 20.5282C28.5784 20.9489 29.2613 21.5875 29.7403 22.4172C31.1075 24.7851 30.2961 27.8128 27.9283 29.18C25.5603 30.547 22.5326 29.7358 21.1654 27.3679C20.6864 26.5382 20.4749 25.6275 20.504 24.7356C20.5086 24.5944 20.5052 24.4508 20.4946 24.3057Z" fill="#555555"/>
<path d="M26.2198 18.9685C26.2188 18.9702 26.2178 18.972 26.2168 18.9737C25.4135 20.3652 24.0657 21.2465 22.5979 21.5038C22.6795 21.6242 22.7543 21.7468 22.8209 21.8714C23.2416 22.6584 23.8802 23.3413 24.7099 23.8203C27.0778 25.1874 30.1056 24.3761 31.4727 22.0082C32.6447 19.9782 32.2156 17.4631 30.5773 15.9253C29.8575 17.6526 28.1873 18.8847 26.2198 18.9685Z" fill="#555555"/>
<path d="M43.7449 9.61913V24.4051H40.468V9.61913H43.7449ZM40.9875 24.4051L41.0474 21.5079H49.5394V24.4051H40.9875ZM50.0523 19.3898C50.0523 18.3376 50.272 17.4184 50.7116 16.6325C51.1512 15.8332 51.7706 15.2138 52.5699 14.7742C53.3691 14.3347 54.3015 14.1149 55.3672 14.1149C56.4329 14.1149 57.3586 14.3347 58.1445 14.7742C58.9438 15.2138 59.5632 15.8332 60.0028 16.6325C60.4424 17.4184 60.6621 18.3376 60.6621 19.3898C60.6621 20.4422 60.4424 21.3614 60.0028 22.1473C59.5632 22.9332 58.9438 23.5459 58.1445 23.9855C57.3586 24.4251 56.4329 24.6449 55.3672 24.6449C54.3015 24.6449 53.3691 24.4251 52.5699 23.9855C51.7706 23.5459 51.1512 22.9332 50.7116 22.1473C50.272 21.3614 50.0523 20.4422 50.0523 19.3898ZM53.1493 19.3699C53.1493 19.8761 53.2425 20.3224 53.429 20.7087C53.6155 21.0816 53.8753 21.3746 54.2082 21.5878C54.5413 21.7876 54.9276 21.8875 55.3672 21.8875C55.8068 21.8875 56.193 21.7876 56.5261 21.5878C56.8591 21.3746 57.1122 21.0816 57.2854 20.7087C57.4719 20.3224 57.5651 19.8761 57.5651 19.3699C57.5651 18.8637 57.4719 18.4241 57.2854 18.0512C57.1122 17.6782 56.8591 17.3918 56.5261 17.1919C56.193 16.9788 55.8068 16.8722 55.3672 16.8722C54.9276 16.8722 54.5413 16.9788 54.2082 17.1919C53.8753 17.3918 53.6155 17.6782 53.429 18.0512C53.2425 18.4241 53.1493 18.8637 53.1493 19.3699ZM61.357 19.2301C61.357 18.2043 61.5635 17.3052 61.9764 16.5326C62.3894 15.76 62.9555 15.1606 63.6748 14.7342C64.3941 14.2947 65.22 14.0749 66.1524 14.0749C66.9384 14.0749 67.631 14.2347 68.2305 14.5544C68.8433 14.8742 69.2561 15.2938 69.4693 15.8133L69.1696 16.0131L69.4094 14.4146H72.1867V23.7657C72.1867 24.938 71.9602 25.9504 71.5074 26.8029C71.0544 27.6687 70.4084 28.3347 69.5692 28.801C68.7433 29.2672 67.7576 29.5003 66.612 29.5003C65.6529 29.5003 64.7871 29.3071 64.0145 28.9208C63.2552 28.5479 62.6358 28.015 62.1562 27.3224C61.69 26.6297 61.4103 25.8305 61.317 24.9246H64.4341C64.4607 25.4974 64.6872 25.937 65.1134 26.2434C65.553 26.5498 66.1125 26.703 66.7919 26.703C67.5512 26.703 68.1372 26.4899 68.5502 26.0635C68.9631 25.6506 69.1696 25.0978 69.1696 24.4051V22.2871L69.4493 22.5469C69.2362 23.0664 68.8232 23.486 68.2105 23.8057C67.5977 24.1254 66.8918 24.2853 66.0925 24.2853C65.1733 24.2853 64.3541 24.0722 63.6348 23.6458C62.9289 23.2196 62.3693 22.6269 61.9564 21.8676C61.5568 21.1083 61.357 20.2291 61.357 19.2301ZM64.474 19.1501C64.474 19.6297 64.5739 20.0559 64.7738 20.4289C64.9736 20.8019 65.24 21.0949 65.573 21.308C65.906 21.5079 66.2723 21.6078 66.672 21.6078C67.1515 21.6078 67.5711 21.5079 67.9308 21.308C68.3038 21.0949 68.5902 20.8019 68.7899 20.4289C69.003 20.0559 69.1096 19.6297 69.1096 19.1501C69.1096 18.6573 69.003 18.2376 68.7899 17.8913C68.5768 17.5317 68.2837 17.2519 67.9108 17.0521C67.5512 16.8523 67.1315 16.7524 66.652 16.7524C66.2524 16.7524 65.8861 16.8523 65.553 17.0521C65.22 17.2519 64.9536 17.5317 64.7538 17.8913C64.5672 18.251 64.474 18.6705 64.474 19.1501ZM73.2834 19.3898C73.2834 18.3376 73.5032 17.4184 73.9427 16.6325C74.3823 15.8332 75.0017 15.2138 75.801 14.7742C76.6002 14.3347 77.5327 14.1149 78.5984 14.1149C79.664 14.1149 80.5897 14.3347 81.3757 14.7742C82.1749 15.2138 82.7943 15.8332 83.2339 16.6325C83.6735 17.4184 83.8933 18.3376 83.8933 19.3898C83.8933 20.4422 83.6735 21.3614 83.2339 22.1473C82.7943 22.9332 82.1749 23.5459 81.3757 23.9855C80.5897 24.4251 79.664 24.6449 78.5984 24.6449C77.5327 24.6449 76.6002 24.4251 75.801 23.9855C75.0017 23.5459 74.3823 22.9332 73.9427 22.1473C73.5032 21.3614 73.2834 20.4422 73.2834 19.3898ZM76.3804 19.3699C76.3804 19.8761 76.4736 20.3224 76.6601 20.7087C76.8466 21.0816 77.1064 21.3746 77.4395 21.5878C77.7724 21.7876 78.1588 21.8875 78.5984 21.8875C79.0379 21.8875 79.4243 21.7876 79.7572 21.5878C80.0902 21.3746 80.3433 21.0816 80.5165 20.7087C80.703 20.3224 80.7963 19.8761 80.7963 19.3699C80.7963 18.8637 80.703 18.4241 80.5165 18.0512C80.3433 17.6782 80.0902 17.3918 79.7572 17.1919C79.4243 16.9788 79.0379 16.8722 78.5984 16.8722C78.1588 16.8722 77.7724 16.9788 77.4395 17.1919C77.1064 17.3918 76.8466 17.6782 76.6601 18.0512C76.4736 18.4241 76.3804 18.8637 76.3804 19.3699ZM85.1876 24.4051V14.4146H88.2846V24.4051H85.1876ZM86.7461 12.8561C86.2532 12.8561 85.8336 12.6895 85.4873 12.3565C85.1543 12.0102 84.9877 11.5906 84.9877 11.0977C84.9877 10.6049 85.1543 10.1919 85.4873 9.85886C85.8336 9.52588 86.2532 9.35938 86.7461 9.35938C87.2256 9.35938 87.6319 9.52588 87.9649 9.85886C88.3112 10.1919 88.4845 10.6049 88.4845 11.0977C88.4845 11.5906 88.3112 12.0102 87.9649 12.3565C87.6319 12.6895 87.2256 12.8561 86.7461 12.8561ZM90.2873 29.2006V14.4146H93.105L93.2642 15.6335C93.5442 15.1672 93.9908 14.7943 94.6029 14.5145C95.216 14.2347 95.8757 14.0949 96.5812 14.0949C97.5136 14.0949 98.3262 14.3013 99.0189 14.7143C99.7115 15.1273 100.258 15.72 100.658 16.4927C101.057 17.2519 101.27 18.171 101.297 19.25C101.324 20.3023 101.15 21.2415 100.778 22.0673C100.404 22.8799 99.8653 23.5193 99.1589 23.9855C98.4524 24.4518 97.6006 24.6849 96.6013 24.6849C95.9087 24.6849 95.2626 24.565 94.6633 24.3253C94.064 24.0854 93.6174 23.7791 93.3246 23.4061V29.2006H90.2873ZM93.3841 19.4099C93.3841 19.9027 93.4838 20.3423 93.6842 20.7286C93.8974 21.1016 94.1838 21.3947 94.5434 21.6078C94.9159 21.8076 95.3423 21.9075 95.8217 21.9075C96.3149 21.9075 96.7349 21.801 97.0808 21.5878C97.4404 21.3746 97.714 21.0816 97.8998 20.7087C98.1002 20.3356 98.1999 19.9027 98.1999 19.4099C98.1999 18.917 98.1002 18.4841 97.8998 18.1111C97.714 17.7381 97.4404 17.445 97.0808 17.2319C96.7349 17.0188 96.3149 16.9122 95.8217 16.9122C95.3423 16.9122 94.9159 17.0188 94.5434 17.2319C94.1838 17.4318 93.8974 17.7182 93.6842 18.0911C93.4838 18.4641 93.3841 18.9037 93.3841 19.4099ZM101.824 21.2481H104.602C104.602 21.5944 104.715 21.8676 104.942 22.0673C105.182 22.2672 105.527 22.3671 105.98 22.3671C106.247 22.3671 106.467 22.3338 106.64 22.2672C106.827 22.2006 106.967 22.1073 107.059 21.9874C107.166 21.8542 107.219 21.7077 107.219 21.5479C107.219 21.3746 107.16 21.2281 107.04 21.1083C106.933 20.9884 106.746 20.8952 106.48 20.8285L104.722 20.3689C103.736 20.1026 103.037 19.7096 102.624 19.1901C102.21 18.6705 102.005 18.0778 102.005 17.4117C102.005 16.7457 102.171 16.1663 102.504 15.6734C102.85 15.1672 103.317 14.7809 103.902 14.5145C104.489 14.2347 105.148 14.0949 105.881 14.0949C106.986 14.0949 107.892 14.4013 108.598 15.0141C109.318 15.6134 109.697 16.4326 109.738 17.4717H106.96C106.973 17.1253 106.873 16.8523 106.66 16.6524C106.447 16.4393 106.167 16.3328 105.821 16.3328C105.515 16.3328 105.261 16.4127 105.062 16.5726C104.875 16.719 104.782 16.9256 104.782 17.1919C104.782 17.445 104.875 17.6315 105.062 17.7515C105.248 17.858 105.501 17.9512 105.821 18.0312L107.599 18.4708C108.425 18.6705 109.051 19.0103 109.478 19.4898C109.904 19.9693 110.116 20.5821 110.116 21.3281C110.116 22.3537 109.738 23.1663 108.978 23.7657C108.219 24.3652 107.233 24.6649 106.021 24.6649C104.769 24.6649 103.762 24.3519 103.004 23.7258C102.257 23.0864 101.865 22.2605 101.824 21.2481ZM115.026 24.6649C113.854 24.6649 112.948 24.2985 112.309 23.566C111.67 22.8333 111.35 21.8742 111.35 20.6886V14.4146H114.427V19.5697C114.427 20.5022 114.594 21.1282 114.927 21.4479C115.26 21.7676 115.699 21.9275 116.245 21.9275C116.952 21.9275 117.438 21.7277 117.704 21.3281C117.97 20.9285 118.104 20.3557 118.104 19.6096V14.4146H121.181V24.4051H118.284L118.084 23.2862C117.777 23.6991 117.344 24.0322 116.785 24.2853C116.225 24.5384 115.64 24.6649 115.026 24.6649ZM126.26 24.4051H123.163V14.4146H126.041L126.26 16.133L125.921 15.7733C126.187 15.2671 126.587 14.8608 127.12 14.5544C127.666 14.2347 128.251 14.0749 128.878 14.0749C129.864 14.0749 130.636 14.2947 131.196 14.7342C131.769 15.1738 132.181 15.7533 132.434 16.4726H131.955C132.115 15.7533 132.501 15.1738 133.114 14.7342C133.727 14.2947 134.459 14.0749 135.312 14.0749C136.604 14.0749 137.556 14.4212 138.169 15.1139C138.782 15.8066 139.088 16.7257 139.088 17.8713V24.4051H136.091V18.6306C136.091 18.0045 135.938 17.5383 135.631 17.2319C135.338 16.9256 134.946 16.7724 134.453 16.7724C134.16 16.7724 133.88 16.839 133.613 16.9721C133.347 17.092 133.127 17.3118 132.954 17.6315C132.781 17.938 132.694 18.3775 132.694 18.9503V24.4051H129.657V18.6306C129.657 18.0045 129.51 17.545 129.218 17.2519C128.924 16.9455 128.531 16.7923 128.038 16.7923C127.745 16.7923 127.459 16.859 127.179 16.9922C126.913 17.1121 126.693 17.3318 126.52 17.6516C126.347 17.9579 126.26 18.3908 126.26 18.9503V24.4051Z" fill="#555555"/>
</g>
<defs>
<clipPath id="clip0_119_652">
<rect width="140" height="34.7712" fill="white" transform="translate(0.5 0.614258)"/>
</clipPath>
</defs>
</svg>
