<svg width="60" height="51" viewBox="0 0 60 51" fill="none" xmlns="http://www.w3.org/2000/svg">
<path fill-rule="evenodd" clip-rule="evenodd" d="M52.3978 41.074C52.3126 41.1419 52.244 41.2285 52.1975 41.3271C52.1509 41.4257 52.1276 41.5337 52.1294 41.6427C52.2118 44.7202 53.0317 47.0731 54.57 48.6756C51.473 47.9937 48.5718 46.6144 46.0865 44.6423C45.9643 44.5434 45.8116 44.4899 45.6545 44.491C45.5916 44.4908 45.529 44.4995 45.4685 44.5168C43.3976 45.096 41.2572 45.3876 39.1071 45.3834C28.6982 45.3834 20.2372 38.7357 20.2372 30.5674C20.2372 22.3991 28.6982 15.7507 39.1071 15.7507C49.5159 15.7507 57.9762 22.3964 57.9762 30.5674C57.9762 34.5379 55.9974 38.27 52.3978 41.074ZM8.4069 37.1041C12.294 36.2835 15.9082 34.4844 18.9081 31.8766C18.8643 31.4416 18.8422 31.0046 18.8421 30.5674C18.8421 26.2078 20.9694 22.1164 24.8361 19.0521C28.9342 15.9316 33.9594 14.2785 39.1071 14.3576H39.1288V2.46777C39.1287 2.31529 39.0681 2.16912 38.9603 2.06137C38.8526 1.95362 38.7066 1.89309 38.5543 1.89309H1.9637C1.8115 1.89309 1.66553 1.95364 1.55791 2.06141C1.45029 2.16918 1.38983 2.31535 1.38983 2.46777V29.2859C1.39 29.4383 1.45052 29.5843 1.5581 29.6921C1.66569 29.7998 1.81155 29.8604 1.9637 29.8606H10.4801C10.5772 29.8609 10.6733 29.8816 10.7619 29.9214C10.8506 29.9611 10.9299 30.0191 10.9948 30.0915C11.0597 30.1639 11.1087 30.2491 11.1387 30.3417C11.1687 30.4342 11.1789 30.532 11.1687 30.6288C10.8792 33.4216 9.95503 35.5882 8.4069 37.1022V37.1041ZM53.3714 19.0521C49.6682 16.2151 45.1819 14.5897 40.5233 14.3972V2.46777C40.5226 1.94541 40.3148 1.44471 39.9456 1.07572C39.5764 0.706728 39.0759 0.49965 38.5543 0.5H1.9637C1.44288 0.5007 0.943611 0.708285 0.575459 1.0772C0.207308 1.44611 0.000348957 1.94622 0 2.46777V29.2859C0.000174282 29.8076 0.207056 30.3079 0.575226 30.6769C0.943397 31.046 1.44276 31.2536 1.9637 31.2543H9.68656C9.178 34.491 7.68461 36.5678 5.12527 37.587C4.97505 37.6465 4.85018 37.7565 4.77208 37.8981C4.69398 38.0397 4.66752 38.2042 4.69724 38.3632C4.72695 38.5222 4.81099 38.6659 4.93495 38.7697C5.0589 38.8734 5.21504 38.9308 5.37659 38.9319C5.39836 38.9319 5.41485 38.9319 5.43134 38.9319C10.4579 38.555 15.2505 36.6534 19.1706 33.4804C20.0136 36.9152 22.0151 39.9532 24.8368 42.0807C28.9348 45.2008 33.9597 46.8537 39.1071 46.7745C41.2664 46.7781 43.4172 46.5012 45.5054 45.9508C48.9597 48.6074 53.1173 50.1893 57.4617 50.5C57.4782 50.5 57.4947 50.5 57.5112 50.5C57.6731 50.5002 57.8299 50.4438 57.9547 50.3405C58.0795 50.2373 58.1644 50.0938 58.1948 49.9346C58.2252 49.7754 58.1992 49.6106 58.1212 49.4685C58.0433 49.3265 57.9183 49.2161 57.7678 49.1564C55.099 48.0949 53.7098 45.7342 53.535 41.9479C57.2949 38.8982 59.3654 34.8688 59.3654 30.5654C59.3661 26.2058 57.2381 22.1164 53.3714 19.0521Z" fill="black"/>
</svg>
