<svg width="50" height="50" viewBox="0 0 50 50" fill="none" xmlns="http://www.w3.org/2000/svg">
<path d="M46.9909 13.249C46.9909 13.249 47.0187 13.1749 47.0372 13.1378C48.5284 9.2571 49.538 5.19132 50.001 1.03254C50.0288 0.754688 49.9362 0.476833 49.7324 0.273103C49.5379 0.0786074 49.2508 -0.0232755 48.973 0.00451294C44.8144 0.467604 40.739 1.46791 36.8677 2.9683C36.8307 2.98682 36.7844 2.99608 36.7473 3.01461C30.4588 5.45048 24.6978 9.18283 19.8905 13.9806L19.483 14.3881H12.0089C11.7588 14.3881 11.5273 14.49 11.3513 14.6567L1.6633 24.3447C1.39471 24.6133 1.32061 25.0116 1.45954 25.3542C1.59846 25.6969 1.94115 25.9285 2.31162 25.9285H9.78569L11.3232 27.466L7.57216 30.013C7.34062 30.1704 7.19243 30.4205 7.1739 30.6891C7.14611 30.9669 7.24799 31.2355 7.44249 31.43L18.5567 42.5442C18.7327 42.7202 18.9642 42.8128 19.2143 42.8128H19.2976C19.5755 42.785 19.8256 42.6368 19.9737 42.4146L22.5207 38.6635L24.0582 40.201V47.6751C24.0582 48.0456 24.2805 48.3882 24.6325 48.5272C24.7436 48.5735 24.864 48.6013 24.9844 48.6013C25.2252 48.6013 25.466 48.5087 25.642 48.3327L35.33 38.6447C35.506 38.4687 35.5986 38.2372 35.5986 37.9871V30.513L36.0061 30.1055C40.813 25.2986 44.5365 19.5283 46.9816 13.2398L46.9909 13.249ZM45.5275 11.869C44.3698 11.7578 42.2489 11.3133 40.4706 9.52574C38.6923 7.74747 38.2385 5.62652 38.1274 4.46881C41.3134 3.29255 44.6198 2.44976 48.0098 1.98664C47.5467 5.3765 46.7038 8.6829 45.5275 11.869ZM36.3398 5.17259C36.5621 6.70078 37.2289 8.91437 39.1554 10.8408C41.0819 12.7673 43.2954 13.4341 44.8236 13.6564C42.4804 19.2876 39.0535 24.4559 34.71 28.7996L28.7084 34.8012L15.1953 21.2882L21.1969 15.2865C25.5407 10.9427 30.7086 7.51576 36.3398 5.17259ZM24.9938 38.5152L11.4808 25.0021L13.8796 22.6033L27.3927 36.1163L24.9938 38.5152ZM12.3883 16.2405H17.6212L9.78555 24.0762H4.55264L12.3883 16.2405ZM19.0752 40.4511L9.53535 30.9113L12.6566 28.7903L21.1869 37.3207L19.066 40.4419L19.0752 40.4511ZM33.7554 37.6077L25.9197 45.4434V40.2104L33.7554 32.3748V37.6077Z" fill="black"/>
<path d="M31.4779 24.0763C32.9598 24.0763 34.3583 23.502 35.4049 22.4462C36.4515 21.3903 37.035 20.0011 37.035 18.5192C37.035 17.0373 36.4608 15.6387 35.4049 14.5921C34.3491 13.5456 32.9598 12.9621 31.4779 12.9621C29.996 12.9621 28.5975 13.5363 27.5509 14.5921C26.5043 15.648 25.9208 17.0373 25.9208 18.5192C25.9208 20.0011 26.495 21.3996 27.5509 22.4462C28.6067 23.4927 29.996 24.0763 31.4779 24.0763ZM28.8568 15.898C29.5792 15.1755 30.5239 14.8144 31.4779 14.8144C32.4319 14.8144 33.3766 15.1756 34.099 15.898C35.5439 17.3428 35.5439 19.6953 34.099 21.1402C32.6542 22.5851 30.3017 22.5851 28.8568 21.1402C27.4119 19.6954 27.4119 17.3429 28.8568 15.898Z" fill="black"/>
<path d="M10.8328 39.1637C10.4716 38.8025 9.88804 38.8025 9.52687 39.1637L0.265051 48.4255C-0.0961629 48.7867 -0.0961629 49.3702 0.265051 49.7314C0.450288 49.9166 0.68183 50 0.922655 50C1.16348 50 1.39501 49.9074 1.58026 49.7314L10.8421 40.4696C11.2033 40.1084 11.2033 39.5249 10.8421 39.1637H10.8328Z" fill="black"/>
<path d="M1.84006 41.6734C2.08087 41.6734 2.31242 41.5808 2.49767 41.4048L7.12858 36.7739C7.48979 36.4127 7.48979 35.8292 7.12858 35.468C6.76737 35.1068 6.18384 35.1068 5.82268 35.468L1.19177 40.0989C0.830553 40.4601 0.830553 41.0437 1.19177 41.4048C1.377 41.5901 1.60855 41.6734 1.84937 41.6734H1.84006Z" fill="black"/>
<path d="M13.2228 42.8684L8.59186 47.4993C8.23065 47.8605 8.23065 48.4441 8.59186 48.8052C8.7771 48.9905 9.00864 49.0738 9.24946 49.0738C9.49029 49.0738 9.72182 48.9812 9.90707 48.8052L14.538 44.1743C14.8992 43.8131 14.8992 43.2296 14.538 42.8684C14.1768 42.5072 13.5932 42.5072 13.2321 42.8684H13.2228Z" fill="black"/>
</svg>
