<svg width="20" height="18" viewBox="0 0 20 18" fill="none" xmlns="http://www.w3.org/2000/svg">
<path d="M4.47036 2.00089C4.47009 2.53129 4.25914 3.03987 3.8839 3.41473C3.50866 3.7896 2.99987 4.00004 2.46947 3.99978C1.93907 3.99951 1.43049 3.78856 1.05563 3.41332C0.680764 3.03808 0.470316 2.52929 0.470581 1.99889C0.470847 1.46849 0.681803 0.959911 1.05704 0.585047C1.43228 0.210183 1.94107 -0.000264951 2.47147 2.50348e-07C3.00187 0.000265452 3.51045 0.211222 3.88531 0.586461C4.26018 0.961701 4.47062 1.47049 4.47036 2.00089ZM4.53036 5.4807H0.530578V18H4.53036V5.4807ZM10.85 5.4807H6.87023V18H10.81V11.4304C10.81 7.77057 15.5797 7.43059 15.5797 11.4304V18H19.5295V10.0704C19.5295 3.90078 12.4699 4.13077 10.81 7.1606L10.85 5.4807Z" fill="black"/>
</svg>
