<svg width="50" height="51" viewBox="0 0 50 51" fill="none" xmlns="http://www.w3.org/2000/svg">
<path d="M10.0354 15.4643C10.0354 20.9495 12.4866 27.1693 17.3212 33.9512C20.8997 38.9708 24.5325 42.451 24.5691 42.4858C24.6899 42.6008 24.845 42.6582 25 42.6582C25.1618 42.6582 25.3235 42.596 25.4456 42.4718C25.4816 42.4348 29.1089 38.7321 32.6825 33.6058C37.5147 26.6746 39.9646 20.5708 39.9646 15.4643C39.9646 7.21295 33.2514 0.5 25 0.5C16.7487 0.5 10.0354 7.21295 10.0354 15.4643ZM38.7146 15.4643C38.7146 25.9044 27.3651 38.596 24.9872 41.14C22.5848 38.7102 11.2854 26.6798 11.2854 15.4643C11.2854 7.90235 17.4377 1.75 25 1.75C32.5623 1.75 38.7146 7.90235 38.7146 15.4643Z" fill="black"/>
<path d="M19.2133 15.0117C19.2133 18.2026 21.8091 20.7988 25 20.7988C28.1909 20.7988 30.7868 18.2026 30.7868 15.0117C30.7868 11.8208 28.1909 9.22498 25 9.22498C21.8091 9.22498 19.2133 11.8208 19.2133 15.0117ZM29.5368 15.0117C29.5368 17.5136 27.5018 19.5488 25 19.5488C22.4982 19.5488 20.4633 17.5136 20.4633 15.0117C20.4633 12.5102 22.4982 10.475 25 10.475C27.5018 10.475 29.5368 12.5102 29.5368 15.0117Z" fill="black"/>
<path d="M25 50.5C37.2888 50.5 50 47.086 50 41.3731C50 38.0851 45.6909 35.2452 38.1769 33.5817C37.8394 33.5063 37.5061 33.7199 37.4317 34.0568C37.3572 34.394 37.5696 34.7276 37.9071 34.8024C44.5954 36.2831 48.75 38.8008 48.75 41.3731C48.75 45.1771 39.2066 49.25 25 49.25C10.7935 49.25 1.25 45.1771 1.25 41.3731C1.25 38.8008 5.40466 36.2831 12.0929 34.8024C12.4304 34.7276 12.6428 34.394 12.5684 34.0568C12.4933 33.7199 12.1582 33.5057 11.8231 33.5817C4.30908 35.2452 0 38.0851 0 41.3731C0 47.086 12.7112 50.5 25 50.5Z" fill="black"/>
</svg>
