<svg width="50" height="51" viewBox="0 0 50 51" fill="none" xmlns="http://www.w3.org/2000/svg">
<path d="M13.3597 14.0598H37.7927C39.0824 14.0598 40.1288 13.0042 40.1288 11.7032C40.1288 10.3998 39.0824 9.34419 37.7927 9.34419H13.3597C12.0677 9.34419 11.0213 10.3998 11.0213 11.7032C11.0213 13.0042 12.0677 14.0598 13.3597 14.0598ZM13.3597 10.2973H37.7927C38.5603 10.2973 39.184 10.9264 39.184 11.7032C39.184 12.4776 38.5604 13.1067 37.7927 13.1067H13.3597C12.5897 13.1067 11.9661 12.4777 11.9661 11.7032C11.9661 10.9264 12.5896 10.2973 13.3597 10.2973ZM13.3597 21.0486H37.7927C39.0824 21.0486 40.1288 19.993 40.1288 18.692C40.1288 17.391 39.0824 16.3354 37.7927 16.3354H13.3597C12.0677 16.3354 11.0213 17.391 11.0213 18.692C11.0213 19.993 12.0677 21.0486 13.3597 21.0486ZM13.3597 17.2861L37.7927 17.2885C38.5603 17.2885 39.184 17.9175 39.184 18.692C39.184 19.4665 38.5604 20.0955 37.7927 20.0955H13.3597C12.5897 20.0955 11.9661 19.4665 11.9661 18.692C11.9661 17.9175 12.5896 17.2885 13.3597 17.2885V17.2861ZM45.4837 18.0939V9.89667C45.479 7.48527 43.5398 5.53137 41.1493 5.53137H32.0863L27.9598 1.66164C26.2945 0.112786 23.7293 0.112786 22.0641 1.66164L17.9376 5.53137H8.86241C6.46967 5.53137 4.53038 7.48527 4.52802 9.89667V18.1128L1.37941 21.0484C0.507816 21.8729 0.00707484 23.0214 0 24.2271V46.1347C0.00236191 48.5461 1.93687 50.4976 4.32726 50.5H45.6727C48.0608 50.4976 49.9953 48.5461 50 46.1347V24.2271C49.9906 23.0214 49.4922 21.8728 48.6206 21.0484L45.4837 18.0939ZM22.7064 2.36253C24.0078 1.14729 26.0156 1.14729 27.3171 2.36253L30.6925 5.53882H19.3425L22.7064 2.36253ZM5.48487 9.89728C5.49196 8.01488 7.00602 6.48987 8.87445 6.48505H41.1617C43.0254 6.49696 44.5324 8.01957 44.5394 9.89728V26.5387L35.4879 34.9598L28.7916 28.04H37.7935C39.0832 28.04 40.1296 26.9844 40.1296 25.681C40.1296 24.38 39.0832 23.3243 37.7935 23.3243H13.3606C12.0685 23.3243 11.0221 24.38 11.0221 25.681C11.0221 26.9844 12.0685 28.04 13.3606 28.04H21.2336L14.5373 34.9598L5.48572 26.5387L5.48487 9.89728ZM22.1706 27.1109H13.3531C12.5854 27.1109 11.9618 26.4819 11.9618 25.7074C11.9618 24.933 12.5854 24.3039 13.3531 24.3039H37.7933C38.561 24.3039 39.1846 24.933 39.1846 25.7074C39.1846 26.4819 38.561 27.1109 37.7933 27.1109H27.8535C26.2567 25.6098 23.7813 25.6098 22.1845 27.1109H22.1706ZM2.04602 21.7496L4.52856 19.4168V25.662L1.34216 22.6954C1.52168 22.3427 1.76019 22.0236 2.04602 21.7496ZM0.96895 46.1356V24.228C0.971313 24.0398 0.987847 23.8515 1.02092 23.668L4.52858 26.9349L4.62307 27.0183L13.8754 35.6657L1.70606 48.2019C1.24073 47.6157 0.983161 46.8886 0.96895 46.1356ZM45.6898 49.5479H4.35157C3.62407 49.5526 2.91544 49.3119 2.33675 48.8687L22.7002 27.8999C23.3072 27.278 24.1363 26.9277 25.0008 26.9277C25.8654 26.9277 26.6921 27.278 27.2991 27.8999L47.6886 48.8687C47.1099 49.3119 46.4013 49.5526 45.6738 49.5479H45.6898ZM49.0557 24.2279V46.1355C49.051 46.8837 48.803 47.6105 48.3494 48.2014L36.1493 35.6652L45.4016 27.0416L45.4961 26.9582L49.0037 23.6914V23.6938C49.0368 23.8701 49.0534 24.0492 49.0557 24.2279ZM45.4961 25.6385V19.4171L47.9787 21.7499C48.2645 22.0239 48.503 22.3432 48.6826 22.6959L45.4961 25.6385Z" fill="black"/>
</svg>
