<svg width="50" height="51" viewBox="0 0 50 51" fill="none" xmlns="http://www.w3.org/2000/svg">
<path d="M17.1402 18.625C17.7649 18 18.0773 17.187 18.0773 16.313C18.0773 15.439 17.7649 14.626 17.1402 14.001L10.0831 6.93786C8.77024 5.62436 6.71076 5.62436 5.39791 6.93786L3.46037 8.87635C-6.5347 18.8738 7.83321 33.2488 12.5184 38C16.0786 41.562 25.0122 50.5 33.5699 50.5C36.381 50.5 39.1921 49.499 41.6909 46.999L43.6284 45.0605C44.9413 43.747 44.9413 41.6865 43.6284 40.373L36.5057 33.3762C35.881 32.7512 35.0684 32.4387 34.1948 32.4387C33.3212 32.4387 32.5086 32.7512 31.8839 33.3762L28.1358 37.1262C27.5111 37.7512 26.5741 37.8147 25.8859 37.2507C23.5751 35.4392 21.3252 33.4372 19.2023 31.3132C17.0794 29.1892 15.0784 26.9382 13.2678 24.6263C12.7675 23.9378 12.831 23.0003 13.3922 22.3753L17.1402 18.625ZM12.0183 25.6243C13.8923 27.9998 15.9543 30.3118 18.0773 32.4355C20.2002 34.5595 22.5136 36.6225 24.8852 38.4975C26.198 39.4985 28.0721 39.435 29.258 38.2485L33.0061 34.4985C33.6308 33.8735 34.7558 33.8735 35.3805 34.4985L42.4401 41.5616C42.7525 41.8741 42.9403 42.3111 42.9403 42.7481C42.9403 43.1851 42.7525 43.6221 42.4401 43.9346L40.5026 45.8731C36.8813 49.4986 32.3204 49.8745 26.5107 46.9375C21.5132 44.4376 16.828 39.9988 13.7046 36.8738C1.64739 24.8107 -1.28804 16.0001 4.64653 9.99889L6.58407 8.06039C6.89642 7.74789 7.3332 7.55991 7.76999 7.55991C8.20678 7.55991 8.64356 7.74789 8.9559 8.06039L16.0155 15.1235C16.3279 15.436 16.5158 15.873 16.5158 16.31C16.5158 16.747 16.3279 17.184 16.0155 17.4965L12.2674 21.2465C11.0815 22.4379 10.9568 24.3133 12.0183 25.6243Z" fill="black"/>
<path d="M25.0126 0.5C24.5758 0.5 24.2 0.875974 24.2 1.313C24.2 1.75002 24.5758 2.126 25.0126 2.126C37.8825 2.126 48.3748 12.6266 48.3748 25.4997C48.3748 25.9367 48.7506 26.3127 49.1874 26.3127C49.6242 26.3127 50 25.9367 50 25.4997C50 11.686 38.8195 0.5 25.0126 0.5Z" fill="black"/>
<path d="M25.0126 8.56123C34.3192 8.56123 41.943 16.1856 41.943 25.4999C41.943 25.9369 42.3188 26.3129 42.7556 26.3129C43.1924 26.3129 43.5682 25.937 43.5682 25.4999C43.5682 15.2512 35.2592 6.93811 25.0155 6.93811C24.5787 6.93811 24.2029 7.31408 24.2029 7.75111C24.2004 8.18812 24.5758 8.56123 25.0126 8.56123Z" fill="black"/>
<path d="M25.0126 14.9993C30.7593 14.9993 35.508 19.6868 35.508 25.4999C35.508 25.9369 35.8838 26.3129 36.3206 26.3129C36.7574 26.3129 37.1332 25.937 37.1332 25.4999C37.1332 18.8131 31.6989 13.4368 25.0761 13.4368C24.6393 13.4368 24.2635 13.8128 24.2635 14.2498C24.2635 14.6869 24.5758 14.9993 25.0126 14.9993Z" fill="black"/>
</svg>
