<svg width="54" height="48" viewBox="0 0 54 48" fill="none" xmlns="http://www.w3.org/2000/svg">
<path fill-rule="evenodd" clip-rule="evenodd" d="M45.201 43.9551V43.9497L45.2493 43.8345L53.2834 3.32904V3.20045C53.2834 2.19049 52.9083 1.30912 52.0993 0.781374C51.3894 0.317919 50.5723 0.285772 49.999 0.328634C49.4654 0.376898 48.9388 0.484726 48.4292 0.650106C48.2118 0.720174 47.9973 0.798818 47.7862 0.885853L47.7514 0.899247L2.9596 18.4704L2.94621 18.4757C2.81003 18.5222 2.67674 18.5768 2.54705 18.6392C2.22849 18.7823 1.92286 18.9526 1.63353 19.1482C1.05756 19.5446 -0.0381235 20.4769 0.146723 21.9557C0.299422 23.1826 1.14329 23.9595 1.7139 24.364C2.05071 24.6001 2.41282 24.7977 2.79351 24.9534L2.87924 24.9909L2.90603 24.9989L2.92478 25.007L10.7633 27.6457C10.7366 28.136 10.7848 28.6369 10.916 29.1325L14.8407 44.0247C15.0551 44.8365 15.5184 45.5607 16.1655 46.0957C16.8126 46.6307 17.611 46.9495 18.4486 47.0074C19.2862 47.0654 20.1209 46.8595 20.8355 46.4187C21.5501 45.9779 22.1087 45.3243 22.4328 44.5498L28.5622 37.9971L39.0877 46.0661L39.2377 46.1304C40.1941 46.5483 41.0862 46.6796 41.9033 46.5697C42.7204 46.4572 43.3687 46.1143 43.8562 45.7259C44.4201 45.2686 44.8696 44.6862 45.1689 44.0247L45.1903 43.9792L45.1984 43.9631L45.201 43.9551ZM14.8005 28.1092C14.757 27.9439 14.7674 27.7692 14.83 27.6102C14.8926 27.4512 15.0043 27.3163 15.1488 27.2251L41.7265 10.3478C41.7265 10.3478 43.291 9.39683 43.2347 10.3478C43.2347 10.3478 43.5133 10.5139 42.6748 11.2935C41.8818 12.0356 23.7321 29.5585 21.8943 31.3319C21.7921 31.4312 21.7205 31.5576 21.688 31.6963L18.7251 43.0014L14.8005 28.1092Z" fill="white"/>
</svg>
