<svg width="24" height="24" viewBox="0 0 24 24" fill="none" xmlns="http://www.w3.org/2000/svg">
<path d="M22.9787 21.9586L17.0941 15.9059C18.5802 14.0268 19.3086 11.6329 19.1293 9.21774C18.95 6.80253 17.8766 4.55017 16.1303 2.92503C14.3841 1.29989 12.0981 0.425871 9.74385 0.48318C7.38956 0.540489 5.14639 1.52476 3.47684 3.23305C1.816 4.9503 0.859075 7.25756 0.803358 9.67911C0.74764 12.1007 1.59738 14.4519 3.17738 16.2481C4.75737 18.0442 6.94717 19.1483 9.29529 19.3328C11.6434 19.5172 13.9708 18.7679 15.7976 17.2394L21.6822 23.2921C21.8581 23.447 22.0844 23.528 22.3158 23.5188C22.5472 23.5096 22.7667 23.4109 22.9304 23.2425C23.0942 23.074 23.1901 22.8483 23.1991 22.6102C23.208 22.3722 23.1293 22.1395 22.9787 21.9586ZM4.77328 15.2722C3.56932 14.0353 2.81958 12.4072 2.6518 10.6654C2.48401 8.92357 2.90856 7.17582 3.85311 5.71987C4.79766 4.26393 6.20377 3.18988 7.83189 2.68071C9.46001 2.17154 11.2094 2.25876 12.782 2.92749C14.3546 3.59623 15.6532 4.80512 16.4564 6.34819C17.2596 7.89127 17.5178 9.67306 17.1871 11.39C16.8563 13.107 15.957 14.6528 14.6424 15.7642C13.3278 16.8757 11.6792 17.4839 9.97744 17.4853C9.01082 17.4886 8.05315 17.2948 7.15986 16.9149C6.26656 16.535 5.45539 15.9767 4.77328 15.2722ZM10.8969 4.24498C10.8969 4.49581 10.8 4.73636 10.6276 4.91372C10.4552 5.09108 10.2213 5.19072 9.97744 5.19072C8.75816 5.19072 7.58882 5.68891 6.72665 6.57571C5.86449 7.46251 5.38013 8.66526 5.38013 9.91938C5.38013 10.1702 5.28326 10.4108 5.11082 10.5881C4.93839 10.7655 4.70452 10.8651 4.46066 10.8651C4.21681 10.8651 3.98294 10.7655 3.81051 10.5881C3.63807 10.4108 3.5412 10.1702 3.5412 9.91938C3.5412 8.16362 4.2193 6.47976 5.42633 5.23824C6.63336 3.99673 8.27045 3.29925 9.97744 3.29925C10.2213 3.29925 10.4552 3.39889 10.6276 3.57625C10.8 3.75361 10.8969 3.99416 10.8969 4.24498Z" fill="white"/>
</svg>
