<svg width="50" height="50" viewBox="0 0 50 50" fill="none" xmlns="http://www.w3.org/2000/svg">
<path d="M27.4428 47.9291C29.5262 47.9291 31.218 46.2325 31.218 44.1377V6.31298C31.218 4.21821 29.5262 2.52153 27.4428 2.52153H4.46367C2.37789 2.52153 0.688477 4.21821 0.688477 6.31298V44.1377C0.688477 46.2325 2.37789 47.9291 4.46367 47.9291H27.4428ZM1.94848 44.1377L1.94612 6.31298C1.94612 4.91724 3.07397 3.78453 4.46372 3.78453H27.4429C28.1106 3.78453 28.75 4.04993 29.2219 4.5239C29.6938 4.99786 29.9581 5.6424 29.9581 6.31298V44.1377C29.9581 44.8083 29.6938 45.4529 29.2219 45.9268C28.75 46.4007 28.1106 46.6661 27.4429 46.6661H4.46372C3.07397 46.6661 1.94612 45.5334 1.94612 44.1377H1.94848ZM27.4428 45.4007V45.4031C27.7755 45.4031 28.0964 45.268 28.3324 45.031C28.5683 44.7941 28.7004 44.4742 28.7004 44.1376V6.31293C28.7004 5.97644 28.5683 5.65656 28.3324 5.41954C28.0964 5.18258 27.7755 5.04751 27.4428 5.04751H4.46367C3.76764 5.04751 3.20608 5.61385 3.20608 6.31288V44.1376C3.20608 44.4741 3.33821 44.794 3.57416 45.031C3.81011 45.2679 4.131 45.403 4.46372 45.403L27.4428 45.4007ZM4.46367 6.31298H27.4428V44.1377H4.46367V6.31298ZM19.7342 38.7229C19.7342 38.8911 19.6681 39.0523 19.5501 39.1708C19.4321 39.2892 19.2717 39.3556 19.1042 39.3556H12.8114H12.8137C12.4645 39.3556 12.1837 39.0712 12.1837 38.7229C12.1837 38.3745 12.4645 38.0902 12.8137 38.0902H19.1065H19.1042C19.2717 38.0902 19.4321 38.1565 19.5501 38.275C19.6681 38.3935 19.7342 38.5546 19.7342 38.7229ZM7.151 12.6565C7.151 12.3082 7.43178 12.0238 7.77865 12.0238H20.3455C20.6923 12.0238 20.9732 12.3082 20.9732 12.6565C20.9732 13.0049 20.6924 13.2892 20.3455 13.2892H7.79798C7.45113 13.2892 7.17033 13.0049 7.17033 12.6565H7.151ZM24.7174 16.7774C24.7174 16.9433 24.6513 17.1044 24.5334 17.2229C24.4154 17.3414 24.255 17.4077 24.0874 17.4077H7.79733C7.45048 17.4077 7.16968 17.1257 7.16968 16.7774C7.16968 16.4267 7.45046 16.1446 7.79733 16.1446H24.1062C24.2737 16.1446 24.4341 16.211 24.5521 16.3295C24.6701 16.448 24.7361 16.6091 24.7361 16.7773L24.7174 16.7774ZM7.16972 20.903C7.16972 20.5546 7.4505 20.2702 7.79737 20.2702H20.3449C20.6917 20.2702 20.9725 20.5546 20.9725 20.903C20.9725 21.2513 20.6918 21.5357 20.3449 21.5357H7.79737C7.45053 21.5357 7.16972 21.2513 7.16972 20.903ZM24.7361 25.0285C24.7361 25.1968 24.6701 25.3579 24.5521 25.4764C24.4341 25.5949 24.2737 25.6612 24.1062 25.6612H7.79733C7.45048 25.6612 7.16968 25.3793 7.16968 25.0285C7.16968 24.6802 7.45046 24.3982 7.79733 24.3982H24.1062C24.2737 24.3982 24.4341 24.4645 24.5521 24.583C24.6701 24.7015 24.7361 24.8627 24.7361 25.0285ZM7.16972 29.1494C7.16972 28.8011 7.4505 28.5167 7.79737 28.5167H20.3449C20.6917 28.5167 20.9725 28.801 20.9725 29.1494C20.9725 29.4978 20.6918 29.7821 20.3449 29.7821H7.79737C7.45053 29.7821 7.16972 29.4978 7.16972 29.1494ZM24.7361 33.275C24.7361 33.4432 24.6701 33.6044 24.5521 33.7228C24.4341 33.8413 24.2737 33.9077 24.1062 33.9077H7.79733C7.45048 33.9077 7.16968 33.6257 7.16968 33.275C7.16968 32.9266 7.45046 32.6446 7.79733 32.6446H24.1062C24.2737 32.6446 24.4341 32.711 24.5521 32.8294C24.6701 32.9479 24.7361 33.1091 24.7361 33.275ZM43.4236 0C40.1723 0.0023695 37.5367 2.64928 37.5343 5.91466V42.0214C37.5343 42.6138 37.6736 43.1944 37.9425 43.7204L40.1015 47.974C40.7362 49.2181 42.0127 50 43.4048 50C44.7969 50 46.0734 49.218 46.7081 47.974L48.9095 43.7204C49.1738 43.1944 49.313 42.6115 49.313 42.0214V5.91466C49.3106 2.64928 46.675 0.00236586 43.4236 0ZM48.0553 40.8221L46.5075 39.2178V39.2155C46.3872 39.0923 46.2244 39.0212 46.0545 39.0212C45.8822 39.0212 45.7194 39.0923 45.6015 39.2155L44.0536 40.8197V9.54723L46.0545 7.46903L48.0553 9.54723V40.8221ZM42.7961 40.8221L41.2482 39.2178L41.2459 39.2155C41.1279 39.0923 40.9651 39.0212 40.7928 39.0212C40.623 39.0212 40.4602 39.0923 40.3398 39.2155L38.792 40.8197V9.54723L40.7928 7.46903L42.7937 9.54723L42.7961 40.8221ZM45.6085 47.4192L45.6062 47.4168C45.1862 48.2391 44.3439 48.758 43.4236 48.758C42.5034 48.758 41.6611 48.2391 41.2411 47.4168L39.0633 43.1443V43.1467C38.9736 42.9619 38.9028 42.7699 38.8556 42.5709L40.7927 40.5614L42.9706 42.8244C43.0886 42.9477 43.2537 43.0164 43.4236 43.0164C43.5935 43.0164 43.7587 42.9477 43.8766 42.8244L46.0545 40.5614L47.9916 42.5709C47.9468 42.7699 47.8783 42.9642 47.784 43.1467L45.6085 47.4192ZM48.0553 7.7297L46.5075 6.12547V6.1231C46.3872 5.99988 46.2244 5.92879 46.0545 5.92879C45.8822 5.92879 45.7194 5.99988 45.6015 6.1231L43.4236 8.37904L41.2458 6.1231C41.1278 5.99988 40.965 5.92879 40.7928 5.92879C40.6229 5.92879 40.4601 5.99988 40.3398 6.1231L38.7919 7.72733V5.91454C38.7919 3.34581 40.8659 1.26288 43.4236 1.26288C45.9813 1.26288 48.0553 3.34581 48.0553 5.91454V7.7297Z" fill="black"/>
</svg>
