<svg width="250" height="251" viewBox="0 0 250 251" fill="none" xmlns="http://www.w3.org/2000/svg">
<path d="M122.943 18.0898V5.48978H131.169V7.34378H125.247V10.7998H130.629V12.5998H125.247V16.2358H131.169V18.0898H122.943Z" fill="#333333"/>
<path d="M136.862 18.714L141.648 12.9488L138.552 6.22775L141.173 6.59393L143.364 11.3347L146.539 7.34371L149.106 7.70241L144.325 13.4319L147.451 20.1936L144.831 19.8275L142.612 15.0282L139.429 19.0727L136.862 18.714Z" fill="#333333"/>
<path d="M152.331 21.6325L155.785 9.51507L160.268 10.793C161.238 11.0693 161.994 11.4595 162.536 11.9635C163.079 12.4675 163.425 13.0467 163.576 13.701C163.726 14.3553 163.701 15.0344 163.5 15.7384C163.31 16.4077 162.984 16.9824 162.522 17.4623C162.065 17.9307 161.469 18.2476 160.735 18.4129C160.005 18.5667 159.144 18.5021 158.152 18.2192L155.884 17.5729L154.547 22.264L152.331 21.6325ZM156.397 15.7726L158.526 16.3794C159.299 16.5998 159.901 16.5904 160.331 16.3511C160.776 16.1036 161.082 15.6855 161.25 15.097C161.421 14.4969 161.381 13.9801 161.13 13.5468C160.894 13.1052 160.39 12.7742 159.617 12.5538L157.487 11.9469L156.397 15.7726Z" fill="#333333"/>
<path d="M166.645 26.5343L171.742 15.0114L173.849 15.9435L169.48 25.8202L174.583 28.0777L173.855 29.7238L166.645 26.5343Z" fill="#333333"/>
<path d="M183.523 35.7699C182.453 35.1056 181.66 34.289 181.146 33.3202C180.641 32.3577 180.416 31.3211 180.47 30.2104C180.54 29.0959 180.913 27.9932 181.59 26.9021C182.267 25.8111 183.086 24.9918 184.047 24.4442C185.025 23.8928 186.057 23.6293 187.143 23.6537C188.24 23.6845 189.324 24.032 190.394 24.6963C191.455 25.3543 192.242 26.1677 192.757 27.1366C193.271 28.1054 193.493 29.1471 193.423 30.2616C193.359 31.3659 192.989 32.4636 192.312 33.5546C191.635 34.6457 190.813 35.4701 189.846 36.0278C188.884 36.5754 187.856 36.8338 186.759 36.803C185.662 36.7723 184.584 36.4279 183.523 35.7699ZM184.615 34.011C185.634 34.6437 186.654 34.8101 187.673 34.5104C188.702 34.2171 189.581 33.4841 190.308 32.3114C191.036 31.1388 191.303 30.0262 191.108 28.9736C190.924 27.9274 190.323 27.0879 189.303 26.4552C188.283 25.8226 187.259 25.6529 186.229 25.9463C185.2 26.2397 184.322 26.9727 183.594 28.1453C182.866 29.3179 182.6 30.4305 182.794 31.4831C182.988 32.5357 183.595 33.3783 184.615 34.011Z" fill="#333333"/>
<path d="M191.591 41.3555L199.651 31.6713L203.207 34.6307C203.982 35.2756 204.507 35.939 204.782 36.6211C205.074 37.3015 205.157 37.9714 205.03 38.6306C204.91 39.2806 204.624 39.8776 204.171 40.4218C203.68 41.0121 203.074 41.4211 202.354 41.6489C201.642 41.8844 200.867 41.8403 200.028 41.5166L198.66 47.2399L196.626 45.5471L198.006 40.2317L196.54 39.0111L193.361 42.8295L191.591 41.3555ZM197.622 37.7107L199.296 39.104C199.886 39.5953 200.439 39.8132 200.954 39.7576C201.468 39.702 201.921 39.439 202.313 38.9686C202.697 38.5075 202.865 38.0234 202.819 37.5164C202.782 37.0171 202.459 36.5141 201.85 36.0074L200.19 34.6255L197.622 37.7107Z" fill="#333333"/>
<path d="M202.726 51.5993L212.049 43.1238L217.582 49.2106L216.21 50.4577L212.227 46.0757L209.67 48.4004L213.29 52.3829L211.958 53.5936L208.338 49.6112L205.647 52.057L209.631 56.439L208.259 57.6861L202.726 51.5993Z" fill="#333333"/>
<path d="M219.218 74.4079L230.507 68.8126L231.722 71.2641L226.344 78.4096L235.263 78.4087L236.478 80.8602L225.189 86.4554L224.166 84.3911L231.955 80.5303L224.22 80.4468L223.412 78.8179L228.031 72.6115L220.241 76.4723L219.218 74.4079Z" fill="#333333"/>
<path d="M227.068 93.8886C226.67 92.6931 226.583 91.5585 226.807 90.4846C227.035 89.4222 227.525 88.4814 228.277 87.662C229.044 86.8503 230.037 86.2417 231.255 85.8362C232.473 85.4307 233.627 85.325 234.716 85.519C235.82 85.7206 236.782 86.1783 237.601 86.8921C238.424 87.6173 239.035 88.5776 239.433 89.7731C239.827 90.9573 239.912 92.0862 239.687 93.1601C239.463 94.2339 238.967 95.1766 238.2 95.9884C237.445 96.7963 236.458 97.403 235.24 97.8085C234.021 98.214 232.862 98.3216 231.762 98.1314C230.673 97.9374 229.717 97.4778 228.893 96.7526C228.07 96.0274 227.462 95.0728 227.068 93.8886ZM229.032 93.2349C229.411 94.3735 230.088 95.1536 231.063 95.5753C232.041 96.0083 233.186 96.007 234.495 95.5712C235.804 95.1354 236.721 94.4508 237.245 93.5176C237.773 92.5957 237.848 91.5654 237.469 90.4268C237.09 89.2883 236.411 88.5024 235.432 88.0694C234.453 87.6364 233.309 87.6377 232 88.0735C230.69 88.5093 229.773 89.1939 229.249 90.1271C228.725 91.0604 228.653 92.0963 229.032 93.2349Z" fill="#333333"/>
<path d="M229.695 103.343L242.086 101.056L242.925 105.605C243.108 106.597 243.087 107.443 242.862 108.143C242.652 108.853 242.287 109.421 241.767 109.846C241.26 110.269 240.658 110.545 239.961 110.673C239.206 110.813 238.479 110.739 237.779 110.454C237.082 110.18 236.514 109.65 236.077 108.864L231.364 112.388L230.884 109.786L235.345 106.583L234.998 104.707L230.113 105.608L229.695 103.343ZM236.662 104.4L237.057 106.542C237.197 107.297 237.482 107.818 237.913 108.104C238.344 108.391 238.861 108.479 239.463 108.368C240.053 108.259 240.492 107.995 240.781 107.575C241.072 107.168 241.145 106.574 241.002 105.796L240.61 103.671L236.662 104.4Z" fill="#333333"/>
<path d="M231.699 118.339L244.287 117.79L244.646 126.008L242.794 126.089L242.535 120.173L239.083 120.323L239.317 125.7L237.519 125.779L237.284 120.402L233.652 120.56L233.91 126.477L232.058 126.558L231.699 118.339Z" fill="#333333"/>
<path d="M232.131 151.945C232.233 151.514 232.433 151.142 232.73 150.83C233.023 150.53 233.371 150.311 233.775 150.172C234.186 150.048 234.614 150.039 235.058 150.145C235.501 150.251 235.879 150.452 236.191 150.748C236.5 151.056 236.718 151.411 236.844 151.811C236.968 152.223 236.979 152.645 236.876 153.077C236.767 153.532 236.566 153.91 236.272 154.21C235.976 154.521 235.622 154.739 235.21 154.863C234.798 154.987 234.37 154.996 233.927 154.89C233.483 154.784 233.105 154.583 232.794 154.287C232.493 153.993 232.282 153.641 232.158 153.229C232.031 152.828 232.022 152.401 232.131 151.945Z" fill="#333333"/>
<path d="M219.181 175.619L230.167 181.789L226.139 188.961L224.523 188.053L227.422 182.89L224.409 181.197L221.774 185.89L220.204 185.009L222.84 180.316L219.669 178.536L216.77 183.699L215.153 182.791L219.181 175.619Z" fill="#333333"/>
<path d="M211.821 187.45L214.504 194.445L221.88 195.037L220.278 197.143L215.071 196.732L216.996 201.454L215.427 203.517L212.772 196.543L205.346 195.958L206.948 193.852L212.219 194.267L210.251 189.512L211.821 187.45Z" fill="#333333"/>
<path d="M201.702 199.508L210.576 208.453L207.266 211.736C206.551 212.446 205.84 212.914 205.135 213.14C204.43 213.367 203.755 213.385 203.111 213.196C202.467 213.007 201.887 212.652 201.372 212.133C200.882 211.639 200.54 211.073 200.347 210.436C200.163 209.807 200.179 209.133 200.394 208.412C200.617 207.7 201.095 206.981 201.828 206.254L203.502 204.593L200.066 201.13L201.702 199.508ZM204.82 205.922L203.248 207.482C202.678 208.048 202.391 208.577 202.389 209.069C202.387 209.578 202.602 210.05 203.033 210.485C203.472 210.928 203.942 211.146 204.443 211.139C204.944 211.15 205.479 210.872 206.05 210.306L207.622 208.746L204.82 205.922Z" fill="#333333"/>
<path d="M190.419 209.588L197.97 219.675L196.125 221.055L189.653 212.409L185.186 215.753L184.107 214.312L190.419 209.588Z" fill="#333333"/>
<path d="M174.101 219.782C175.205 219.174 176.305 218.883 177.402 218.909C178.488 218.94 179.502 219.251 180.444 219.842C181.381 220.449 182.16 221.315 182.78 222.439C183.4 223.564 183.713 224.679 183.72 225.785C183.722 226.907 183.446 227.936 182.893 228.872C182.329 229.813 181.496 230.587 180.392 231.195C179.299 231.798 178.204 232.086 177.108 232.06C176.011 232.035 174.994 231.718 174.057 231.111C173.125 230.515 172.349 229.655 171.729 228.53C171.11 227.406 170.793 226.285 170.781 225.168C170.774 224.062 171.052 223.039 171.616 222.098C172.18 221.157 173.008 220.385 174.101 219.782ZM175.101 221.595C174.05 222.175 173.405 222.982 173.168 224.017C172.919 225.058 173.128 226.183 173.795 227.392C174.461 228.6 175.3 229.378 176.313 229.724C177.315 230.076 178.342 229.962 179.393 229.383C180.444 228.803 181.094 227.993 181.342 226.952C181.59 225.911 181.381 224.786 180.715 223.577C180.049 222.369 179.209 221.591 178.196 221.245C177.183 220.899 176.152 221.016 175.101 221.595Z" fill="#333333"/>
<path d="M165.281 224.081L169.778 235.852L165.457 237.503C164.515 237.862 163.679 237.995 162.95 237.901C162.214 237.823 161.589 237.567 161.077 237.133C160.568 236.711 160.188 236.169 159.935 235.508C159.661 234.79 159.601 234.062 159.755 233.322C159.898 232.587 160.316 231.932 161.009 231.359L156.689 227.364L159.161 226.42L163.12 230.225L164.902 229.544L163.129 224.904L165.281 224.081ZM165.506 231.125L163.471 231.902C162.754 232.176 162.293 232.551 162.09 233.027C161.886 233.503 161.894 234.027 162.112 234.599C162.326 235.159 162.666 235.544 163.131 235.751C163.584 235.964 164.181 235.928 164.921 235.646L166.938 234.875L165.506 231.125Z" fill="#333333"/>
<path d="M150.897 228.774L153.722 241.053L145.705 242.897L145.29 241.091L151.061 239.763L150.286 236.395L145.041 237.602L144.638 235.847L149.883 234.641L149.067 231.097L143.296 232.425L142.881 230.618L150.897 228.774Z" fill="#333333"/>
<path d="M122.934 231.986L122.285 244.569L119.553 244.428L115.956 236.24L111.589 244.017L108.857 243.876L109.506 231.292L111.807 231.411L111.359 240.094L115.22 233.39L117.035 233.483L120.185 240.549L120.633 231.867L122.934 231.986Z" fill="#333333"/>
<path d="M102.105 229.291C103.342 229.529 104.374 230.009 105.201 230.731C106.015 231.45 106.596 232.338 106.942 233.394C107.274 234.461 107.319 235.624 107.076 236.885C106.833 238.146 106.36 239.203 105.658 240.058C104.941 240.922 104.071 241.536 103.048 241.901C102.012 242.264 100.876 242.326 99.6389 242.087C98.4134 241.851 97.3875 241.372 96.5611 240.651C95.7347 239.93 95.1554 239.036 94.8231 237.97C94.4886 236.915 94.4429 235.758 94.6859 234.497C94.9289 233.236 95.4027 232.172 96.1074 231.306C96.8098 230.452 97.6787 229.843 98.714 229.481C99.7494 229.118 100.88 229.055 102.105 229.291ZM101.713 231.323C100.535 231.096 99.5234 231.305 98.6783 231.948C97.8215 232.59 97.2624 233.588 97.0013 234.943C96.7401 236.298 96.8881 237.433 97.4452 238.347C97.9905 239.258 98.8523 239.828 100.031 240.055C101.209 240.282 102.227 240.075 103.083 239.433C103.94 238.792 104.499 237.794 104.76 236.439C105.022 235.083 104.874 233.949 104.317 233.035C103.759 232.121 102.892 231.551 101.713 231.323Z" fill="#333333"/>
<path d="M92.5757 226.952L88.502 238.875L84.1244 237.38C83.1706 237.054 82.4433 236.622 81.9426 236.083C81.4267 235.551 81.1105 234.955 80.994 234.294C80.8736 233.644 80.9279 232.984 81.1568 232.314C81.4051 231.587 81.8251 230.989 82.4168 230.519C82.9972 230.045 83.7371 229.81 84.6364 229.813L83.8718 223.978L86.3756 224.834L86.9837 230.292L88.7893 230.908L90.3955 226.207L92.5757 226.952ZM88.2422 232.51L86.1812 231.805C85.4544 231.557 84.8606 231.551 84.3996 231.786C83.9387 232.022 83.6093 232.429 83.4114 233.008C83.2174 233.576 83.2326 234.089 83.4569 234.546C83.6698 234.999 84.151 235.354 84.9004 235.61L86.9444 236.308L88.2422 232.51Z" fill="#333333"/>
<path d="M78.5183 221.357L72.8337 232.602L65.4924 228.89L66.3289 227.236L71.6139 229.908L73.1731 226.823L68.37 224.395L69.1821 222.789L73.9852 225.217L75.6257 221.972L70.3406 219.3L71.1771 217.646L78.5183 221.357Z" fill="#333333"/>
<path d="M49.0056 205.277C49.3318 205.578 49.5582 205.935 49.6849 206.346C49.8028 206.749 49.8234 207.16 49.7466 207.579C49.6528 207.999 49.4513 208.376 49.1419 208.711C48.8325 209.046 48.4722 209.277 48.0612 209.404C47.6413 209.522 47.2258 209.539 46.8148 209.453C46.395 209.359 46.022 209.162 45.6958 208.861C45.352 208.543 45.1212 208.183 45.0033 207.78C44.8766 207.369 44.8601 206.953 44.9538 206.533C45.0476 206.114 45.2491 205.736 45.5585 205.401C45.8679 205.066 46.2282 204.835 46.6393 204.709C47.0422 204.591 47.4536 204.579 47.8734 204.673C48.2844 204.758 48.6618 204.96 49.0056 205.277Z" fill="#333333"/>
<path d="M34.7055 182.394L23.9466 188.952L19.6652 181.928L21.2483 180.963L24.3305 186.02L27.2815 184.221L24.4804 179.626L26.0173 178.689L28.8185 183.284L31.9232 181.392L28.841 176.335L30.4241 175.37L34.7055 182.394Z" fill="#333333"/>
<path d="M27.9941 170.184L20.5804 169.098L16.4526 175.24L15.4014 172.811L18.3091 168.473L13.2488 167.839L12.219 165.461L19.5997 166.561L23.7462 160.372L24.7974 162.8L21.8544 167.193L26.9643 167.805L27.9941 170.184Z" fill="#333333"/>
<path d="M22.4349 155.457L10.2904 158.814L9.04815 154.321C8.77954 153.349 8.71923 152.501 8.86721 151.775C9.01518 151.049 9.32937 150.452 9.80978 149.983C10.2902 149.514 10.8831 149.182 11.5887 148.987C12.2595 148.802 12.9199 148.781 13.5697 148.925C14.2081 149.072 14.7886 149.416 15.3115 149.956C15.8228 150.499 16.2159 151.268 16.4909 152.263L17.1193 154.536L21.8209 153.236L22.4349 155.457ZM15.315 155.035L14.725 152.901C14.5108 152.126 14.1896 151.617 13.7614 151.374C13.3185 151.123 12.8021 151.079 12.2122 151.242C11.6108 151.409 11.1903 151.712 10.9508 152.151C10.6966 152.583 10.6766 153.186 10.8908 153.961L11.4808 156.095L15.315 155.035Z" fill="#333333"/>
<path d="M19.1706 140.684L6.67841 142.328L6.37768 140.044L17.0853 138.634L16.357 133.102L18.1416 132.867L19.1706 140.684Z" fill="#333333"/>
<path d="M18.272 121.464C18.262 122.724 17.9772 123.826 17.4177 124.769C16.8583 125.701 16.0905 126.433 15.1142 126.965C14.1261 127.485 12.99 127.74 11.7061 127.73C10.4221 127.72 9.29623 127.447 8.32845 126.911C7.34876 126.364 6.58664 125.619 6.04208 124.679C5.49762 123.727 5.23039 122.621 5.24039 121.361C5.25029 120.113 5.53499 119.017 6.09449 118.073C6.654 117.13 7.42783 116.398 8.41598 115.878C9.39214 115.357 10.5222 115.102 11.8062 115.113C13.0901 115.123 14.222 115.396 15.2018 115.931C16.1696 116.467 16.9257 117.211 17.4701 118.164C18.0146 119.116 18.2819 120.216 18.272 121.464ZM16.202 121.448C16.2116 120.248 15.8231 119.291 15.0368 118.576C14.2505 117.85 13.1674 117.481 11.7875 117.47C10.4075 117.459 9.31868 117.811 8.52099 118.525C7.7234 119.226 7.31984 120.177 7.31032 121.377C7.3008 122.577 7.68917 123.54 8.47543 124.266C9.2617 124.993 10.3448 125.361 11.7248 125.372C13.1047 125.383 14.1935 125.032 14.9912 124.318C15.7889 123.604 16.1925 122.648 16.202 121.448Z" fill="#333333"/>
<path d="M18.8427 111.668L6.37812 109.826L7.05463 105.249C7.20204 104.252 7.49525 103.459 7.93427 102.868C8.36318 102.265 8.89216 101.846 9.52122 101.611C10.1384 101.375 10.7972 101.308 11.4976 101.412C12.2573 101.524 12.922 101.829 13.4915 102.325C14.0627 102.81 14.4285 103.495 14.5888 104.38L20.1878 102.569L19.8008 105.187L14.544 106.775L14.265 108.663L19.1796 109.389L18.8427 111.668ZM12.5912 108.415L12.9097 106.261C13.022 105.501 12.9205 104.916 12.6051 104.505C12.2898 104.095 11.8294 103.845 11.224 103.755C10.6304 103.667 10.1293 103.775 9.72049 104.079C9.31347 104.37 9.05205 104.908 8.93623 105.691L8.62035 107.828L12.5912 108.415Z" fill="#333333"/>
<path d="M21.7942 96.8287L9.70457 93.2789L12.0221 85.3861L13.801 85.9084L12.1326 91.5905L15.4486 92.5642L16.9649 87.4002L18.692 87.9073L17.1757 93.0713L20.6644 94.0957L22.3328 88.4136L24.1117 88.9359L21.7942 96.8287Z" fill="#333333"/>
<path d="M32.6863 70.8751L22.0328 64.1474L23.4937 61.834L32.3943 62.7075L27.7514 55.0919L29.2123 52.7786L39.8658 59.5063L38.6356 61.4544L31.2847 56.8122L35.2395 63.461L34.2688 64.9982L26.5656 64.2849L33.9165 68.9271L32.6863 70.8751Z" fill="#333333"/>
<path d="M45.2352 54.0334C44.4215 54.9954 43.4978 55.6601 42.4641 56.0274C41.4382 56.3855 40.3798 56.4568 39.2889 56.2414C38.1967 56.009 37.1604 55.4782 36.1801 54.649C35.1997 53.8198 34.509 52.8897 34.1079 51.8588C33.7054 50.8111 33.5956 49.7516 33.7787 48.6805C33.9695 47.6002 34.4717 46.5791 35.2855 45.6171C36.0914 44.6643 37.0113 44.0042 38.045 43.6369C39.0786 43.2696 40.1416 43.2021 41.2339 43.4345C42.317 43.6591 43.3487 44.186 44.329 45.0153C45.3093 45.8445 46.0046 46.7784 46.4149 47.8171C46.816 48.8479 46.9212 49.9035 46.7304 50.9838C46.5396 52.064 46.0412 53.0806 45.2352 54.0334ZM43.6548 52.6966C44.4298 51.7804 44.7436 50.7963 44.5961 49.7442C44.4564 48.683 43.8598 47.7068 42.8062 46.8156C41.7526 45.9244 40.6909 45.4979 39.6212 45.5361C38.5593 45.5651 37.6409 46.0378 36.8659 46.9539C36.0909 47.8701 35.7732 48.8588 35.9129 49.92C36.0526 50.9812 36.6493 51.9574 37.7029 52.8487C38.7565 53.7399 39.8182 54.1664 40.8878 54.1282C41.9575 54.09 42.8798 53.6128 43.6548 52.6966Z" fill="#333333"/>
<path d="M51.9404 46.8698L43.5391 37.4794L46.9867 34.3949C47.7379 33.7228 48.471 33.3004 49.186 33.1277C49.9019 32.9381 50.5766 32.9543 51.2102 33.1765C51.8357 33.3897 52.3845 33.7602 52.8566 34.2878C53.3686 34.8602 53.6847 35.5194 53.8047 36.2654C53.9336 37.0035 53.7766 37.7638 53.3337 38.5466L58.7954 40.7368L56.8234 42.5011L51.767 40.3589L50.345 41.631L53.6575 45.3335L51.9404 46.8698ZM49.2168 40.3701L50.84 38.9178C51.4124 38.4058 51.7087 37.8911 51.7289 37.3738C51.7492 36.8565 51.5553 36.3698 51.1472 35.9137C50.7472 35.4666 50.293 35.2289 49.7846 35.2006C49.2852 35.1644 48.7404 35.4103 48.1502 35.9383L46.5404 37.3786L49.2168 40.3701Z" fill="#333333"/>
<path d="M63.7025 37.3525L56.6816 26.8899L63.5122 22.3062L64.5453 23.8457L59.6278 27.1456L61.5536 30.0153L66.0226 27.0164L67.0256 28.511L62.5566 31.51L64.5826 34.5292L69.5001 31.2293L70.5331 32.7688L63.7025 37.3525Z" fill="#333333"/>
<path d="M92.1737 19.4937C91.7513 19.6306 91.3299 19.6536 90.9094 19.5628C90.5004 19.4683 90.1319 19.285 89.8041 19.0128C89.4839 18.7255 89.2535 18.3649 89.113 17.9311C88.9724 17.4973 88.9475 17.0702 89.0383 16.6497C89.1406 16.2256 89.3296 15.8553 89.6055 15.5388C89.8928 15.2187 90.2476 14.9901 90.67 14.8533C91.1152 14.709 91.5423 14.6841 91.9514 14.7786C92.3719 14.8694 92.7422 15.0585 93.0623 15.3458C93.3825 15.6331 93.6129 15.9936 93.7534 16.4274C93.894 16.8612 93.9189 17.2884 93.8281 17.7088C93.7336 18.1179 93.5427 18.4825 93.2554 18.8026C92.9795 19.1191 92.6189 19.3495 92.1737 19.4937Z" fill="#333333"/>
</svg>
