<svg width="141" height="36" viewBox="0 0 141 36" fill="none" xmlns="http://www.w3.org/2000/svg">
<g clip-path="url(#clip0_119_594)">
<path d="M42.6326 24.9199H52.5336V21.9376H46.1516V10.7045H42.6326V24.9199Z" fill="#555555"/>
<path d="M58.3996 22.9316C56.988 22.9316 56.2524 21.699 56.2524 19.85C56.2524 18.001 56.988 16.7484 58.3996 16.7484C59.8112 16.7484 60.5667 18.001 60.5667 19.85C60.5667 21.699 59.8112 22.9316 58.3996 22.9316ZM58.4195 25.2379C61.7 25.2379 63.8472 22.9117 63.8472 19.85C63.8472 16.7882 61.7 14.462 58.4195 14.462C55.1589 14.462 52.9719 16.7882 52.9719 19.85C52.9719 22.9117 55.1589 25.2379 58.4195 25.2379Z" fill="#555555"/>
<path d="M69.5255 28.4388C71.0365 28.4388 72.3686 28.1008 73.2633 27.3056C74.0784 26.5699 74.6152 25.4566 74.6152 23.9257V14.7404H71.5137V15.8339H71.4739C70.8775 14.9789 69.9629 14.4421 68.611 14.4421C66.086 14.4421 64.3364 16.5496 64.3364 19.5318C64.3364 22.6533 66.4638 24.3631 68.7502 24.3631C69.9828 24.3631 70.7582 23.866 71.3547 23.1901H71.4342V24.204C71.4342 25.4367 70.8576 26.1524 69.4858 26.1524C68.4122 26.1524 67.8754 25.6952 67.6964 25.1583H64.5551C64.8732 27.2857 66.7222 28.4388 69.5255 28.4388ZM69.5057 21.9574C68.2929 21.9574 67.4976 20.9633 67.4976 19.4324C67.4976 17.8817 68.2929 16.8876 69.5057 16.8876C70.8576 16.8876 71.5733 18.0407 71.5733 19.4126C71.5733 20.844 70.9173 21.9574 69.5057 21.9574Z" fill="#555555"/>
<path d="M80.9926 22.9316C79.581 22.9316 78.8454 21.699 78.8454 19.85C78.8454 18.001 79.581 16.7484 80.9926 16.7484C82.4042 16.7484 83.1597 18.001 83.1597 19.85C83.1597 21.699 82.4042 22.9316 80.9926 22.9316ZM81.0125 25.2379C84.293 25.2379 86.4402 22.9117 86.4402 19.85C86.4402 16.7882 84.293 14.462 81.0125 14.462C77.7519 14.462 75.5649 16.7882 75.5649 19.85C75.5649 22.9117 77.7519 25.2379 81.0125 25.2379Z" fill="#555555"/>
<path d="M87.3862 24.9199H90.6269V14.7404H87.3862V24.9199ZM87.3862 13.3288H90.6269V10.7045H87.3862V13.3288Z" fill="#555555"/>
<path d="M92.0334 28.2798H95.2742V23.866H95.3139C95.9501 24.721 96.8846 25.2379 98.1968 25.2379C100.861 25.2379 102.63 23.1304 102.63 19.8301C102.63 16.7683 100.98 14.4421 98.2763 14.4421C96.8846 14.4421 95.8905 15.0585 95.1946 15.973H95.135V14.7404H92.0334V28.2798ZM97.3617 22.7328C95.97 22.7328 95.1747 21.5995 95.1747 19.9494C95.1747 18.2992 95.8905 17.0466 97.3021 17.0466C98.6938 17.0466 99.3499 18.1998 99.3499 19.9494C99.3499 21.6791 98.5944 22.7328 97.3617 22.7328Z" fill="#555555"/>
<path d="M107.907 25.2379C110.571 25.2379 112.539 24.0847 112.539 21.858C112.539 19.2535 110.432 18.7962 108.642 18.498C107.35 18.2594 106.197 18.16 106.197 17.4443C106.197 16.8081 106.813 16.5098 107.608 16.5098C108.503 16.5098 109.119 16.7882 109.239 17.7027H112.221C112.062 15.6947 110.511 14.4421 107.628 14.4421C105.223 14.4421 103.234 15.5555 103.234 17.7027C103.234 20.0885 105.123 20.5657 106.893 20.8639C108.245 21.1025 109.477 21.2019 109.477 22.1165C109.477 22.7726 108.861 23.1304 107.887 23.1304C106.813 23.1304 106.137 22.6334 106.018 21.6194H102.956C103.055 23.866 104.924 25.2379 107.907 25.2379Z" fill="#555555"/>
<path d="M116.941 25.218C118.353 25.218 119.247 24.6613 119.983 23.6672H120.043V24.9198H123.144V14.7404H119.903V20.4265C119.903 21.6393 119.227 22.4743 118.114 22.4743C117.08 22.4743 116.583 21.858 116.583 20.7446V14.7404H113.362V21.4206C113.362 23.6871 114.595 25.218 116.941 25.218Z" fill="#555555"/>
<path d="M124.553 24.9198H127.794V19.2137C127.794 18.001 128.39 17.146 129.404 17.146C130.379 17.146 130.836 17.7823 130.836 18.8757V24.9198H134.077V19.2137C134.077 18.001 134.653 17.146 135.687 17.146C136.661 17.146 137.118 17.7823 137.118 18.8757V24.9198H140.359V18.2992C140.359 16.0128 139.206 14.4421 136.9 14.4421C135.588 14.4421 134.494 14.9988 133.699 16.2315H133.659C133.142 15.138 132.128 14.4421 130.796 14.4421C129.325 14.4421 128.351 15.138 127.714 16.1917H127.655V14.7404H124.553V24.9198Z" fill="#555555"/>
<path fill-rule="evenodd" clip-rule="evenodd" d="M17.6349 1.40039C26.9642 1.40039 34.5271 8.96327 34.5271 18.2926C34.5271 27.622 26.9642 35.1848 17.6349 35.1848C8.30557 35.1848 0.742676 27.622 0.742676 18.2926C0.742676 8.96327 8.30557 1.40039 17.6349 1.40039ZM33.8787 18.2926C33.8787 9.32138 26.6061 2.04872 17.6349 2.04872C16.9112 2.04872 16.1987 2.09603 15.5 2.18775C15.9514 2.14828 16.4082 2.12813 16.8698 2.12813C25.4423 2.12813 32.3917 9.0775 32.3917 17.65C32.3917 26.2224 25.4423 33.1717 16.8698 33.1717C8.754 33.1717 2.09297 26.9431 1.40636 19.0052C1.77935 27.6458 8.9024 34.5365 17.6349 34.5365C26.6061 34.5365 33.8787 27.2638 33.8787 18.2926ZM31.7433 17.65C31.7433 9.43554 25.0842 2.77647 16.8698 2.77647C16.2029 2.77647 15.5461 2.82037 14.9024 2.90544C15.2987 2.87209 15.6998 2.85507 16.1048 2.85507C23.9204 2.85507 30.2562 9.19091 30.2562 17.0065C30.2562 24.8221 23.9204 31.1579 16.1048 31.1579C8.71492 31.1579 2.64802 25.4935 2.00902 18.2697C2.33391 26.1967 8.86305 32.5234 16.8698 32.5234C25.0842 32.5234 31.7433 25.8643 31.7433 17.65ZM16.1048 3.50341C23.5623 3.50341 29.6079 9.54895 29.6079 17.0065C29.6079 24.464 23.5623 30.5095 16.1048 30.5095C8.82006 30.5095 2.88258 24.7409 2.6114 17.5224C3.19688 24.0378 8.67203 29.144 15.3398 29.144C22.3981 29.144 28.12 23.4221 28.12 16.3638C28.12 9.30548 22.3981 3.58363 15.3398 3.58363C14.9747 3.58363 14.6131 3.59895 14.2557 3.62896C14.8603 3.54618 15.4775 3.50341 16.1048 3.50341ZM27.4716 16.3638C27.4716 9.6636 22.04 4.23196 15.3398 4.23196C14.7737 4.23196 14.2166 4.27073 13.6712 4.34577C13.969 4.32246 14.27 4.31059 14.5739 4.31059C20.8754 4.31059 25.9837 9.41889 25.9837 15.7204C25.9837 22.0218 20.8754 27.1301 14.5739 27.1301C8.64284 27.1301 3.76876 22.6047 3.21629 16.8183C3.45531 23.308 8.79173 28.4957 15.3398 28.4957C22.04 28.4957 27.4716 23.0641 27.4716 16.3638ZM14.5739 4.95891C20.5173 4.95891 25.3353 9.777 25.3353 15.7204C25.3353 21.6637 20.5173 26.4818 14.5739 26.4818C8.7476 26.4818 4.00273 21.8517 3.81805 16.0703C4.31685 21.1486 8.59952 25.1163 13.8089 25.1163C19.3535 25.1163 23.8483 20.6215 23.8483 15.0769C23.8483 9.53229 19.3535 5.03752 13.8089 5.03752C13.5546 5.03752 13.3025 5.04697 13.053 5.06554C13.5499 4.99526 14.0576 4.95891 14.5739 4.95891ZM23.2 15.0769C23.2 9.89033 18.9954 5.68585 13.8089 5.68585C13.3354 5.68585 12.8702 5.72088 12.4156 5.7885C12.6231 5.77363 12.8326 5.76607 13.0439 5.76607C17.8312 5.76607 21.7121 9.64695 21.7121 14.4342C21.7121 19.2215 17.8312 23.1024 13.0439 23.1024C8.55793 23.1024 4.86789 19.6947 4.42111 15.3267C4.55356 20.3978 8.70591 24.468 13.8089 24.468C18.9954 24.468 23.2 20.2634 23.2 15.0769ZM13.0439 6.4144C17.4731 6.4144 21.0637 10.005 21.0637 14.4342C21.0637 18.8635 17.4731 22.454 13.0439 22.454C8.67101 22.454 5.11557 18.9543 5.02578 14.6029C5.42974 18.2511 8.52295 21.0885 12.2789 21.0885C16.3093 21.0885 19.5766 17.8212 19.5766 13.7908C19.5766 9.76035 16.3093 6.49301 12.2789 6.49301C12.1247 6.49301 11.9717 6.49779 11.82 6.50721C12.219 6.4461 12.6277 6.4144 13.0439 6.4144ZM18.9283 13.7908C18.9283 10.1184 15.9513 7.14134 12.2789 7.14134C11.9101 7.14134 11.5483 7.17137 11.1958 7.2291C11.3009 7.22356 11.4066 7.22076 11.513 7.22076C14.7865 7.22076 17.4403 9.87451 17.4403 13.1481C17.4403 16.4217 14.7865 19.0755 11.513 19.0755C8.48607 19.0755 5.98907 16.8065 5.62998 13.8766C5.67595 17.5095 8.63516 20.4402 12.2789 20.4402C15.9513 20.4402 18.9283 17.4632 18.9283 13.7908ZM11.513 7.86909C14.4285 7.86909 16.792 10.2325 16.792 13.1481C16.792 16.0637 14.4285 18.4271 11.513 18.4271C8.59747 18.4271 6.23397 16.0637 6.23397 13.1481C6.23397 13.1411 6.23399 13.1341 6.23402 13.1271C6.53756 15.3489 8.44285 17.0608 10.748 17.0608C13.2643 17.0608 15.3041 15.021 15.3041 12.5047C15.3041 9.98833 13.2643 7.94852 10.748 7.94852C10.6911 7.94852 10.6344 7.94956 10.578 7.95163C10.8815 7.89739 11.1939 7.86909 11.513 7.86909ZM14.6557 12.5047C14.6557 10.3464 12.9062 8.59685 10.748 8.59685C8.58976 8.59685 6.84018 10.3464 6.84018 12.5047C6.84018 14.6628 8.58976 16.4124 10.748 16.4124C12.9062 16.4124 14.6557 14.6628 14.6557 12.5047Z" fill="#555555"/>
</g>
<defs>
<clipPath id="clip0_119_594">
<rect width="140" height="34.7929" fill="white" transform="translate(0.5 0.603516)"/>
</clipPath>
</defs>
</svg>
