<svg width="141" height="26" viewBox="0 0 141 26" fill="none" xmlns="http://www.w3.org/2000/svg">
<g clip-path="url(#clip0_119_639)">
<path d="M21.5478 19.5405H28.8161L10.8111 1.5354H3.54272L21.5478 19.5405Z" fill="#555555"/>
<path d="M14.5452 1.5354L31.9017 18.8919V1.5354H27.2047V7.01519L21.7249 1.5354L14.5452 1.5354Z" fill="#555555"/>
<path d="M0.5 2.13818V19.5404H5.19697V14.0606L10.6767 19.5404H17.9023L0.5 2.13818Z" fill="#555555"/>
<path d="M43.2362 16.8331H47.4446V19.3131H40.0234V6.12402H43.2362V16.8331Z" fill="#555555"/>
<path d="M53.1856 19.4635C52.1585 19.4635 51.2316 19.2443 50.4049 18.8058C49.5907 18.3675 48.9457 17.7412 48.4697 16.9271C48.0064 16.1129 47.7747 15.161 47.7747 14.0713C47.7747 12.9942 48.0126 12.0485 48.4886 11.2344C48.9646 10.4076 49.6158 9.77515 50.4425 9.33677C51.2692 8.89839 52.196 8.6792 53.2231 8.6792C54.2502 8.6792 55.177 8.89839 56.0037 9.33677C56.8304 9.77515 57.4817 10.4076 57.9577 11.2344C58.4337 12.0485 58.6716 12.9942 58.6716 14.0713C58.6716 15.1485 58.4274 16.1004 57.9388 16.9271C57.4629 17.7412 56.8053 18.3675 55.9661 18.8058C55.1395 19.2443 54.2126 19.4635 53.1856 19.4635ZM53.1856 16.6828C53.7993 16.6828 54.3191 16.4574 54.7449 16.0065C55.1833 15.5556 55.4025 14.9106 55.4025 14.0713C55.4025 13.2321 55.1896 12.5871 54.7637 12.1362C54.3504 11.6853 53.8368 11.4598 53.2231 11.4598C52.5968 11.4598 52.077 11.6853 51.6637 12.1362C51.2504 12.5746 51.0437 13.2196 51.0437 14.0713C51.0437 14.9106 51.2441 15.5556 51.6449 16.0065C52.0583 16.4574 52.5718 16.6828 53.1856 16.6828Z" fill="#555555"/>
<path d="M63.7954 8.6792C64.5344 8.6792 65.1795 8.8295 65.7306 9.13011C66.2942 9.43072 66.7263 9.82528 67.0269 10.3137V8.8295H70.2397V19.2944C70.2397 20.2588 70.0455 21.1293 69.6572 21.9058C69.2815 22.6949 68.699 23.3212 67.9099 23.7846C67.1334 24.2481 66.1627 24.4798 64.9979 24.4798C63.4447 24.4798 62.1859 24.1103 61.2215 23.3713C60.257 22.6448 59.7059 21.6554 59.5681 20.4028H62.7433C62.8435 20.8036 63.0815 21.1167 63.4572 21.3422C63.833 21.5802 64.2964 21.6992 64.8476 21.6992C65.5114 21.6992 66.0374 21.5051 66.4258 21.1167C66.8265 20.741 67.0269 20.1336 67.0269 19.2944V17.8101C66.7138 18.2986 66.2817 18.6994 65.7306 19.0126C65.1795 19.3131 64.5344 19.4635 63.7954 19.4635C62.9312 19.4635 62.1483 19.2443 61.4469 18.8058C60.7455 18.3549 60.1881 17.7225 59.7749 16.9083C59.374 16.0816 59.1736 15.1297 59.1736 14.0526C59.1736 12.9754 59.374 12.0297 59.7749 11.2156C60.1881 10.4015 60.7455 9.77515 61.4469 9.33677C62.1483 8.89839 62.9312 8.6792 63.7954 8.6792ZM67.0269 14.0713C67.0269 13.2697 66.8015 12.6372 66.3506 12.1737C65.9122 11.7103 65.3736 11.4786 64.7349 11.4786C64.096 11.4786 63.5512 11.7103 63.1003 12.1737C62.6619 12.6246 62.4427 13.2509 62.4427 14.0526C62.4427 14.8542 62.6619 15.4929 63.1003 15.9689C63.5512 16.4324 64.096 16.664 64.7349 16.664C65.3736 16.664 65.9122 16.4324 66.3506 15.9689C66.8015 15.5055 67.0269 14.8729 67.0269 14.0713Z" fill="#555555"/>
<path d="M76.7725 19.4635C75.7454 19.4635 74.8186 19.2443 73.9918 18.8058C73.1777 18.3675 72.5327 17.7412 72.0568 16.9271C71.5933 16.1129 71.3616 15.161 71.3616 14.0713C71.3616 12.9942 71.5996 12.0485 72.0755 11.2344C72.5515 10.4076 73.2028 9.77515 74.0295 9.33677C74.8561 8.89839 75.783 8.6792 76.81 8.6792C77.8371 8.6792 78.764 8.89839 79.5907 9.33677C80.4173 9.77515 81.0687 10.4076 81.5446 11.2344C82.0206 12.0485 82.2586 12.9942 82.2586 14.0713C82.2586 15.1485 82.0143 16.1004 81.5258 16.9271C81.0498 17.7412 80.3923 18.3675 79.5531 18.8058C78.7264 19.2443 77.7996 19.4635 76.7725 19.4635ZM76.7725 16.6828C77.3862 16.6828 77.906 16.4574 78.3318 16.0065C78.7703 15.5556 78.9895 14.9106 78.9895 14.0713C78.9895 13.2321 78.7766 12.5871 78.3507 12.1362C77.9373 11.6853 77.4238 11.4598 76.81 11.4598C76.1838 11.4598 75.664 11.6853 75.2507 12.1362C74.8373 12.5746 74.6307 13.2196 74.6307 14.0713C74.6307 14.9106 74.8311 15.5556 75.2318 16.0065C75.6452 16.4574 76.1588 16.6828 76.7725 16.6828Z" fill="#555555"/>
<path d="M85.015 7.7398C84.4514 7.7398 83.9879 7.57697 83.6246 7.25131C83.274 6.91313 83.0986 6.4998 83.0986 6.01131C83.0986 5.5103 83.274 5.09697 83.6246 4.77131C83.9879 4.43313 84.4514 4.26404 85.015 4.26404C85.5661 4.26404 86.017 4.43313 86.3677 4.77131C86.7309 5.09697 86.9125 5.5103 86.9125 6.01131C86.9125 6.4998 86.7309 6.91313 86.3677 7.25131C86.017 7.57697 85.5661 7.7398 85.015 7.7398ZM86.6119 8.82949V19.3131H83.3992V8.82949H86.6119Z" fill="#555555"/>
<path d="M91.589 10.3137C91.9026 9.82528 92.3345 9.43072 92.8854 9.13011C93.4363 8.8295 94.0817 8.6792 94.8208 8.6792C95.6854 8.6792 96.4681 8.89839 97.169 9.33677C97.8708 9.77515 98.4217 10.4015 98.8226 11.2156C99.2363 12.0297 99.4426 12.9754 99.4426 14.0526C99.4426 15.1297 99.2363 16.0816 98.8226 16.9083C98.4217 17.7225 97.8708 18.3549 97.169 18.8058C96.4681 19.2443 95.6854 19.4635 94.8208 19.4635C94.0945 19.4635 93.449 19.3131 92.8854 19.0126C92.3345 18.7119 91.9026 18.3236 91.589 17.8476V24.3107H88.3765V8.8295H91.589V10.3137ZM96.1736 14.0526C96.1736 13.2509 95.9481 12.6246 95.4972 12.1737C95.059 11.7103 94.5136 11.4786 93.8626 11.4786C93.2236 11.4786 92.679 11.7103 92.2281 12.1737C91.7899 12.6372 91.5708 13.2697 91.5708 14.0713C91.5708 14.8729 91.7899 15.5055 92.2281 15.9689C92.679 16.4324 93.2236 16.664 93.8626 16.664C94.5017 16.664 95.0463 16.4324 95.4972 15.9689C95.9481 15.4929 96.1736 14.8542 96.1736 14.0526Z" fill="#555555"/>
<path d="M104.829 19.4635C103.915 19.4635 103.101 19.3069 102.387 18.9937C101.673 18.6806 101.109 18.2547 100.696 17.7162C100.283 17.1651 100.051 16.5513 100.001 15.8749H103.176C103.214 16.2382 103.383 16.5326 103.684 16.758C103.984 16.9835 104.354 17.0962 104.792 17.0962C105.193 17.0962 105.499 17.021 105.713 16.8707C105.938 16.7079 106.051 16.5012 106.051 16.2507C106.051 15.9501 105.894 15.7309 105.581 15.5931C105.267 15.4428 104.76 15.28 104.059 15.1046C103.307 14.9293 102.681 14.7476 102.18 14.5598C101.679 14.3594 101.247 14.0526 100.884 13.6392C100.521 13.2134 100.339 12.6435 100.339 11.9295C100.339 11.3283 100.502 10.7835 100.827 10.2949C101.166 9.79394 101.655 9.3994 102.293 9.11132C102.945 8.82324 103.715 8.6792 104.604 8.6792C105.919 8.6792 106.953 9.00485 107.704 9.65617C108.468 10.3075 108.906 11.1717 109.019 12.2489H106.051C106 11.8856 105.837 11.5976 105.562 11.3846C105.299 11.1717 104.948 11.0653 104.51 11.0653C104.135 11.0653 103.846 11.1404 103.646 11.2907C103.446 11.4285 103.346 11.6226 103.346 11.8731C103.346 12.1737 103.502 12.3992 103.815 12.5495C104.14 12.6998 104.642 12.8501 105.318 13.0004C106.095 13.2008 106.727 13.4012 107.216 13.6016C107.704 13.7895 108.13 14.1026 108.493 14.541C108.869 14.9669 109.063 15.543 109.076 16.2695C109.076 16.8833 108.9 17.4344 108.549 17.9228C108.211 18.3988 107.716 18.7746 107.066 19.0501C106.426 19.3256 105.681 19.4635 104.829 19.4635Z" fill="#555555"/>
<path d="M120.829 8.82947V19.3131H117.617V17.8853C117.291 18.3487 116.847 18.7244 116.283 19.0125C115.732 19.2881 115.118 19.4258 114.442 19.4258C113.64 19.4258 112.932 19.2505 112.318 18.8998C111.705 18.5365 111.229 18.0167 110.891 17.3403C110.553 16.664 110.384 15.8687 110.384 14.9543V8.82947H113.577V14.5222C113.577 15.2236 113.759 15.7684 114.122 16.1567C114.486 16.5451 114.974 16.7392 115.587 16.7392C116.214 16.7392 116.708 16.5451 117.072 16.1567C117.436 15.7684 117.617 15.2236 117.617 14.5222V8.82947H120.829Z" fill="#555555"/>
<path d="M135.95 8.7168C137.253 8.7168 138.286 9.11134 139.05 9.9004C139.827 10.6895 140.216 11.7855 140.216 13.1883V19.3131H137.021V13.6204C137.021 12.944 136.84 12.4243 136.476 12.061C136.126 11.6853 135.637 11.4974 135.011 11.4974C134.385 11.4974 133.89 11.6853 133.526 12.061C133.176 12.4243 133.001 12.944 133.001 13.6204V19.3131H129.806V13.6204C129.806 12.944 129.626 12.4243 129.262 12.061C128.911 11.6853 128.423 11.4974 127.796 11.4974C127.17 11.4974 126.676 11.6853 126.312 12.061C125.962 12.4243 125.786 12.944 125.786 13.6204V19.3131H122.574V8.82952H125.786V10.1447C126.112 9.7063 126.537 9.36185 127.064 9.11134C127.59 8.84832 128.185 8.7168 128.848 8.7168C129.637 8.7168 130.339 8.88589 130.953 9.22407C131.579 9.56225 132.067 10.0445 132.418 10.6708C132.782 10.0946 133.276 9.62488 133.903 9.26165C134.529 8.89842 135.212 8.7168 135.95 8.7168Z" fill="#555555"/>
</g>
<defs>
<clipPath id="clip0_119_639">
<rect width="140" height="24.5455" fill="white" transform="translate(0.5 0.727295)"/>
</clipPath>
</defs>
</svg>
