<svg width="141" height="34" viewBox="0 0 141 34" fill="none" xmlns="http://www.w3.org/2000/svg">
<g clip-path="url(#clip0_119_583)">
<path d="M43.2083 23.2901H53.0511V20.3254H46.7066V9.15833H43.2083V23.2901Z" fill="#555555"/>
<path d="M58.8826 21.3137C57.4793 21.3137 56.748 20.0883 56.748 18.2502C56.748 16.412 57.4793 15.1669 58.8826 15.1669C60.2859 15.1669 61.0369 16.412 61.0369 18.2502C61.0369 20.0883 60.2859 21.3137 58.8826 21.3137ZM58.9023 23.6064C62.1635 23.6064 64.2981 21.2939 64.2981 18.2502C64.2981 15.2064 62.1635 12.8939 58.9023 12.8939C55.6609 12.8939 53.4868 15.2064 53.4868 18.2502C53.4868 21.2939 55.6609 23.6064 58.9023 23.6064Z" fill="#555555"/>
<path d="M69.943 26.7885C71.4451 26.7885 72.7694 26.4525 73.6588 25.6619C74.4691 24.9306 75.0028 23.8238 75.0028 22.3019V13.1706H71.9195V14.2577H71.88C71.287 13.4078 70.3778 12.8741 69.0338 12.8741C66.5237 12.8741 64.7844 14.9692 64.7844 17.9339C64.7844 21.037 66.8992 22.7367 69.1722 22.7367C70.3976 22.7367 71.1684 22.2426 71.7614 21.5706H71.8404V22.5786C71.8404 23.804 71.2673 24.5156 69.9035 24.5156C68.8362 24.5156 68.3025 24.061 68.1247 23.5273H65.0018C65.3181 25.6421 67.1562 26.7885 69.943 26.7885ZM69.9232 20.3452C68.7176 20.3452 67.927 19.357 67.927 17.8351C67.927 16.2934 68.7176 15.3052 69.9232 15.3052C71.2672 15.3052 71.9788 16.4516 71.9788 17.8153C71.9788 19.2384 71.3265 20.3452 69.9232 20.3452Z" fill="#555555"/>
<path d="M81.3425 21.3137C79.9392 21.3137 79.208 20.0883 79.208 18.2502C79.208 16.412 79.9392 15.1669 81.3425 15.1669C82.7458 15.1669 83.4969 16.412 83.4969 18.2502C83.4969 20.0883 82.7458 21.3137 81.3425 21.3137ZM81.3623 23.6064C84.6235 23.6064 86.7581 21.2939 86.7581 18.2502C86.7581 15.2064 84.6235 12.8939 81.3623 12.8939C78.1209 12.8939 75.9468 15.2064 75.9468 18.2502C75.9468 21.2939 78.1209 23.6064 81.3623 23.6064Z" fill="#555555"/>
<path d="M87.6985 23.2901H90.9201V13.1706H87.6985V23.2901ZM87.6985 11.7673H90.9201V9.15833H87.6985V11.7673Z" fill="#555555"/>
<path d="M92.3186 26.6304H95.5402V22.2426H95.5798C96.2122 23.0925 97.1412 23.6064 98.4457 23.6064C101.094 23.6064 102.853 21.5113 102.853 18.2304C102.853 15.1866 101.213 12.8741 98.5247 12.8741C97.1412 12.8741 96.153 13.4869 95.4612 14.396H95.4019V13.1706H92.3186V26.6304ZM97.6155 21.116C96.232 21.116 95.4414 19.9894 95.4414 18.349C95.4414 16.7085 96.153 15.4633 97.5562 15.4633C98.9398 15.4633 99.592 16.6097 99.592 18.349C99.592 20.0685 98.841 21.116 97.6155 21.116Z" fill="#555555"/>
<path d="M108.098 23.6064C110.747 23.6064 112.703 22.46 112.703 20.2464C112.703 17.6572 110.608 17.2026 108.829 16.9061C107.545 16.669 106.398 16.5701 106.398 15.8586C106.398 15.2261 107.011 14.9297 107.802 14.9297C108.691 14.9297 109.304 15.2064 109.422 16.1156H112.387C112.229 14.1193 110.687 12.8741 107.821 12.8741C105.43 12.8741 103.453 13.981 103.453 16.1156C103.453 18.4873 105.331 18.9617 107.09 19.2581C108.434 19.4953 109.66 19.5941 109.66 20.5033C109.66 21.1556 109.047 21.5113 108.078 21.5113C107.011 21.5113 106.339 21.0172 106.221 20.0092H103.177C103.276 22.2426 105.133 23.6064 108.098 23.6064Z" fill="#555555"/>
<path d="M117.08 23.5865C118.483 23.5865 119.372 23.0331 120.104 22.0449H120.163V23.2901H123.246V13.1705H120.025V18.8232C120.025 20.0289 119.353 20.859 118.246 20.859C117.218 20.859 116.724 20.2463 116.724 19.1395V13.1705H113.522V19.8115C113.522 22.0646 114.747 23.5865 117.08 23.5865Z" fill="#555555"/>
<path d="M124.647 23.2901H127.869V17.6177C127.869 16.412 128.462 15.5621 129.47 15.5621C130.438 15.5621 130.893 16.1946 130.893 17.2817V23.2901H134.114V17.6177C134.114 16.412 134.687 15.5621 135.715 15.5621C136.684 15.5621 137.138 16.1946 137.138 17.2817V23.2901H140.36V16.7085C140.36 14.4356 139.214 12.8741 136.921 12.8741C135.616 12.8741 134.529 13.4276 133.739 14.653H133.699C133.185 13.5659 132.177 12.8741 130.853 12.8741C129.39 12.8741 128.422 13.5659 127.79 14.6134H127.73V13.1706H124.647V23.2901Z" fill="#555555"/>
<path fill-rule="evenodd" clip-rule="evenodd" d="M17.5341 33.1725C26.6305 33.1725 34.0047 25.7983 34.0047 16.7019C34.0047 7.60546 26.6305 0.231323 17.5341 0.231323C8.4376 0.231323 1.06348 7.60546 1.06348 16.7019C1.06348 25.7983 8.4376 33.1725 17.5341 33.1725ZM22.6723 7.90401C22.9224 7.0156 22.0603 6.49025 21.2729 7.05122L10.2813 14.8816C9.42742 15.4899 9.56174 16.7019 10.4831 16.7019H13.3775V16.6795H19.0185L14.4221 18.3013L12.3958 25.4998C12.1457 26.3882 13.0078 26.9136 13.7953 26.3526L24.7868 18.5223C25.6407 17.914 25.5063 16.7019 24.5851 16.7019H20.1958L22.6723 7.90401Z" fill="#555555"/>
</g>
<defs>
<clipPath id="clip0_119_583">
<rect width="140" height="33.7647" fill="white" transform="translate(0.5 0.117676)"/>
</clipPath>
</defs>
</svg>
