<svg width="141" height="36" viewBox="0 0 141 36" fill="none" xmlns="http://www.w3.org/2000/svg">
<g clip-path="url(#clip0_119_567)">
<path d="M41.5647 25.0437H51.5247V22.0437H45.1047V10.7437H41.5647V25.0437Z" fill="#555555"/>
<path d="M57.4256 23.0437C56.0056 23.0437 55.2656 21.8037 55.2656 19.9437C55.2656 18.0837 56.0056 16.8237 57.4256 16.8237C58.8456 16.8237 59.6056 18.0837 59.6056 19.9437C59.6056 21.8037 58.8456 23.0437 57.4256 23.0437ZM57.4456 25.3637C60.7456 25.3637 62.9056 23.0237 62.9056 19.9437C62.9056 16.8637 60.7456 14.5237 57.4456 14.5237C54.1656 14.5237 51.9656 16.8637 51.9656 19.9437C51.9656 23.0237 54.1656 25.3637 57.4456 25.3637Z" fill="#555555"/>
<path d="M68.6175 28.5837C70.1375 28.5837 71.4775 28.2437 72.3775 27.4437C73.1975 26.7037 73.7375 25.5837 73.7375 24.0437V14.8037H70.6175V15.9037H70.5775C69.9775 15.0437 69.0575 14.5037 67.6975 14.5037C65.1575 14.5037 63.3975 16.6237 63.3975 19.6237C63.3975 22.7637 65.5375 24.4837 67.8375 24.4837C69.0775 24.4837 69.8575 23.9837 70.4575 23.3037H70.5375V24.3237C70.5375 25.5637 69.9575 26.2837 68.5775 26.2837C67.4975 26.2837 66.9575 25.8237 66.7775 25.2837H63.6175C63.9375 27.4237 65.7975 28.5837 68.6175 28.5837ZM68.5975 22.0637C67.3775 22.0637 66.5775 21.0637 66.5775 19.5237C66.5775 17.9637 67.3775 16.9637 68.5975 16.9637C69.9575 16.9637 70.6775 18.1237 70.6775 19.5037C70.6775 20.9437 70.0175 22.0637 68.5975 22.0637Z" fill="#555555"/>
<path d="M80.1529 23.0437C78.7329 23.0437 77.9929 21.8037 77.9929 19.9437C77.9929 18.0837 78.7329 16.8237 80.1529 16.8237C81.5729 16.8237 82.3329 18.0837 82.3329 19.9437C82.3329 21.8037 81.5729 23.0437 80.1529 23.0437ZM80.1729 25.3637C83.4729 25.3637 85.6325 23.0237 85.6325 19.9437C85.6325 16.8637 83.4729 14.5237 80.1729 14.5237C76.8929 14.5237 74.6929 16.8637 74.6929 19.9437C74.6929 23.0237 76.8929 25.3637 80.1729 25.3637Z" fill="#555555"/>
<path d="M86.5847 25.0437H89.8447V14.8037H86.5847V25.0437ZM86.5847 13.3837H89.8447V10.7437H86.5847V13.3837Z" fill="#555555"/>
<path d="M91.2593 28.4237H94.5193V23.9837H94.5593C95.1993 24.8437 96.1393 25.3637 97.4593 25.3637C100.139 25.3637 101.919 23.2437 101.919 19.9237C101.919 16.8437 100.259 14.5037 97.5393 14.5037C96.1393 14.5037 95.1393 15.1237 94.4393 16.0437H94.3793V14.8037H91.2593V28.4237ZM96.6193 22.8437C95.2193 22.8437 94.4193 21.7037 94.4193 20.0437C94.4193 18.3837 95.1393 17.1237 96.5593 17.1237C97.9593 17.1237 98.6193 18.2837 98.6193 20.0437C98.6193 21.7837 97.8593 22.8437 96.6193 22.8437Z" fill="#555555"/>
<path d="M107.227 25.3637C109.907 25.3637 111.887 24.2037 111.887 21.9637C111.887 19.3437 109.767 18.8837 107.967 18.5837C106.667 18.3437 105.507 18.2437 105.507 17.5237C105.507 16.8837 106.127 16.5837 106.927 16.5837C107.827 16.5837 108.447 16.8637 108.567 17.7837H111.567C111.407 15.7637 109.847 14.5037 106.947 14.5037C104.527 14.5037 102.527 15.6237 102.527 17.7837C102.527 20.1837 104.427 20.6637 106.207 20.9637C107.567 21.2037 108.807 21.3037 108.807 22.2237C108.807 22.8837 108.187 23.2437 107.207 23.2437C106.127 23.2437 105.447 22.7437 105.327 21.7237H102.247C102.347 23.9837 104.227 25.3637 107.227 25.3637Z" fill="#555555"/>
<path d="M116.315 25.3437C117.735 25.3437 118.635 24.7837 119.375 23.7837H119.435V25.0437H122.555V14.8037H119.295V20.5237C119.295 21.7437 118.615 22.5837 117.495 22.5837C116.455 22.5837 115.955 21.9637 115.955 20.8437V14.8037H112.715V21.5237C112.715 23.8037 113.955 25.3437 116.315 25.3437Z" fill="#555555"/>
<path d="M123.973 25.0437H127.233V19.3037C127.233 18.0837 127.833 17.2237 128.853 17.2237C129.833 17.2237 130.293 17.8637 130.293 18.9637V25.0437H133.553V19.3037C133.553 18.0837 134.133 17.2237 135.173 17.2237C136.153 17.2237 136.613 17.8637 136.613 18.9637V25.0437H139.873V18.3837C139.873 16.0837 138.713 14.5037 136.393 14.5037C135.073 14.5037 133.973 15.0637 133.173 16.3037H133.133C132.613 15.2037 131.593 14.5037 130.253 14.5037C128.773 14.5037 127.793 15.2037 127.153 16.2637H127.093V14.8037H123.973V25.0437Z" fill="#555555"/>
<path d="M21.6748 2.56413L18.3973 1.68591L15.6353 11.9939L13.1418 2.68778L9.86417 3.566L12.5583 13.6206L5.8478 6.91006L3.44848 9.30939L10.8091 16.6701L1.64262 14.2139L0.764404 17.4914L10.7799 20.1751C10.6653 19.6805 10.6046 19.1651 10.6046 18.6356C10.6046 14.8876 13.6429 11.8493 17.3909 11.8493C21.1389 11.8493 24.1773 14.8876 24.1773 18.6356C24.1773 19.1617 24.1173 19.6739 24.0041 20.1656L33.1063 22.6045L33.9845 19.327L23.9292 16.6326L33.0963 14.1763L32.218 10.8988L22.1631 13.593L28.8736 6.88251L26.4743 4.48319L19.2158 11.7417L21.6748 2.56413Z" fill="#555555"/>
<path d="M23.9951 20.2036C23.7141 21.3916 23.1209 22.4589 22.3069 23.3139L28.9011 29.9082L31.3004 27.5089L23.9951 20.2036Z" fill="#555555"/>
<path d="M22.2404 23.3831C21.4166 24.2245 20.3755 24.8524 19.208 25.176L21.6075 34.131L24.885 33.2527L22.2404 23.3831Z" fill="#555555"/>
<path d="M19.0854 25.2087C18.5438 25.3479 17.976 25.4219 17.3909 25.4219C16.7641 25.4219 16.1571 25.3369 15.5809 25.1779L13.1792 34.141L16.4567 35.0192L19.0854 25.2087Z" fill="#555555"/>
<path d="M15.4651 25.1447C14.3155 24.8051 13.2929 24.1692 12.4859 23.3253L5.87549 29.9357L8.27481 32.3351L15.4651 25.1447Z" fill="#555555"/>
<path d="M12.4307 23.2669C11.6375 22.4177 11.0598 21.3647 10.7848 20.1951L1.65283 22.642L2.53104 25.9195L12.4307 23.2669Z" fill="#555555"/>
</g>
<defs>
<clipPath id="clip0_119_567">
<rect width="140" height="34.1667" fill="white" transform="translate(0.5 0.916748)"/>
</clipPath>
</defs>
</svg>
