<svg width="141" height="26" viewBox="0 0 141 26" fill="none" xmlns="http://www.w3.org/2000/svg">
<g clip-path="url(#clip0_119_527)">
<path d="M13.2274 25.7272C20.2567 25.7272 25.9547 20.0292 25.9547 13V4.09089C25.9547 3.07824 25.5524 2.10707 24.8363 1.39102C24.1203 0.674977 23.1491 0.272705 22.1365 0.272705L13.8637 0.272705V5.85616C13.8637 7.13016 13.9414 8.44998 14.6096 9.53434C15.0879 10.3115 15.7278 10.9766 16.4859 11.4847C17.2439 11.9927 18.1024 12.3318 19.003 12.4788L19.2467 12.5183C19.3472 12.5526 19.4345 12.6175 19.4962 12.7039C19.558 12.7903 19.5912 12.8938 19.5912 13C19.5912 13.1062 19.558 13.2097 19.4962 13.2961C19.4345 13.3825 19.3472 13.4474 19.2467 13.4817L19.003 13.5212C17.6871 13.7361 16.472 14.359 15.5292 15.3018C14.5864 16.2446 13.9635 17.4597 13.7486 18.7756L13.7091 19.0193C13.6748 19.1198 13.6099 19.207 13.5235 19.2688C13.4371 19.3306 13.3336 19.3638 13.2274 19.3638C13.1212 19.3638 13.0177 19.3306 12.9313 19.2688C12.8449 19.207 12.78 19.1198 12.7457 19.0193L12.7062 18.7756C12.5591 17.875 12.2201 17.0166 11.712 16.2585C11.204 15.5005 10.5388 14.8605 9.76174 14.3822C8.67738 13.714 7.35756 13.6363 6.08356 13.6363H0.515381C0.848199 20.3697 6.41193 25.7272 13.2274 25.7272Z" fill="#555555"/>
<path d="M0.5 12.3636H6.08345C7.35745 12.3636 8.67727 12.286 9.76164 11.6178C10.6093 11.0955 11.3228 10.382 11.8451 9.53434C12.5133 8.44998 12.5909 7.13016 12.5909 5.85616V0.272705H4.31818C3.30554 0.272705 2.33437 0.674977 1.61832 1.39102C0.902272 2.10707 0.5 3.07824 0.5 4.09089L0.5 12.3636ZM30.0623 1.54543C30.0623 1.88298 29.9282 2.2067 29.6895 2.44539C29.4508 2.68407 29.1271 2.81816 28.7895 2.81816C28.452 2.81816 28.1283 2.68407 27.8896 2.44539C27.6509 2.2067 27.5168 1.88298 27.5168 1.54543C27.5168 1.20788 27.6509 0.884161 27.8896 0.645478C28.1283 0.406796 28.452 0.272705 28.7895 0.272705C29.1271 0.272705 29.4508 0.406796 29.6895 0.645478C29.9282 0.884161 30.0623 1.20788 30.0623 1.54543ZM135.225 7.97525C138.783 7.97525 140.5 10.4603 140.5 13.3385V18.7444H136.777V13.98C136.777 12.6754 136.301 11.5987 134.936 11.5987C133.571 11.5987 133.116 12.6754 133.116 13.98V18.7438H129.392V13.98C129.392 12.6754 128.937 11.5987 127.572 11.5987C126.207 11.5987 125.731 12.6754 125.731 13.98V18.7438H122.008V13.3379C122.008 10.4596 123.724 7.97461 127.282 7.97461C129.227 7.97461 130.633 8.7408 131.275 10.004C131.957 8.7408 133.447 7.97398 135.225 7.97398V7.97525ZM115.317 15.4309C116.517 15.4309 117.034 14.3332 117.034 13.028V8.38889H120.757V13.4836C120.757 16.528 118.978 19.055 115.317 19.055C111.656 19.055 109.877 16.5286 109.877 13.4836V8.38889H113.6V13.028C113.6 14.3325 114.117 15.4309 115.317 15.4309ZM104.402 19.0753C102.065 19.0753 100.555 18.2678 99.6652 16.6941L102.354 15.1821C102.727 15.8445 103.285 16.1761 104.216 16.1761C104.981 16.1761 105.333 15.9069 105.333 15.5753C105.333 14.3122 99.872 15.5963 99.872 11.579C99.872 9.63171 101.527 8.05798 104.34 8.05798C106.801 8.05798 108.146 9.2588 108.746 10.4189L106.057 11.9513C105.83 11.3302 105.126 10.9573 104.423 10.9573C103.885 10.9573 103.595 11.1851 103.595 11.4956C103.595 12.7798 109.056 11.5993 109.056 15.4926C109.056 17.6671 106.925 19.0753 104.402 19.0753ZM91.3937 23.5076H87.6704V13.546C87.6704 10.3769 90.0491 8.07834 93.3588 8.07834C96.5858 8.07834 99.0473 10.543 99.0473 13.546C99.0473 16.8595 96.8544 19.055 93.5656 19.055C92.8001 19.055 92.0352 18.8272 91.3937 18.4746V23.5076ZM93.3588 15.555C94.538 15.555 95.3239 14.6437 95.3239 13.5663C95.3239 12.4693 94.538 11.5783 93.3588 11.5783C92.1796 11.5783 91.3937 12.4693 91.3937 13.567C91.3937 14.6437 92.1796 15.555 93.3588 15.555ZM83.9406 7.2918C82.7201 7.2918 81.707 6.2768 81.707 5.05498C81.707 3.83316 82.7201 2.81816 83.9406 2.81816C85.1612 2.81816 86.1749 3.83316 86.1749 5.05498C86.1749 6.2768 85.1612 7.2918 83.9406 7.2918ZM82.0793 8.38889H85.8026V18.7444H82.0793V8.38889ZM74.9355 19.055C71.7085 19.055 69.247 16.57 69.247 13.546C69.247 10.543 71.7085 8.05798 74.9355 8.05798C78.1625 8.05798 80.6239 10.543 80.6239 13.546C80.6239 16.57 78.1625 19.055 74.9355 19.055ZM74.9355 15.555C76.1146 15.555 76.9005 14.6437 76.9005 13.5663C76.9005 12.4693 76.1146 11.558 74.9355 11.558C73.7563 11.558 72.9704 12.4693 72.9704 13.5663C72.9704 14.6437 73.7563 15.555 74.9355 15.555ZM62.2165 23.8182C59.6519 23.8182 57.7899 22.6791 56.8385 20.6491L59.9205 18.9926C60.2514 19.6971 60.8718 20.4219 62.1541 20.4219C63.4994 20.4219 64.3884 19.5723 64.4921 18.0813C63.9957 18.5166 63.2092 18.8475 62.0306 18.8475C59.1549 18.8475 56.8379 16.6317 56.8379 13.525C56.8379 10.5226 59.3 8.07834 62.527 8.07834C65.8367 8.07834 68.2155 10.3775 68.2155 13.546V17.6467C68.2155 21.3745 65.6293 23.8182 62.2165 23.8182ZM62.4646 15.3482C63.5815 15.3482 64.4297 14.5813 64.4297 13.4423C64.4297 12.3242 63.5821 11.5783 62.4646 11.5783C61.3682 11.5783 60.4995 12.3242 60.4995 13.4429C60.4995 14.582 61.3682 15.3475 62.4646 15.3475V15.3482ZM50.5226 19.055C47.2956 19.055 44.8335 16.57 44.8335 13.546C44.8335 10.543 47.2956 8.05798 50.5226 8.05798C53.749 8.05798 56.2111 10.543 56.2111 13.546C56.2111 16.57 53.7496 19.055 50.5226 19.055ZM50.5226 15.555C51.7018 15.555 52.4877 14.6437 52.4877 13.5663C52.4877 12.4693 51.7018 11.558 50.5226 11.558C49.3435 11.558 48.5575 12.4693 48.5575 13.5663C48.5575 14.6437 49.3435 15.555 50.5226 15.555ZM38.0537 4.76543V15.2234H44.2182V18.7444H37.5364C35.1786 18.7444 34.2273 17.5016 34.2273 15.534V4.76543H38.0537Z" fill="#555555"/>
</g>
<defs>
<clipPath id="clip0_119_527">
<rect width="140" height="25.4545" fill="white" transform="translate(0.5 0.272705)"/>
</clipPath>
</defs>
</svg>
