<svg width="78" height="80" viewBox="0 0 78 80" fill="none" xmlns="http://www.w3.org/2000/svg">
<path fill-rule="evenodd" clip-rule="evenodd" d="M44.2694 40.5779C43.916 40.8813 43.7631 41.3573 43.8719 41.8113L45.4071 48.3694L39.6449 44.8793C39.4469 44.7591 39.2277 44.6977 38.9963 44.6977C38.7713 44.6977 38.5472 44.7583 38.3476 44.8793L32.5854 48.3694L34.1272 41.8113C34.2376 41.3573 34.0756 40.8813 33.7297 40.5779L28.6291 36.175L35.3418 35.6114C35.8047 35.5722 36.2096 35.2794 36.3895 34.8491L38.9971 28.6395L41.6103 34.8491C41.7911 35.2786 42.1951 35.5722 42.6581 35.6114L49.3708 36.175L44.2694 40.5779ZM53.1725 34.9391C52.9811 34.3412 52.447 33.92 51.818 33.866L43.6208 33.1781L40.435 25.596C40.1904 25.0169 39.6252 24.6423 38.9954 24.6423C38.3656 24.6423 37.8004 25.0169 37.5559 25.596L34.3701 33.1781L26.1745 33.8668C25.5513 33.92 25.0196 34.3412 24.8266 34.9399C24.627 35.5378 24.8135 36.1914 25.2895 36.6028L31.5131 41.9773L29.6376 49.984C29.5272 50.451 29.6376 50.9336 29.9329 51.309C30.2281 51.6852 30.6772 51.9028 31.1532 51.9028C31.4346 51.9028 31.7168 51.8243 31.9613 51.6762L38.9954 47.414L46.0353 51.6762C46.2798 51.8251 46.5563 51.9028 46.8368 51.9028C47.3194 51.9028 47.7701 51.6852 48.0654 51.309C48.359 50.9352 48.4694 50.451 48.359 49.984L46.477 41.9773L52.7087 36.6044C53.1855 36.193 53.3655 35.5395 53.1725 34.9391ZM74.7672 43.1977V33.3474H69.8212C69.2241 33.3474 68.7113 32.9246 68.5878 32.3398C67.8181 28.4677 66.3148 24.8362 64.1179 21.5457C63.7842 21.0492 63.848 20.3867 64.2716 19.9638L67.7732 16.4639L60.8094 9.49851L57.3095 12.9984C56.8842 13.4196 56.2233 13.4859 55.7276 13.1546C52.4339 10.956 48.8039 9.45026 44.9303 8.68059C44.3471 8.56281 43.9226 8.04916 43.9226 7.45126V2.50447H34.0756V7.45208C34.0756 8.04834 33.652 8.56363 33.068 8.67896C29.1943 9.45189 25.5578 10.9569 22.2706 13.1538C21.7757 13.4859 21.1141 13.4196 20.6904 12.9992L17.1889 9.49933L10.2267 16.4647L13.7266 19.9646C14.1437 20.3875 14.2092 21.0476 13.8804 21.5465C11.6834 24.8386 10.1744 28.471 9.40388 32.3406C9.28856 32.9262 8.77408 33.3483 8.177 33.3483H3.23185V43.1977H8.17782C8.7749 43.1977 9.28937 43.6197 9.4047 44.2037C10.1809 48.0774 11.6842 51.7089 13.8812 55.0003C14.21 55.4959 14.1446 56.1584 13.7274 56.5813L10.2275 60.0804L17.1897 67.0458L20.6912 63.5467C21.1149 63.1238 21.7757 63.0584 22.2714 63.3905C24.2303 64.6951 26.3177 65.7625 28.5146 66.5755V61.4357C28.5146 60.23 27.9429 59.2273 26.909 58.6097C23.4459 56.5486 20.5497 53.6188 18.5253 50.1377C16.4454 46.5487 15.3395 42.4468 15.3395 38.2721C15.3395 25.2288 25.9578 14.6146 38.9971 14.6146C52.0421 14.6146 62.6546 25.2288 62.6546 38.2721C62.6546 42.4468 61.5553 46.5487 59.4688 50.1377C57.451 53.6196 54.5547 56.5494 51.0917 58.6097C50.0578 59.2273 49.4861 60.23 49.4861 61.4357V66.5755C51.683 65.7633 53.7704 64.6951 55.7293 63.3905C56.2241 63.0592 56.8858 63.1247 57.3111 63.5467L60.811 67.0458L67.7748 60.0804L64.2733 56.5797C63.8496 56.1584 63.7858 55.4967 64.1195 55.0003C66.3164 51.7081 67.819 48.0741 68.5894 44.2037C68.7121 43.6189 69.225 43.1977 69.8229 43.1977H74.7672ZM45.156 71.7357H32.843C31.8354 71.7357 31.0191 70.9162 31.0191 69.9085V69.3785H46.9816V69.9085C46.9808 70.9162 46.158 71.7357 45.156 71.7357ZM40.6084 77.4947H37.3907C36.4403 77.4947 35.5283 77.0972 34.8797 76.4052C34.3202 75.8057 34.0446 75.054 34.0953 74.2885V74.2394H43.8907C43.7107 76.1051 42.3178 77.4947 40.6084 77.4947ZM46.9808 61.4348C46.9808 59.3434 48.0146 57.5293 49.8133 56.457C56.1922 52.6569 60.1493 45.6882 60.1493 38.2713C60.1493 26.6078 50.6614 17.1191 38.9971 17.1191C27.3384 17.1191 17.8448 26.6086 17.8448 38.2713C17.8448 45.6882 21.8085 52.6569 28.1874 56.457C29.986 57.5293 31.0199 59.3434 31.0199 61.4348V62.0565H46.9824V61.4348H46.9808ZM31.0183 64.5609H46.9808V66.8716H31.0183V64.5609ZM76.0202 30.843H70.8297C70.0216 27.3578 68.6524 24.0608 66.7573 21.0197L70.4314 17.3489C70.9205 16.8606 70.9205 16.0681 70.4314 15.5789L61.6968 6.84191C61.4588 6.60635 61.1374 6.47548 60.8102 6.47548C60.4765 6.47548 60.155 6.60635 59.9236 6.84191L56.2495 10.5127C53.2109 8.61516 49.9106 7.25005 46.4279 6.44031V1.25224C46.4279 0.560276 45.8684 0 45.1756 0H32.8234C32.1298 0 31.5712 0.561094 31.5712 1.25224V6.44113C28.0836 7.25005 24.7882 8.61679 21.7496 10.5136L18.0755 6.84272C17.5864 6.35361 16.7913 6.35361 16.3022 6.84272L7.56683 15.5781C7.33536 15.8129 7.20122 16.1327 7.20122 16.4647C7.20122 16.796 7.33536 17.115 7.56683 17.3497L11.2409 21.0206C9.34009 24.064 7.97743 27.3586 7.16851 30.8438H1.9788C1.2852 30.8438 0.726562 31.4049 0.726562 32.096V44.4507C0.726562 45.1419 1.28602 45.703 1.9788 45.703H7.16932C7.97743 49.1881 9.34008 52.4835 11.2417 55.5254L7.56765 59.1954C7.07853 59.6853 7.07853 60.4771 7.56765 60.967L16.303 69.7032C16.5411 69.9396 16.856 70.0713 17.1897 70.0713C17.5234 70.0713 17.8383 69.9396 18.0763 69.7032L21.7504 66.034C23.877 67.3582 26.1434 68.4313 28.5146 69.2321V69.9085C28.5146 71.8658 29.8184 73.5221 31.5982 74.057V74.1175C31.4959 75.5824 32.0153 77.0031 33.05 78.1147C34.173 79.313 35.7548 80 37.3923 80H40.61C43.6936 80 46.1792 77.5454 46.4042 74.2893L46.423 74.0529C48.1962 73.5098 49.4869 71.8576 49.4869 69.9093V69.2329C51.8572 68.4305 54.1245 67.359 56.2511 66.0348L59.9252 69.704C60.4143 70.194 61.2036 70.194 61.6985 69.704L70.4338 60.9678C70.6653 60.7331 70.7995 60.4133 70.7995 60.082C70.7995 59.7507 70.6653 59.4326 70.4338 59.1962L66.7598 55.5262C68.6541 52.4827 70.0232 49.1881 70.8322 45.7038H76.0227C76.7114 45.7038 77.2749 45.1419 77.2749 44.4515V32.0952C77.2725 31.4032 76.7089 30.843 76.0202 30.843Z" fill="#333333"/>
</svg>
