<svg width="141" height="26" viewBox="0 0 141 26" fill="none" xmlns="http://www.w3.org/2000/svg">
<g clip-path="url(#clip0_119_543)">
<path d="M79.0767 19.1162H82.0712V7.82073H79.0767V19.1162ZM79.0767 6.05929H82.0712V3.37305H79.0767V6.05929Z" fill="#555555"/>
<path d="M84.001 22.8153H86.9956V17.8392H87.0392C87.6776 18.808 88.7128 19.4465 90.2978 19.4465C93.2044 19.4465 95.1862 17.1346 95.1862 13.4796C95.1862 9.9566 93.2705 7.51257 90.2759 7.51257C88.7347 7.51257 87.6776 8.23922 86.9513 9.23001H86.8851V7.82083H84.001V22.8153ZM89.6594 16.9585C87.876 16.9585 86.9294 15.6154 86.9294 13.5676C86.9294 11.5419 87.6776 9.93464 89.5496 9.93464C91.3991 9.93464 92.1473 11.4319 92.1473 13.5676C92.1473 15.7034 91.1789 16.9585 89.6594 16.9585Z" fill="#555555"/>
<path d="M101.159 19.4465C103.978 19.4465 105.915 18.0814 105.915 15.8135C105.915 13.1713 103.824 12.6429 101.93 12.2466C100.322 11.9163 98.8255 11.8282 98.8255 10.8594C98.8255 10.0447 99.5962 9.60435 100.763 9.60435C102.04 9.60435 102.811 10.0447 102.943 11.2557H105.651C105.431 8.98784 103.779 7.51257 100.807 7.51257C98.2308 7.51257 96.2053 8.67958 96.2053 11.1236C96.2053 13.5897 98.1872 14.1401 100.213 14.5365C101.754 14.8447 103.185 14.9548 103.185 16.0337C103.185 16.8264 102.437 17.3328 101.116 17.3328C99.7721 17.3328 98.8473 16.7603 98.6496 15.4612H95.8752C96.0512 17.8612 97.8789 19.4465 101.159 19.4465Z" fill="#555555"/>
<path d="M117.284 19.1162V7.8208H114.29V14.3383C114.29 15.8355 113.431 16.8924 112.022 16.8924C110.745 16.8924 110.151 16.1658 110.151 14.8447V7.8208H107.178V15.3511C107.178 17.8171 108.587 19.4245 111.097 19.4245C112.683 19.4245 113.563 18.83 114.334 17.7952H114.4V19.1162H117.284Z" fill="#555555"/>
<path d="M119.221 19.1163H122.216V12.5548C122.216 11.0575 123.031 10.0888 124.242 10.0888C125.343 10.0888 125.981 10.7493 125.981 12.0264V19.1163H128.976V12.5548C128.976 11.0575 129.746 10.0888 131.001 10.0888C132.102 10.0888 132.741 10.7493 132.741 12.0264V19.1163H135.735V11.5199C135.735 9.05386 134.392 7.51257 132.014 7.51257C130.583 7.51257 129.394 8.26119 128.623 9.49422H128.579C128.029 8.30524 126.884 7.51257 125.452 7.51257C123.889 7.51257 122.789 8.30524 122.172 9.34009H122.106V7.82083H119.221V19.1163Z" fill="#555555"/>
<path d="M1.0293 19.1162H4.02379V3.37305H1.0293V19.1162Z" fill="#555555"/>
<path d="M11.3458 19.4465C14.8467 19.4465 17.2466 16.8484 17.2466 13.4796C17.2466 10.1107 14.8467 7.51257 11.3458 7.51257C7.84481 7.51257 5.44482 10.1107 5.44482 13.4796C5.44482 16.8484 7.84481 19.4465 11.3458 19.4465ZM11.3458 17.1566C9.49623 17.1566 8.48335 15.6814 8.48335 13.4796C8.48335 11.2777 9.49623 9.78051 11.3458 9.78051C13.1733 9.78051 14.2081 11.2777 14.2081 13.4796C14.2081 15.6814 13.1733 17.1566 11.3458 17.1566Z" fill="#555555"/>
<path d="M23.6147 22.9695C25.2881 22.9695 26.7414 22.5732 27.6881 21.6924C28.5248 20.9217 29.0313 19.8428 29.0313 18.2576V7.82083H26.1469V9.00987H26.1028C25.4202 8.06307 24.3854 7.51257 22.9762 7.51257C20.1138 7.51257 18.0881 9.67037 18.0881 13.0392C18.0881 16.452 20.5542 18.4337 23.0643 18.4337C24.4954 18.4337 25.3542 17.8612 26.0147 17.1126H26.0808V18.3456C26.0808 19.8869 25.2661 20.7016 23.5707 20.7016C22.1835 20.7016 21.545 20.1511 21.3028 19.4465H18.3303C18.6386 21.6484 20.5322 22.9695 23.6147 22.9695ZM23.5707 16.0337C22.0294 16.0337 21.0166 14.9107 21.0166 12.9952C21.0166 11.1016 22.0294 9.91261 23.5486 9.91261C25.3542 9.91261 26.2349 11.3218 26.2349 12.9732C26.2349 14.6465 25.4643 16.0337 23.5707 16.0337Z" fill="#555555"/>
<path d="M36.3099 19.4465C39.8108 19.4465 42.2108 16.8484 42.2108 13.4796C42.2108 10.1107 39.8108 7.51257 36.3099 7.51257C32.809 7.51257 30.4089 10.1107 30.4089 13.4796C30.4089 16.8484 32.809 19.4465 36.3099 19.4465ZM36.3099 17.1566C34.4603 17.1566 33.4475 15.6814 33.4475 13.4796C33.4475 11.2777 34.4603 9.78051 36.3099 9.78051C38.1374 9.78051 39.1723 11.2777 39.1723 13.4796C39.1723 15.6814 38.1374 17.1566 36.3099 17.1566Z" fill="#555555"/>
<path d="M136.823 5.96638C136.823 5.4597 137.234 5.04895 137.741 5.04895H139.576C140.083 5.04895 140.494 5.4597 140.494 5.96638C140.494 6.47306 140.083 6.88382 139.576 6.88382H137.741C137.234 6.88382 136.823 6.47306 136.823 5.96638Z" fill="#555555"/>
<path fill-rule="evenodd" clip-rule="evenodd" d="M60.3709 0.156006C67.4642 0.156006 73.2151 5.90648 73.2151 13C73.2151 20.0936 67.4642 25.8441 60.3709 25.8441C53.2773 25.8441 47.5269 20.0936 47.5269 13C47.5269 5.90648 53.2773 0.156006 60.3709 0.156006ZM59.9066 1.11712C58.4413 1.32333 57.0461 2.50074 55.963 4.46993C55.6488 5.04113 55.3654 5.67217 55.1184 6.35354C56.5911 5.98345 58.2089 5.76527 59.9066 5.73152V1.11712ZM54.0328 6.66202C54.34 5.69794 54.7158 4.81094 55.1495 4.02248C55.6864 3.04629 56.3235 2.20331 57.0415 1.55586C53.1376 2.68964 50.0605 5.76679 48.9267 9.67068C49.5741 8.95276 50.4171 8.31557 51.3933 7.77869C52.1818 7.34501 53.0687 6.96919 54.0328 6.66202ZM53.7244 7.74754C53.3543 9.22024 53.1361 10.838 53.1023 12.5358H48.4879C48.6941 11.0705 49.8715 9.67524 51.8408 8.59223C52.412 8.27806 53.043 7.99459 53.7244 7.74754ZM54.031 12.5358C54.0694 10.683 54.3361 8.94351 54.7774 7.40659C56.3144 6.96527 58.0538 6.6985 59.9066 6.66016V8.66569C59.2154 10.4352 57.8057 11.8448 56.0361 12.5358H54.031ZM53.1023 13.4643H48.4879C48.6941 14.9296 49.8715 16.3248 51.8408 17.4079C52.412 17.722 53.043 18.0055 53.7244 18.2525C53.3543 16.7799 53.1361 15.1621 53.1023 13.4643ZM54.7774 18.5935C54.3361 17.0566 54.0694 15.3171 54.031 13.4643H56.0361C57.8057 14.1552 59.2154 15.5649 59.9066 17.3344V19.3399C58.0538 19.3016 56.3144 19.0348 54.7774 18.5935ZM54.0328 19.3381C53.0687 19.0309 52.1818 18.6551 51.3933 18.2214C50.4171 17.6845 49.5741 17.0473 48.9267 16.3294C50.0605 20.2333 53.1376 23.3105 57.0415 24.4442C56.3235 23.7967 55.6864 22.9538 55.1495 21.9776C54.7158 21.1891 54.34 20.3021 54.0328 19.3381ZM59.9066 24.883C58.4413 24.6767 57.0461 23.4993 55.963 21.5302C55.6488 20.959 55.3654 20.3279 55.1184 19.6466C56.5911 20.0166 58.2089 20.2348 59.9066 20.2685V24.883ZM63.7003 24.4442C64.4182 23.7967 65.0553 22.9538 65.5922 21.9776C66.0257 21.1891 66.402 20.3021 66.709 19.3381C67.6729 19.0309 68.5598 18.6551 69.3484 18.2214C70.3246 17.6845 71.1678 17.0473 71.8151 16.3294C70.681 20.2333 67.6042 23.3105 63.7003 24.4442ZM65.6237 19.6466C65.3764 20.3279 65.0926 20.959 64.7785 21.5302C63.6956 23.4993 62.3004 24.6767 60.8351 24.883V20.2685C62.5329 20.2348 64.1506 20.0166 65.6237 19.6466ZM67.0172 18.2525C67.6986 18.0055 68.3299 17.722 68.9008 17.4079C70.8704 16.3249 72.0476 14.9296 72.2537 13.4643H67.6395C67.6055 15.1621 67.3871 16.7799 67.0172 18.2525ZM66.7109 13.4643C66.6724 15.3171 66.4059 17.0566 65.964 18.5935C64.4274 19.0348 62.6879 19.3016 60.8351 19.3399V17.3359C61.5261 15.5657 62.9362 14.1554 64.7062 13.4643H66.7109ZM67.6395 12.5358H72.2537C72.0476 11.0705 70.8704 9.67524 68.9008 8.59223C68.3299 8.27806 67.6986 7.99459 67.0172 7.74754C67.3871 9.22024 67.6055 10.838 67.6395 12.5358ZM65.964 7.40659C66.4059 8.94351 66.6724 10.683 66.7109 12.5358H64.7063C62.9362 11.8447 61.5261 10.4344 60.8351 8.66422V6.66016C62.6879 6.6985 64.4274 6.96527 65.964 7.40659ZM66.709 6.66202C67.6729 6.96919 68.5598 7.34501 69.3484 7.77869C70.3246 8.31557 71.1678 8.95276 71.8151 9.67068C70.681 5.76679 67.6042 2.68964 63.7003 1.55586C64.4182 2.20331 65.0553 3.04629 65.5922 4.02248C66.0257 4.81094 66.402 5.69794 66.709 6.66202ZM60.8351 1.11712C62.3004 1.32333 63.6956 2.50074 64.7785 4.46993C65.0926 5.04113 65.3764 5.67217 65.6237 6.35354C64.1506 5.98345 62.5329 5.76527 60.8351 5.73152V1.11712Z" fill="#555555"/>
</g>
<defs>
<clipPath id="clip0_119_543">
<rect width="140" height="25.6881" fill="white" transform="translate(0.5 0.156006)"/>
</clipPath>
</defs>
</svg>
