<svg width="141" height="36" viewBox="0 0 141 36" fill="none" xmlns="http://www.w3.org/2000/svg">
<g clip-path="url(#clip0_119_616)">
<path d="M41.2683 24.9529H51.288V21.9349H44.8295V10.5673H41.2683V24.9529Z" fill="#555555"/>
<path d="M57.2241 22.9409C55.7956 22.9409 55.0512 21.6935 55.0512 19.8223C55.0512 17.9512 55.7956 16.6836 57.2241 16.6836C58.6526 16.6836 59.4172 17.9512 59.4172 19.8223C59.4172 21.6935 58.6526 22.9409 57.2241 22.9409ZM57.2443 25.2748C60.564 25.2748 62.737 22.9208 62.737 19.8223C62.737 16.7239 60.564 14.3699 57.2443 14.3699C53.9446 14.3699 51.7314 16.7239 51.7314 19.8223C51.7314 22.9208 53.9446 25.2748 57.2443 25.2748Z" fill="#555555"/>
<path d="M68.4832 28.514C70.0123 28.514 71.3603 28.172 72.2657 27.3672C73.0906 26.6228 73.6338 25.4961 73.6338 23.9469V14.6515H70.4952V15.7581H70.4549C69.8513 14.893 68.9258 14.3497 67.5577 14.3497C65.0025 14.3497 63.2319 16.4824 63.2319 19.5004C63.2319 22.6592 65.3848 24.3895 67.6985 24.3895C68.9459 24.3895 69.7306 23.8865 70.3342 23.2024H70.4147V24.2285C70.4147 25.476 69.8312 26.2003 68.443 26.2003C67.3565 26.2003 66.8133 25.7375 66.6322 25.1943H63.4533C63.7752 27.3471 65.6463 28.514 68.4832 28.514ZM68.4631 21.955C67.2358 21.955 66.431 20.949 66.431 19.3998C66.431 17.8305 67.2358 16.8245 68.4631 16.8245C69.8312 16.8245 70.5555 17.9914 70.5555 19.3797C70.5555 20.8283 69.8916 21.955 68.4631 21.955Z" fill="#555555"/>
<path d="M80.0877 22.9409C78.6592 22.9409 77.9147 21.6935 77.9147 19.8223C77.9147 17.9512 78.6592 16.6836 80.0877 16.6836C81.5162 16.6836 82.2807 17.9512 82.2807 19.8223C82.2807 21.6935 81.5162 22.9409 80.0877 22.9409ZM80.1078 25.2748C83.4275 25.2748 85.6007 22.9208 85.6007 19.8223C85.6007 16.7239 83.4275 14.3699 80.1078 14.3699C76.8081 14.3699 74.595 16.7239 74.595 19.8223C74.595 22.9208 76.8081 25.2748 80.1078 25.2748Z" fill="#555555"/>
<path d="M86.5581 24.9529H89.8376V14.6516H86.5581V24.9529ZM86.5581 13.2231H89.8376V10.5673H86.5581V13.2231Z" fill="#555555"/>
<path d="M91.2603 28.3531H94.5398V23.8865H94.58C95.2238 24.7516 96.1695 25.2748 97.4974 25.2748C100.193 25.2748 101.984 23.1421 101.984 19.8022C101.984 16.7037 100.314 14.3497 97.5779 14.3497C96.1695 14.3497 95.1635 14.9734 94.4593 15.899H94.3989V14.6515H91.2603V28.3531ZM96.6523 22.7397C95.244 22.7397 94.4392 21.5928 94.4392 19.9229C94.4392 18.253 95.1635 16.9854 96.592 16.9854C98.0004 16.9854 98.6643 18.1524 98.6643 19.9229C98.6643 21.6733 97.8998 22.7397 96.6523 22.7397Z" fill="#555555"/>
<path d="M107.324 25.2748C110.02 25.2748 112.012 24.1078 112.012 21.8544C112.012 19.2187 109.879 18.756 108.069 18.4542C106.761 18.2127 105.594 18.1121 105.594 17.3878C105.594 16.744 106.218 16.4422 107.022 16.4422C107.928 16.4422 108.552 16.7239 108.672 17.6494H111.69C111.529 15.6173 109.96 14.3497 107.043 14.3497C104.608 14.3497 102.596 15.4764 102.596 17.6494C102.596 20.0637 104.508 20.5466 106.298 20.8484C107.666 21.0899 108.914 21.1905 108.914 22.116C108.914 22.7799 108.29 23.1421 107.304 23.1421C106.218 23.1421 105.534 22.6391 105.413 21.613H102.314C102.415 23.8865 104.306 25.2748 107.324 25.2748Z" fill="#555555"/>
<path d="M116.466 25.2546C117.895 25.2546 118.8 24.6913 119.544 23.6853H119.605V24.9528H122.743V14.6515H119.464V20.4057C119.464 21.633 118.78 22.4781 117.653 22.4781C116.607 22.4781 116.104 21.8544 116.104 20.7277V14.6515H112.844V21.4117C112.844 23.7054 114.092 25.2546 116.466 25.2546Z" fill="#555555"/>
<path d="M124.17 24.9528H127.45V19.1785C127.45 17.9512 128.054 17.086 129.08 17.086C130.066 17.086 130.528 17.7299 130.528 18.8364V24.9528H133.808V19.1785C133.808 17.9512 134.391 17.086 135.437 17.086C136.423 17.086 136.886 17.7299 136.886 18.8364V24.9528H140.166V18.253C140.166 15.9392 138.999 14.3497 136.665 14.3497C135.337 14.3497 134.23 14.9131 133.426 16.1605H133.385C132.862 15.0539 131.836 14.3497 130.488 14.3497C128.999 14.3497 128.013 15.0539 127.369 16.1203H127.309V14.6515H124.17V24.9528Z" fill="#555555"/>
<path fill-rule="evenodd" clip-rule="evenodd" d="M7.75491 4.07684C6.55556 4.91547 5.47102 5.907 4.52954 7.02316C8.37686 6.66597 13.2647 7.24921 18.9395 10.0866C24.9994 13.1165 29.8791 13.2189 33.2752 12.5639C32.967 11.6309 32.579 10.7342 32.1196 9.88182C28.232 10.2918 23.2482 9.74912 17.4399 6.84508C13.7516 5.00094 10.5004 4.24127 7.75491 4.07684ZM29.8486 6.64947C26.7786 3.21935 22.3171 1.06067 17.3514 1.06067C15.8931 1.06067 14.4782 1.24687 13.1293 1.59676C14.9562 2.09523 16.8969 2.82449 18.9395 3.8458C23.192 5.97201 26.8633 6.65661 29.8486 6.64947ZM34.0013 15.8387C29.8985 16.6489 24.233 16.4824 17.4399 13.0859C11.0891 9.91049 6.03442 9.95048 2.62536 10.7081C2.44939 10.7471 2.27757 10.7882 2.1099 10.831C1.66356 11.8017 1.30729 12.8224 1.05166 13.8824C1.32469 13.8095 1.60682 13.7401 1.89791 13.6754C6.0337 12.7563 11.8772 12.7963 18.9395 16.3274C25.2904 19.5028 30.3451 19.4629 33.7542 18.7053C33.871 18.6794 33.9861 18.6525 34.0993 18.6249C34.1117 18.3605 34.1179 18.0945 34.1179 17.8271C34.1179 17.1544 34.0783 16.4908 34.0013 15.8387ZM33.5518 22.1632C29.4889 22.8735 23.9884 22.6009 17.4399 19.3267C11.0891 16.1513 6.03442 16.1913 2.62536 16.9489C1.86864 17.117 1.18792 17.3218 0.587417 17.538C0.58578 17.6341 0.584961 17.7305 0.584961 17.8271C0.584961 27.087 8.09155 34.5936 17.3514 34.5936C25.1118 34.5936 31.6409 29.3213 33.5518 22.1632Z" fill="#555555"/>
</g>
<defs>
<clipPath id="clip0_119_616">
<rect width="140" height="34.3713" fill="white" transform="translate(0.5 0.814453)"/>
</clipPath>
</defs>
</svg>
