<svg width="141" height="36" viewBox="0 0 141 36" fill="none" xmlns="http://www.w3.org/2000/svg">
<g clip-path="url(#clip0_119_627)">
<path d="M1.3042 26.4017L1.3042 9.21021L9.89994 13.9856V21.674L16.7766 25.5421L23.6532 21.674V13.9856L32.249 9.21021V26.4017L16.7766 34.9974L1.3042 26.4017Z" fill="#555555"/>
<path fill-rule="evenodd" clip-rule="evenodd" d="M5.60209 11.598L1.3042 9.21026L16.7766 0.614502L32.249 9.21026L27.9511 11.598V24.2528L16.7766 30.6997L5.60208 24.2528L5.60209 11.598ZM27.4855 11.8567L23.6532 13.9857V13.9379L16.7766 10.0698L9.89994 13.9379V13.9857L6.06768 11.8567V23.9884L16.7766 30.1666L27.4855 23.9884V11.8567Z" fill="#555555"/>
<path d="M40.4871 25.0432V10.6023H43.2102V22.5675H49.8118V25.0432H40.4871Z" fill="#555555"/>
<path d="M55.6911 25.3319C54.6734 25.3319 53.7589 25.1256 52.9474 24.7129C52.136 24.3003 51.4964 23.7021 51.0289 22.9182C50.5612 22.1343 50.3274 21.1922 50.3274 20.0919V19.7618C50.3274 18.6616 50.5612 17.7194 51.0289 16.9355C51.4964 16.1516 52.136 15.5534 52.9474 15.1408C53.7589 14.7281 54.6734 14.5219 55.6911 14.5219C56.7089 14.5219 57.6235 14.7281 58.4349 15.1408C59.2464 15.5534 59.8859 16.1516 60.3535 16.9355C60.8211 17.7194 61.055 18.6616 61.055 19.7618V20.0919C61.055 21.1922 60.8211 22.1343 60.3535 22.9182C59.8859 23.7021 59.2464 24.3003 58.4349 24.7129C57.6235 25.1256 56.7089 25.3319 55.6911 25.3319ZM55.6911 23.0213C56.4889 23.0213 57.1491 22.7669 57.6716 22.258C58.1943 21.7354 58.4555 20.9927 58.4555 20.03V19.8237C58.4555 18.861 58.1943 18.1252 57.6716 17.6163C57.1628 17.0937 56.5026 16.8324 55.6911 16.8324C54.8935 16.8324 54.2333 17.0937 53.7107 17.6163C53.1881 18.1252 52.9268 18.861 52.9268 19.8237V20.03C52.9268 20.9927 53.1881 21.7354 53.7107 22.258C54.2333 22.7669 54.8935 23.0213 55.6911 23.0213Z" fill="#555555"/>
<path d="M62.0308 19.9681V19.6381C62.0308 18.5653 62.2439 17.6507 62.6703 16.8943C63.0966 16.1241 63.6605 15.5396 64.3619 15.1408C65.0771 14.7281 65.8541 14.5219 66.693 14.5219C67.6283 14.5219 68.3366 14.6869 68.8179 15.017C69.2993 15.347 69.6501 15.6909 69.87 16.0485H70.2414V14.8106H72.7995V26.8585C72.7995 27.5599 72.5932 28.1169 72.1806 28.5295C71.768 28.9559 71.2179 29.1691 70.5302 29.1691H63.6811V26.8998H69.6225C70.0076 26.8998 70.2002 26.6934 70.2002 26.2808V23.6196H69.8288C69.6912 23.8396 69.4987 24.0666 69.2512 24.3003C69.0036 24.5204 68.6735 24.7061 68.2609 24.8574C67.8484 25.0087 67.3257 25.0843 66.693 25.0843C65.8541 25.0843 65.0771 24.8849 64.3619 24.486C63.6605 24.0734 63.0966 23.4889 62.6703 22.7325C62.2439 21.9623 62.0308 21.0409 62.0308 19.9681ZM67.4358 22.8151C68.2334 22.8151 68.9005 22.5606 69.4368 22.0517C69.9732 21.5429 70.2414 20.8277 70.2414 19.9063V19.6999C70.2414 18.7647 69.9732 18.0496 69.4368 17.5545C68.9142 17.0456 68.2472 16.7911 67.4358 16.7911C66.638 16.7911 65.971 17.0456 65.4347 17.5545C64.8983 18.0496 64.6301 18.7647 64.6301 19.6999V19.9063C64.6301 20.8277 64.8983 21.5429 65.4347 22.0517C65.971 22.5606 66.638 22.8151 67.4358 22.8151Z" fill="#555555"/>
<path d="M79.6218 25.3319C78.604 25.3319 77.6894 25.1256 76.878 24.7129C76.0665 24.3003 75.427 23.7021 74.9594 22.9182C74.4918 22.1343 74.2581 21.1922 74.2581 20.0919V19.7618C74.2581 18.6616 74.4918 17.7194 74.9594 16.9355C75.427 16.1516 76.0665 15.5534 76.878 15.1408C77.6894 14.7281 78.604 14.5219 79.6218 14.5219C80.6395 14.5219 81.5541 14.7281 82.3655 15.1408C83.177 15.5534 83.8165 16.1516 84.2841 16.9355C84.7517 17.7194 84.9855 18.6616 84.9855 19.7618V20.0919C84.9855 21.1922 84.7517 22.1343 84.2841 22.9182C83.8165 23.7021 83.177 24.3003 82.3655 24.7129C81.5541 25.1256 80.6395 25.3319 79.6218 25.3319ZM79.6218 23.0213C80.4194 23.0213 81.0796 22.7669 81.6022 22.258C82.1249 21.7354 82.3862 20.9927 82.3862 20.03V19.8237C82.3862 18.861 82.1249 18.1252 81.6022 17.6163C81.0934 17.0937 80.4332 16.8324 79.6218 16.8324C78.8241 16.8324 78.164 17.0937 77.6413 17.6163C77.1187 18.1252 76.8574 18.861 76.8574 19.8237V20.03C76.8574 20.9927 77.1187 21.7354 77.6413 22.258C78.164 22.7669 78.8241 23.0213 79.6218 23.0213Z" fill="#555555"/>
<path d="M86.4565 25.0431V14.8106H89.0559V25.0431H86.4565ZM87.7561 13.6142C87.2886 13.6142 86.8897 13.4629 86.5596 13.1603C86.2433 12.8577 86.0852 12.4588 86.0852 11.9638C86.0852 11.4687 86.2433 11.0698 86.5596 10.7672C86.8897 10.4647 87.2886 10.3134 87.7561 10.3134C88.2375 10.3134 88.6364 10.4647 88.9527 10.7672C89.2691 11.0698 89.4272 11.4687 89.4272 11.9638C89.4272 12.4588 89.2691 12.8577 88.9527 13.1603C88.6364 13.4629 88.2375 13.6142 87.7561 13.6142Z" fill="#555555"/>
<path d="M91.0078 29.1691V14.8106H93.5661V16.0485H93.9376C94.1709 15.6496 94.5351 15.2989 95.031 14.9963C95.5261 14.68 96.2343 14.5219 97.1557 14.5219C97.9811 14.5219 98.7442 14.7281 99.4451 15.1408C100.147 15.5396 100.711 16.1309 101.137 16.9149C101.563 17.6988 101.777 18.6478 101.777 19.7618V20.0919C101.777 21.2059 101.563 22.1549 101.137 22.9388C100.711 23.7228 100.147 24.321 99.4451 24.7336C98.7442 25.1325 97.9811 25.3319 97.1557 25.3319C96.5363 25.3319 96.0138 25.2562 95.5874 25.1049C95.1747 24.9674 94.838 24.7886 94.5772 24.5685C94.3292 24.3348 94.1297 24.101 93.9787 23.8672H93.6072V29.1691H91.0078ZM96.3716 23.0626C97.1832 23.0626 97.8502 22.8081 98.3727 22.2993C98.9089 21.7767 99.177 21.0202 99.177 20.03V19.8237C99.177 18.8335 98.9089 18.0839 98.3727 17.575C97.8365 17.0525 97.1695 16.7911 96.3716 16.7911C95.5736 16.7911 94.9066 17.0525 94.3704 17.575C93.8342 18.0839 93.5661 18.8335 93.5661 19.8237V20.03C93.5661 21.0202 93.8342 21.7767 94.3704 22.2993C94.9066 22.8081 95.5736 23.0626 96.3716 23.0626Z" fill="#555555"/>
<path d="M107.485 25.3319C106.151 25.3319 105.057 25.0431 104.204 24.4654C103.352 23.8878 102.836 23.0626 102.657 21.9898L105.051 21.371C105.147 21.8523 105.305 22.2305 105.525 22.5056C105.759 22.7807 106.041 22.98 106.371 23.1039C106.714 23.2138 107.086 23.2689 107.485 23.2689C108.09 23.2689 108.537 23.1657 108.826 22.9595C109.114 22.7394 109.259 22.4712 109.259 22.1549C109.259 21.8385 109.122 21.5979 108.846 21.4328C108.572 21.254 108.132 21.1096 107.526 20.9996L106.948 20.8964C106.233 20.7589 105.58 20.5732 104.988 20.3394C104.397 20.0919 103.922 19.7549 103.565 19.3286C103.208 18.9022 103.028 18.3521 103.028 17.6782C103.028 16.6605 103.4 15.8834 104.143 15.347C104.885 14.7969 105.862 14.5219 107.072 14.5219C108.214 14.5219 109.163 14.7763 109.919 15.2852C110.675 15.794 111.17 16.4611 111.405 17.2863L108.991 18.0289C108.881 17.5063 108.654 17.1349 108.31 16.9149C107.98 16.6949 107.567 16.5848 107.072 16.5848C106.577 16.5848 106.199 16.6742 105.937 16.853C105.677 17.0181 105.546 17.2519 105.546 17.5545C105.546 17.8845 105.683 18.132 105.958 18.2971C106.233 18.4483 106.604 18.5653 107.072 18.6478L107.649 18.7509C108.42 18.8885 109.114 19.0741 109.734 19.3079C110.366 19.528 110.861 19.8512 111.219 20.2776C111.59 20.6902 111.776 21.254 111.776 21.9692C111.776 23.042 111.384 23.874 110.599 24.4654C109.83 25.0431 108.791 25.3319 107.485 25.3319Z" fill="#555555"/>
<path d="M117.024 25.2081C116.227 25.2081 115.525 25.0293 114.92 24.6718C114.329 24.3004 113.868 23.7915 113.538 23.1452C113.208 22.4988 113.043 21.756 113.043 20.9171V14.8107H115.642V20.7108C115.642 21.481 115.828 22.0586 116.2 22.4437C116.584 22.8288 117.127 23.0213 117.829 23.0213C118.626 23.0213 119.246 22.76 119.686 22.2374C120.126 21.701 120.346 20.9584 120.346 20.0094V14.8107H122.945V25.0431H120.387V23.7021H120.016C119.851 24.046 119.541 24.3829 119.087 24.713C118.634 25.0431 117.945 25.2081 117.024 25.2081Z" fill="#555555"/>
<path d="M124.91 25.0432V14.8107H127.467V15.9248H127.839C128.017 15.5809 128.314 15.2853 128.725 15.0377C129.138 14.7764 129.682 14.6458 130.356 14.6458C131.084 14.6458 131.669 14.7901 132.109 15.0789C132.549 15.354 132.886 15.7184 133.12 16.1723H133.491C133.725 15.7323 134.055 15.3678 134.482 15.0789C134.908 14.7901 135.513 14.6458 136.297 14.6458C136.93 14.6458 137.501 14.7833 138.009 15.0583C138.532 15.3196 138.944 15.7253 139.247 16.2755C139.563 16.8118 139.721 17.4926 139.721 18.3179V25.0432H137.122V18.5035C137.122 17.9396 136.978 17.5201 136.689 17.2451C136.4 16.9563 135.994 16.8118 135.472 16.8118C134.881 16.8118 134.42 17.0044 134.089 17.3895C133.774 17.7608 133.615 18.2972 133.615 18.9987V25.0432H131.016V18.5035C131.016 17.9396 130.871 17.5201 130.583 17.2451C130.294 16.9563 129.888 16.8118 129.365 16.8118C128.774 16.8118 128.314 17.0044 127.983 17.3895C127.667 17.7608 127.508 18.2972 127.508 18.9987V25.0432H124.91Z" fill="#555555"/>
</g>
<defs>
<clipPath id="clip0_119_627">
<rect width="140" height="34.7712" fill="white" transform="translate(0.5 0.614502)"/>
</clipPath>
</defs>
</svg>
