<svg width="18" height="20" viewBox="0 0 18 20" fill="none" xmlns="http://www.w3.org/2000/svg">
<path d="M15.3171 2.04339H13.945V1.48892C13.945 1.21169 13.7155 0.984863 13.435 0.984863C13.1544 0.984863 12.9249 1.21169 12.9249 1.48892V2.04339H5.07509V1.48892C5.07509 1.21169 4.84557 0.984863 4.56503 0.984863C4.2845 0.984863 4.05497 1.21169 4.05497 1.48892V2.04339H2.68291C1.20374 2.04339 0 3.23297 0 4.69474V16.3637C0 17.8255 1.20374 19.015 2.68291 19.015H15.3171C16.7963 19.015 18 17.8255 18 16.3637V4.69474C18 3.23297 16.7963 2.04339 15.3171 2.04339ZM2.68291 3.0515H4.05497V3.60597C4.05497 3.8832 4.2845 4.11003 4.56503 4.11003C4.84557 4.11003 5.07509 3.8832 5.07509 3.60597V3.0515H12.9275V3.60597C12.9275 3.8832 13.157 4.11003 13.4375 4.11003C13.7181 4.11003 13.9476 3.8832 13.9476 3.60597V3.0515H15.3196C16.2352 3.0515 16.9824 3.78743 16.9824 4.69474V6.75886H1.02012V4.69474C1.02012 3.78995 1.76736 3.0515 2.68291 3.0515ZM15.3171 18.0069H2.68291C1.76736 18.0069 1.02012 17.271 1.02012 16.3637V7.7695H16.9773V16.3637C16.9799 17.2685 16.2326 18.0069 15.3171 18.0069Z" fill="#4540DB"/>
<path d="M4.78181 9.11785H3.77954C3.12156 9.11785 2.586 9.64711 2.586 10.2973V11.2299C2.586 11.8801 3.12156 12.4094 3.77954 12.4094H4.78181C5.43978 12.4094 5.97535 11.8801 5.97535 11.2299V10.2973C5.9728 9.64711 5.43978 9.11785 4.78181 9.11785ZM4.95268 11.2299C4.95268 11.3231 4.87617 11.4012 4.77926 11.4012H3.77699C3.68263 11.4012 3.60357 11.3256 3.60357 11.2299V10.2973C3.60357 10.2041 3.68008 10.126 3.77699 10.126H4.77926C4.87362 10.126 4.95268 10.2016 4.95268 10.2973V11.2299Z" fill="#4540DB"/>
<path d="M9.49986 9.11785H8.49759C7.83961 9.11785 7.30405 9.64711 7.30405 10.2973V11.2299C7.30405 11.8801 7.83961 12.4094 8.49759 12.4094H9.49986C10.1578 12.4094 10.6934 11.8801 10.6934 11.2299V10.2973C10.6934 9.64711 10.1578 9.11785 9.49986 9.11785ZM9.67328 11.2299C9.67328 11.3231 9.59677 11.4012 9.49986 11.4012H8.49759C8.40323 11.4012 8.32417 11.3256 8.32417 11.2299V10.2973C8.32417 10.2041 8.40068 10.126 8.49759 10.126H9.49986C9.59422 10.126 9.67328 10.2016 9.67328 10.2973V11.2299Z" fill="#4540DB"/>
<path d="M14.2205 9.11785H13.2182C12.5602 9.11785 12.0247 9.64711 12.0247 10.2973V11.2299C12.0247 11.8801 12.5602 12.4094 13.2182 12.4094H14.2205C14.8784 12.4094 15.414 11.8801 15.414 11.2299V10.2973C15.414 9.64711 14.8784 9.11785 14.2205 9.11785ZM14.3939 11.2299C14.3939 11.3231 14.3174 11.4012 14.2205 11.4012H13.2182C13.1238 11.4012 13.0448 11.3256 13.0448 11.2299V10.2973C13.0448 10.2041 13.1213 10.126 13.2182 10.126H14.2205C14.3148 10.126 14.3939 10.2016 14.3939 10.2973V11.2299Z" fill="#4540DB"/>
<path d="M4.78181 13.5006H3.77954C3.12156 13.5006 2.586 14.0299 2.586 14.6801V15.6126C2.586 16.2629 3.12156 16.7921 3.77954 16.7921H4.78181C5.43978 16.7921 5.97535 16.2629 5.97535 15.6126V14.6801C5.9728 14.0299 5.43978 13.5006 4.78181 13.5006ZM4.95268 15.6126C4.95268 15.7059 4.87617 15.784 4.77926 15.784H3.77699C3.68263 15.784 3.60357 15.7084 3.60357 15.6126V14.6801C3.60357 14.5869 3.68008 14.5088 3.77699 14.5088H4.77926C4.87362 14.5088 4.95268 14.5844 4.95268 14.6801V15.6126Z" fill="#4540DB"/>
<path d="M9.49986 13.5006H8.49759C7.83961 13.5006 7.30405 14.0299 7.30405 14.6801V15.6126C7.30405 16.2629 7.83961 16.7921 8.49759 16.7921H9.49986C10.1578 16.7921 10.6934 16.2629 10.6934 15.6126V14.6801C10.6934 14.0299 10.1578 13.5006 9.49986 13.5006ZM9.67328 15.6126C9.67328 15.7059 9.59677 15.784 9.49986 15.784H8.49759C8.40323 15.784 8.32417 15.7084 8.32417 15.6126V14.6801C8.32417 14.5869 8.40068 14.5088 8.49759 14.5088H9.49986C9.59422 14.5088 9.67328 14.5844 9.67328 14.6801V15.6126Z" fill="#4540DB"/>
<path d="M14.2205 13.5006H13.2182C12.5602 13.5006 12.0247 14.0299 12.0247 14.6801V15.6126C12.0247 16.2629 12.5602 16.7921 13.2182 16.7921H14.2205C14.8784 16.7921 15.414 16.2629 15.414 15.6126V14.6801C15.414 14.0299 14.8784 13.5006 14.2205 13.5006ZM14.3939 15.6126C14.3939 15.7059 14.3174 15.784 14.2205 15.784H13.2182C13.1238 15.784 13.0448 15.7084 13.0448 15.6126V14.6801C13.0448 14.5869 13.1213 14.5088 13.2182 14.5088H14.2205C14.3148 14.5088 14.3939 14.5844 14.3939 14.6801V15.6126Z" fill="#4540DB"/>
</svg>
