<svg width="50" height="50" viewBox="0 0 50 50" fill="none" xmlns="http://www.w3.org/2000/svg">
<path d="M39.0674 40.2976C39.2335 42.307 38.7439 44.2029 37.7033 45.8186C36.5225 47.6534 34.6351 49.1149 32.2027 49.9535C31.7661 50.1045 31.2878 49.8755 31.1356 49.4423C31.0688 49.2514 31.0761 49.0519 31.1429 48.876C31.4651 48.0314 31.1773 47.0917 30.867 46.0797C30.1989 43.8984 29.4461 41.4408 32.5758 38.0545C32.3045 37.8406 32.1855 37.4731 32.3059 37.1306L33.6614 33.2876C33.7659 32.991 34.0239 32.7902 34.3156 32.7416L44.1937 6.80949C44.7037 5.46944 45.6848 4.81189 46.683 4.69376C47.1024 4.64455 47.5252 4.69376 47.9181 4.82961C48.3091 4.96479 48.6723 5.18988 48.9713 5.49044C49.6778 6.2005 50.033 7.32071 49.5911 8.68044L41.019 35.0673C41.2168 35.2852 41.2922 35.6008 41.1883 35.8975L39.8328 39.7404C39.7157 40.0745 39.4041 40.2871 39.0674 40.2976ZM23.2733 33.2607C24.3979 32.7409 25.631 32.7232 26.7139 33.113C27.7982 33.5048 28.7329 34.3061 29.2569 35.4217C29.7801 36.5367 29.798 37.7605 29.405 38.8342C29.0121 39.9071 28.205 40.8318 27.0791 41.3535C25.9545 41.8765 24.7207 41.8955 23.6378 41.5044C22.5542 41.114 21.6194 40.3127 21.0955 39.1971C20.5716 38.0815 20.5524 36.8576 20.9466 35.7833C21.3403 34.7077 22.1487 33.7804 23.2733 33.2607ZM26.1423 34.6762C25.4643 34.4321 24.6896 34.4445 23.9824 34.7714C23.2759 35.0982 22.7679 35.6789 22.5224 36.3503C22.2757 37.0229 22.2882 37.7907 22.6183 38.4936C22.9478 39.1944 23.5326 39.6971 24.2093 39.9412C24.8874 40.186 25.6614 40.1736 26.3699 39.8461C27.0764 39.5219 27.5825 38.9405 27.8293 38.2672C28.0754 37.5952 28.0628 36.8261 27.734 36.1252C27.4046 35.4243 26.8198 34.9203 26.1423 34.6762ZM13.3172 30.9579L13.2398 30.9907C12.4737 31.3648 11.9226 32.0073 11.6507 32.7495C11.3742 33.5048 11.3861 34.3671 11.752 35.1566L11.7857 35.2347C12.1634 35.9939 12.8104 36.5406 13.5586 36.8103C14.3081 37.0807 15.1602 37.0754 15.9421 36.7316L16.0658 36.6745C16.8306 36.3004 17.3803 35.6586 17.6522 34.917C17.9287 34.1617 17.9161 33.2994 17.5503 32.5099L17.5159 32.4305C17.1382 31.6719 16.4912 31.1266 15.7443 30.8569C14.9822 30.5826 14.113 30.595 13.3172 30.9579ZM12.5928 29.4558C13.8093 28.8914 15.1437 28.8711 16.3159 29.2937C17.4848 29.7157 18.4943 30.5819 19.0633 31.7907C19.6335 32.9982 19.654 34.3225 19.228 35.484C18.8026 36.6449 17.9287 37.6457 16.7108 38.2094L16.6778 38.2239C15.4671 38.7738 14.1461 38.7915 12.987 38.3735C11.8168 37.9515 10.808 37.084 10.2397 35.8765C9.66879 34.6677 9.64894 33.3447 10.075 32.1825C10.5003 31.0222 11.3736 30.0215 12.5928 29.4558ZM7.04646 19.3825L7.09806 19.3582C8.33315 18.7938 9.68599 18.7761 10.8734 19.204C12.0589 19.6312 13.081 20.504 13.6631 21.7207L13.6863 21.7692C14.2565 22.9951 14.2757 24.3384 13.8437 25.5183C13.4084 26.7035 12.5187 27.7259 11.2776 28.2995L11.2062 28.3284C9.98169 28.873 8.64936 28.8862 7.4791 28.4642C6.28636 28.0337 5.25701 27.1498 4.6775 25.9173C4.09734 24.6836 4.07484 23.3337 4.50881 22.1511C4.93947 20.9745 5.81997 19.96 7.04646 19.3825ZM10.3019 20.7671C9.51796 20.4849 8.62224 20.4968 7.80193 20.8715L7.78672 20.8787C6.96244 21.26 6.37103 21.9359 6.08459 22.7181C5.79682 23.5037 5.81005 24.3981 6.19374 25.2138C6.57743 26.0302 7.26014 26.6156 8.05067 26.901C8.82533 27.1799 9.70517 27.1734 10.5116 26.8177L10.5685 26.7888C11.3921 26.4082 11.9815 25.7323 12.268 24.9513C12.5524 24.1737 12.5399 23.2851 12.1634 22.4727L12.1548 22.455C11.7705 21.6373 11.0898 21.0513 10.3019 20.7671ZM11.8968 8.0557C13.251 7.42833 14.7355 7.40536 16.0394 7.87654C17.3419 8.34576 18.4646 9.31109 19.097 10.6557C19.7301 12.0017 19.7532 13.4756 19.2802 14.7651C18.8066 16.0566 17.8354 17.1703 16.48 17.797C15.1218 18.4257 13.6373 18.4486 12.3361 17.9801C11.0309 17.5095 9.90694 16.5449 9.27517 15.2009L9.24474 15.1267C8.64473 13.8005 8.63084 12.358 9.09457 11.0908C9.56823 9.79868 10.5414 8.68503 11.8968 8.0557ZM15.4678 9.43971C14.5741 9.11684 13.554 9.13194 12.6206 9.55849L12.5425 9.59196C11.6395 10.0297 10.9899 10.7857 10.6704 11.6578C10.3502 12.5319 10.3581 13.5268 10.7676 14.4383L10.8093 14.5204C11.2479 15.4378 12.0172 16.096 12.9077 16.4169C13.808 16.7411 14.8341 16.726 15.7688 16.2942C16.7055 15.8604 17.377 15.0906 17.7045 14.1981C18.0319 13.305 18.0167 12.2872 17.5821 11.3612C17.1441 10.4313 16.3675 9.7639 15.4678 9.43971ZM24.1485 4.93264C25.5681 4.27442 27.1227 4.25146 28.4875 4.74429C29.8509 5.23648 31.0265 6.24644 31.6887 7.65408C32.3542 9.06303 32.378 10.6052 31.8812 11.959C31.3857 13.3116 30.3682 14.4777 28.9486 15.1352C27.5276 15.7954 25.973 15.8191 24.6082 15.3262C23.2408 14.8327 22.064 13.8228 21.4031 12.4158L21.374 12.3462C20.7422 10.9563 20.7257 9.44168 21.2139 8.11148C21.7101 6.75962 22.7275 5.59282 24.1485 4.93264ZM27.9159 6.30747C26.9567 5.96097 25.8599 5.97869 24.859 6.44134C23.8567 6.90202 23.1396 7.72495 22.7897 8.67847C22.4463 9.61427 22.4556 10.6794 22.8962 11.6545L22.926 11.7123C23.3923 12.7052 24.2206 13.4172 25.1798 13.763C26.139 14.1095 27.2352 14.0925 28.2381 13.6285C29.239 13.1685 29.9561 12.3456 30.3054 11.392C30.6547 10.4405 30.6368 9.35309 30.1704 8.36019C29.706 7.36599 28.8771 6.65462 27.9159 6.30747ZM32.2754 31.9745C32.6902 32.1772 32.8602 32.6766 32.6558 33.0881C32.4514 33.4996 31.948 33.6682 31.5332 33.4654C29.4566 32.4476 28.039 30.8542 27.2326 29.0286C26.6445 27.6977 26.3851 26.2409 26.4341 24.7965C26.483 23.3534 26.8403 21.9182 27.4826 20.6273C28.4081 18.7682 29.9296 17.1965 31.9857 16.3034C33.8353 15.5001 35.077 14.3714 35.7624 13.1002C36.3651 11.9827 36.5437 10.7378 36.3333 9.50009C36.1183 8.23551 35.4965 6.97093 34.5048 5.84284C32.9833 4.11168 30.5998 2.70338 27.4773 2.0806C21.6935 0.927583 15.9825 2.20923 11.4278 5.21482C6.87512 8.21845 3.47615 12.946 2.31251 18.6822C1.14953 24.4198 2.44217 30.0851 5.47134 34.604C8.49985 39.1209 13.2656 42.4927 19.048 43.647C19.9848 43.8334 21.3575 43.9194 22.9385 43.88C24.4085 43.8433 26.057 43.6943 27.7029 43.4154C28.1594 43.3386 28.5933 43.6431 28.6707 44.0959C28.7481 44.5487 28.4412 44.9792 27.9847 45.056C26.274 45.3461 24.5401 45.5016 22.9782 45.5403C21.2794 45.583 19.7764 45.4852 18.7199 45.2745C12.4803 44.029 7.33886 40.3927 4.07286 35.5214C0.809504 30.6528 -0.583029 24.5458 0.671904 18.3567C1.9275 12.1671 5.59307 7.06674 10.503 3.82752C15.4103 0.589617 21.5665 -0.791118 27.8054 0.453119C31.3162 1.15399 34.0192 2.76244 35.7657 4.74954C36.9657 6.11453 37.7212 7.66261 37.9871 9.22709C38.2577 10.8185 38.0235 12.4269 37.2389 13.8812C36.3816 15.4712 34.8713 16.8645 32.6552 17.8272C30.9854 18.5523 29.7444 19.8392 28.9856 21.3637C28.4478 22.4445 28.1481 23.6448 28.1078 24.849C28.0674 26.0512 28.2817 27.262 28.7686 28.3645C29.4236 29.8469 30.5793 31.1436 32.2754 31.9745ZM35.9344 33.1951L39.4683 34.4209L47.9955 8.17251C48.2184 7.48608 48.0795 6.96043 47.7765 6.65593C47.6614 6.53978 47.5192 6.45184 47.3664 6.39934C47.2142 6.34684 47.0469 6.32781 46.8802 6.3475C46.4541 6.39803 46.0188 6.72156 45.7628 7.39486L35.9344 33.1951ZM34.2799 38.695C31.2626 41.6626 31.9023 43.7527 32.4679 45.5981C32.7008 46.358 32.9237 47.0851 32.9628 47.8326C34.3996 47.11 35.5302 46.1086 36.2916 44.9261C37.2495 43.4377 37.6299 41.6435 37.3064 39.745L34.2799 38.695ZM39.3294 36.1337L34.9666 34.6204L34.1648 36.8943L38.5276 38.4076L39.3294 36.1337Z" fill="black"/>
</svg>
