<svg width="22" height="18" viewBox="0 0 22 18" fill="none" xmlns="http://www.w3.org/2000/svg">
<path d="M12.6876 14.6449C11.8007 14.6449 10.9138 14.5698 10.0515 14.3945C9.85441 14.4197 9.65733 14.4197 9.46027 14.4197C9.0168 14.4197 8.62264 14.3945 8.20381 14.3445C7.80965 14.2945 7.39081 14.2444 6.99662 14.1442C6.87344 14.1192 6.75027 14.1442 6.62709 14.2195L3.12879 16.2722L3.94178 13.4182C3.99104 13.1929 3.91714 12.9425 3.72006 12.8174C2.85781 12.2666 2.19263 11.5905 1.72452 10.8395C1.28109 10.1385 1.0347 9.3625 1.0347 8.53623C1.0347 7.20948 1.69988 5.98256 2.75921 4.9812C3.32587 4.58059 3.59685 3.45418 2.83318 3.5542C1.08398 4.83093 0 6.58352 0 8.53623C0 9.56282 0.295611 10.5141 0.837634 11.3904C1.30574 12.1915 1.99555 12.8925 2.8085 13.4934L1.77378 17.2487C1.69988 17.5241 1.8477 17.8245 2.14336 17.8995C2.29117 17.9497 2.43897 17.9245 2.56215 17.8495L6.97203 15.2458C7.34154 15.3208 7.71107 15.3711 8.10526 15.4211C8.54869 15.4461 9.0168 15.4712 9.46027 15.4712C10.6181 15.4712 11.7267 15.3208 12.7369 15.0455C12.86 15.0205 12.9093 14.9204 12.9093 14.8202C12.8847 14.7201 12.7861 14.6449 12.6876 14.6449Z" fill="#4540DB"/>
<path d="M19.1669 2.05216C17.467 0.825238 15.1266 0.0742188 12.5644 0.0742188C9.97759 0.0742188 7.63715 0.825238 5.93727 2.05216C4.18812 3.30386 3.10416 5.05624 3.10416 6.98417C3.10416 8.93683 4.18812 10.6895 5.93727 11.9412C7.63715 13.1678 9.97759 13.9189 12.5644 13.9189C13.0078 13.9189 13.4759 13.8939 13.9194 13.8438C14.3136 13.8188 14.6831 13.7438 15.0526 13.6935L19.4871 16.2722C19.5857 16.3474 19.7335 16.3724 19.8813 16.3474C20.1523 16.2722 20.3001 15.9718 20.2262 15.6965L19.1915 11.9412C20.0045 11.3402 20.6943 10.6392 21.187 9.86318C21.7044 8.98689 22 8.01051 22 6.98417C22 5.05624 20.916 3.30386 19.1669 2.05216ZM20.3247 9.31248C19.8566 10.0635 19.1669 10.7395 18.3293 11.2902C18.1321 11.4155 18.0582 11.6658 18.1075 11.8661L18.9205 14.7702L15.3975 12.6922C15.2744 12.6171 15.1512 12.6171 15.028 12.6422C14.6338 12.7172 14.2396 12.7924 13.8208 12.8424C13.402 12.8675 13.0078 12.8925 12.5644 12.8925C10.1993 12.8925 8.056 12.2165 6.52856 11.1149C5.05039 10.0385 4.13885 8.58644 4.13885 6.98417C4.13885 5.40688 5.05039 3.95486 6.52856 2.87823C8.056 1.77659 10.1993 1.10083 12.5644 1.10083C14.9294 1.10083 17.0482 1.77659 18.6002 2.87823C20.0784 3.95486 20.9899 5.40688 20.9899 6.98417C20.9899 7.81019 20.7435 8.58644 20.3247 9.31248Z" fill="#4540DB"/>
<path d="M16.8264 5.88253C16.2105 5.88253 15.7178 6.38319 15.7178 7.00915C15.7178 7.63489 16.2105 8.16083 16.8264 8.16083C17.4423 8.16083 17.9597 7.63489 17.9597 7.00915C17.9597 6.38319 17.4423 5.88253 16.8264 5.88253Z" fill="#4540DB"/>
<path d="M8.72118 5.88253C8.10526 5.88253 7.58789 6.38319 7.58789 7.00915C7.58789 7.63489 8.10526 8.16083 8.72118 8.16083C9.33704 8.16083 9.82978 7.63489 9.82978 7.00915C9.82978 6.38319 9.33704 5.88253 8.72118 5.88253Z" fill="#4540DB"/>
<path d="M12.7615 5.88253C12.1456 5.88253 11.6528 6.38319 11.6528 7.00915C11.6528 7.63489 12.1456 8.16083 12.7615 8.16083C13.402 8.16083 13.8947 7.63489 13.8947 7.00915C13.8947 6.38319 13.402 5.88253 12.7615 5.88253Z" fill="#4540DB"/>
</svg>
