<svg width="46" height="50" viewBox="0 0 46 50" fill="none" xmlns="http://www.w3.org/2000/svg">
<path d="M23.0012 0.000396729C26.0077 0.000396729 28.747 2.30512 30.8395 6.31971L29.4925 7.02123C27.6325 3.45475 25.3316 1.5155 23.0011 1.5155C20.0107 1.5155 17.2393 4.65518 15.3448 9.63564C19.5566 10.2198 24.1615 11.711 28.6269 13.981C29.3885 14.3678 30.1341 14.7733 30.8584 15.1894C31.3955 14.6825 32.0957 14.3438 32.8867 14.2584C34.8082 14.0583 36.5293 15.4481 36.7297 17.3661C36.7912 17.9476 36.7057 18.5104 36.5026 19.0199C37.8549 20.1002 39.0788 21.2233 40.1558 22.3623C43.7101 17.4434 44.9902 12.9303 43.1436 10.3934C41.6711 8.37149 38.2664 7.77397 33.6244 8.77159L33.3063 7.2911C38.4695 6.17876 42.4623 6.88031 44.3704 9.50248C46.7141 12.7195 45.2683 17.9825 41.1955 23.52C44.9717 27.9587 46.487 32.5572 44.7098 36.0385C42.3259 40.7066 34.8403 41.7763 26.2029 39.4476C25.7112 40.5493 24.6609 41.3656 23.3728 41.5016C22.1114 41.6323 20.9355 41.0775 20.2219 40.1385C18.7628 40.8054 17.3303 41.3656 15.9487 41.8216C17.8034 45.9483 20.3128 48.4851 23.0016 48.4851C25.5992 48.4851 28.1568 46.0683 30.0914 41.7389L31.4784 42.3551C29.3271 47.1727 26.3312 50 23.0011 50C19.591 50 16.5925 47.0257 14.4841 42.2671C8.61278 43.9102 3.79159 43.4674 1.63243 40.4958C-0.441363 37.6469 0.408416 33.1685 3.66352 28.1398L4.93829 28.9613C1.98524 33.5228 1.25033 37.3963 2.8591 39.6047C4.56947 41.9521 8.71445 42.2829 13.9047 40.8531C12.9987 38.471 12.3012 35.7235 11.8549 32.7329C3.30031 26.8084 -1.35258 19.145 1.29302 13.9592C2.82168 10.9663 6.4829 9.38976 11.4191 9.36306L11.4271 10.8782C7.00149 10.9022 3.87206 12.252 2.64812 14.6474C0.547584 18.7633 4.34248 25.2853 11.5927 30.6739C11.3976 28.8493 11.296 26.9501 11.296 25.0001C11.296 24.4373 11.304 23.8825 11.3201 23.3303C9.93311 22.9889 8.84271 21.8098 8.68502 20.308C8.48191 18.3901 9.87427 16.6749 11.7958 16.4721C11.8572 16.4668 11.9187 16.4615 11.9828 16.4588C13.5809 6.87729 17.8143 0.000396729 23.0012 0.000396729ZM13.586 33.8726L13.6367 34.1607C14.0697 36.4548 14.655 38.5621 15.3631 40.4133C16.7207 39.9705 18.1371 39.4157 19.5883 38.7541C19.5616 38.6368 19.5429 38.5167 19.5322 38.3967C19.4841 37.9459 19.5241 37.5057 19.6391 37.095C18.8854 36.7615 18.1291 36.4014 17.3755 36.02C16.0526 35.3451 14.7859 34.6275 13.586 33.8726ZM22.8008 36.068C21.7158 36.1827 20.9274 37.1536 21.0423 38.2367C21.1545 39.3223 22.1299 40.1066 23.215 39.9945C24.3 39.8798 25.0884 38.9089 24.9735 37.8258C24.8612 36.7402 23.8885 35.9532 22.8008 36.068ZM40.2493 24.7554L40.1183 24.9181C37.4886 28.1698 34.0011 31.4668 29.8828 34.4518C28.6935 35.3134 27.4963 36.119 26.3017 36.8632C26.3925 37.1166 26.454 37.386 26.4861 37.6661C26.4941 37.7648 26.5021 37.8608 26.5048 37.9569C34.538 40.1415 41.3693 39.2426 43.3546 35.3507C44.7817 32.5579 43.491 28.6582 40.2493 24.7554ZM24.3934 26.4092C24.0273 26.7507 23.5329 26.9614 22.9904 26.9614C22.4773 26.9614 22.0069 26.7747 21.6489 26.4626C21.6195 26.4866 21.5901 26.5079 21.5553 26.5293L13.2012 31.3441C13.2226 31.5175 13.244 31.6882 13.2653 31.859C14.7512 32.8539 16.3573 33.7982 18.065 34.6678C18.8294 35.0573 19.5937 35.4201 20.358 35.7589C20.9166 35.1054 21.7183 34.6572 22.6429 34.5612C23.7387 34.4465 24.7702 34.8493 25.4918 35.5749C26.657 34.8546 27.8249 34.0704 28.9901 33.2275C30.0404 32.4619 31.0505 31.6803 32.0099 30.8827L24.3934 26.4092ZM23.6745 13.4236V22.8637C23.6745 22.9011 23.6719 22.9411 23.6639 22.9758C24.4656 23.2558 25.0428 24.0161 25.0428 24.9123C25.0428 25.0084 25.0375 25.1017 25.0241 25.1924L33.1107 29.9459C35.5026 27.8572 37.563 25.6992 39.2253 23.5919C38.2445 22.5355 37.1248 21.4899 35.8848 20.4736L35.6416 20.2789C35.1044 20.7803 34.4069 21.1165 33.6185 21.1992C31.697 21.4019 29.9787 20.0121 29.7755 18.0942C29.7141 17.5153 29.7996 16.9551 30 16.4483C29.3319 16.0642 28.6424 15.6907 27.9369 15.3306C26.5232 14.6131 25.0963 13.9758 23.6745 13.4236ZM14.8313 11.0975L14.8259 11.1109C14.2754 12.8154 13.821 14.696 13.4817 16.7126C14.6362 17.1821 15.4967 18.2544 15.6383 19.5775C15.8281 21.3887 14.5961 23.0213 12.8403 23.3654C12.8216 23.9042 12.8136 24.451 12.8136 25.0005C12.8136 26.6677 12.8911 28.2922 13.0381 29.8607L20.8709 25.3446C20.9056 25.326 20.9404 25.31 20.9751 25.2966C20.951 25.1739 20.9377 25.0432 20.9377 24.9125C20.9377 24.0162 21.5149 23.256 22.3166 22.9759C22.3086 22.9413 22.306 22.9012 22.306 22.8639V12.9171C19.7404 12.0181 17.2126 11.4016 14.8313 11.0975ZM11.953 17.9796C10.8681 18.0943 10.0796 19.0653 10.1946 20.1483C10.3068 21.234 11.2822 22.0182 12.3673 21.9062C13.4523 21.7915 14.2407 20.8205 14.1258 19.7375C14.0135 18.6518 13.0408 17.8649 11.953 17.9796ZM33.0467 15.7682C31.959 15.8803 31.1733 16.8512 31.2856 17.9369C31.4005 19.0199 32.3732 19.8069 33.4583 19.6922C34.5459 19.5801 35.3343 18.6065 35.2194 17.5235C35.1045 16.4405 34.1317 15.6535 33.0467 15.7682ZM31.7506 7.68567L32.2022 9.23813L30.6896 9.87833L30.246 8.30716L31.7506 7.68567Z" fill="black"/>
</svg>
