<svg width="52" height="52" viewBox="0 0 52 52" fill="none" xmlns="http://www.w3.org/2000/svg">
<path d="M24.3642 41.5711V48.306H17.875C17.1242 48.306 16.5343 48.8987 16.5343 49.653C16.5343 50.4073 17.1242 51 17.875 51H33.5886C34.3394 51 34.9293 50.4073 34.9293 49.653C34.9293 48.8987 34.3394 48.306 33.5886 48.306H27.0457V41.5711H47.0497C49.1949 41.5711 50.911 39.847 50.911 37.6918V4.87931C50.911 2.72414 49.1949 1 47.0497 1H4.95022C2.80502 1 1.08887 2.72414 1.08887 4.87931V37.6918C1.08887 39.847 2.80502 41.5711 4.95022 41.5711H24.3642ZM4.95022 3.69397H47.0497C47.6932 3.69397 48.2295 4.23276 48.2295 4.87931V10.4828H3.82399V4.87931C3.82399 4.23276 4.30666 3.69397 4.95022 3.69397ZM3.82399 37.6918V13.1767H48.2831V37.6918C48.2831 38.3384 47.7469 38.8772 47.1033 38.8772H4.95022C4.30666 38.8772 3.82399 38.3384 3.82399 37.6918ZM19.1621 27.2392C18.6258 26.7004 18.6258 25.8384 19.1621 25.3534C19.6984 24.8147 20.5565 24.8147 21.0392 25.3534L23.3989 27.7241L30.3708 20.7737C30.9071 20.2349 31.7652 20.2349 32.2478 20.7737C32.7841 21.3125 32.7841 22.1746 32.2478 22.6595L24.3642 30.5797C24.0961 30.8491 23.7743 30.9569 23.3989 30.9569C23.0235 30.9569 22.7017 30.7953 22.4336 30.5797L19.1621 27.2392ZM10.9568 7.08836C10.9568 6.17241 11.7076 5.47198 12.5657 5.47198C13.4237 5.47198 14.1746 6.22629 14.1746 7.08836C14.1746 7.95043 13.4237 8.70474 12.5657 8.70474C11.7076 8.70474 10.9568 8.00431 10.9568 7.08836ZM16.3197 7.08836C16.3197 6.17241 17.0706 5.47198 17.9286 5.47198C18.8404 5.47198 19.5375 6.22629 19.5375 7.08836C19.5375 7.95043 18.7867 8.70474 17.9286 8.70474C17.0706 8.70474 16.3197 8.00431 16.3197 7.08836ZM5.59378 7.08836C5.59378 6.17241 6.34459 5.47198 7.20267 5.47198C8.11438 5.47198 8.81157 6.22629 8.81157 7.08836C8.81157 7.95043 8.06075 8.70474 7.20267 8.70474C6.34459 8.70474 5.59378 8.00431 5.59378 7.08836Z" fill="black" stroke="white" stroke-width="0.8"/>
</svg>
