<svg width="18" height="18" viewBox="0 0 18 18" fill="none" xmlns="http://www.w3.org/2000/svg">
<path d="M9 -0.000167847C6.55762 -0.000167847 6.2505 0.0110822 5.29087 0.0538322C4.33125 0.0988322 3.67762 0.249582 3.105 0.472332C2.50407 0.697698 1.95991 1.05216 1.51088 1.51071C1.05232 1.95974 0.697866 2.50391 0.4725 3.10483C0.24975 3.67633 0.097875 4.33108 0.054 5.28733C0.01125 6.24921 0 6.55521 0 9.00096C0 11.4445 0.01125 11.7505 0.054 12.7101C0.099 13.6686 0.24975 14.3222 0.4725 14.8948C0.703125 15.4866 1.01025 15.9883 1.51088 16.489C2.01038 16.9896 2.51213 17.2978 3.10388 17.5273C3.67763 17.7501 4.33013 17.902 5.28863 17.9458C6.24938 17.9886 6.55538 17.9998 9 17.9998C11.4446 17.9998 11.7495 17.9886 12.7103 17.9458C13.6676 17.9008 14.3235 17.7501 14.8961 17.5273C15.4966 17.3018 16.0404 16.9474 16.4891 16.489C16.9897 15.9883 17.2969 15.4866 17.5275 14.8948C17.7491 14.3222 17.901 13.6686 17.946 12.7101C17.9888 11.7505 18 11.4445 18 8.99983C18 6.55521 17.9888 6.24921 17.946 5.28846C17.901 4.33108 17.7491 3.67633 17.5275 3.10483C17.3021 2.50391 16.9477 1.95974 16.4891 1.51071C16.0401 1.05216 15.4959 0.697698 14.895 0.472332C14.3212 0.249582 13.6665 0.0977072 12.7091 0.0538322C11.7484 0.0110822 11.4435 -0.000167847 8.99775 -0.000167847H9ZM8.19337 1.62208H9.00113C11.4041 1.62208 11.6887 1.62996 12.6371 1.67383C13.5146 1.71321 13.9916 1.86058 14.3089 1.98321C14.7285 2.14633 15.0289 2.34208 15.3439 2.65708C15.6589 2.97208 15.8535 3.27133 16.0166 3.69208C16.1404 4.00821 16.2866 4.48521 16.326 5.36271C16.3699 6.31108 16.3789 6.59571 16.3789 8.99758C16.3789 11.3995 16.3699 11.6852 16.326 12.6336C16.2866 13.5111 16.1392 13.987 16.0166 14.3042C15.8713 14.6945 15.6411 15.0476 15.3427 15.3381C15.0277 15.6531 14.7285 15.8477 14.3078 16.0108C13.9928 16.1346 13.5157 16.2808 12.6371 16.3213C11.6887 16.3641 11.4041 16.3742 9.00113 16.3742C6.59813 16.3742 6.31238 16.3641 5.364 16.3213C4.4865 16.2808 4.01062 16.1346 3.69338 16.0108C3.30281 15.866 2.9493 15.6362 2.65837 15.3381C2.35943 15.0474 2.12887 14.6939 1.98338 14.3031C1.86075 13.987 1.71338 13.51 1.674 12.6325C1.63125 11.6841 1.62225 11.3995 1.62225 8.99533C1.62225 6.59121 1.63125 6.30883 1.674 5.36046C1.7145 4.48296 1.86075 4.00596 1.9845 3.68871C2.14762 3.26908 2.34337 2.96871 2.65837 2.65371C2.97337 2.33871 3.27262 2.14408 3.69338 1.98096C4.01062 1.85721 4.4865 1.71096 5.364 1.67046C6.19425 1.63221 6.516 1.62096 8.19337 1.61983V1.62208ZM13.8049 3.11608C13.663 3.11608 13.5226 3.14402 13.3916 3.19829C13.2605 3.25257 13.1415 3.33212 13.0412 3.43241C12.9409 3.53269 12.8614 3.65175 12.8071 3.78278C12.7528 3.91382 12.7249 4.05425 12.7249 4.19608C12.7249 4.33791 12.7528 4.47835 12.8071 4.60938C12.8614 4.74041 12.9409 4.85947 13.0412 4.95976C13.1415 5.06004 13.2605 5.1396 13.3916 5.19387C13.5226 5.24815 13.663 5.27608 13.8049 5.27608C14.0913 5.27608 14.366 5.1623 14.5686 4.95976C14.7711 4.75722 14.8849 4.48252 14.8849 4.19608C14.8849 3.90965 14.7711 3.63495 14.5686 3.43241C14.366 3.22987 14.0913 3.11608 13.8049 3.11608ZM9.00113 4.37833C8.38808 4.36877 7.77926 4.48125 7.2101 4.70924C6.64094 4.93723 6.12283 5.27616 5.68592 5.70631C5.24901 6.13646 4.90203 6.64922 4.6652 7.21475C4.42836 7.78028 4.30639 8.38727 4.30639 9.00039C4.30639 9.61351 4.42836 10.2205 4.6652 10.786C4.90203 11.3516 5.24901 11.8643 5.68592 12.2945C6.12283 12.7246 6.64094 13.0636 7.2101 13.2915C7.77926 13.5195 8.38808 13.632 9.00113 13.6225C10.2145 13.6035 11.3717 13.1082 12.2231 12.2435C13.0745 11.3787 13.5516 10.2139 13.5516 9.00039C13.5516 7.78689 13.0745 6.62205 12.2231 5.7573C11.3717 4.89255 10.2145 4.39726 9.00113 4.37833ZM9.00113 5.99946C9.39514 5.99946 9.7853 6.07706 10.1493 6.22785C10.5133 6.37863 10.8441 6.59964 11.1227 6.87825C11.4013 7.15686 11.6223 7.48762 11.7731 7.85164C11.9239 8.21566 12.0015 8.60582 12.0015 8.99983C12.0015 9.39385 11.9239 9.784 11.7731 10.148C11.6223 10.512 11.4013 10.8428 11.1227 11.1214C10.8441 11.4 10.5133 11.621 10.1493 11.7718C9.7853 11.9226 9.39514 12.0002 9.00113 12.0002C8.20538 12.0002 7.44222 11.6841 6.87954 11.1214C6.31686 10.5587 6.00075 9.79558 6.00075 8.99983C6.00075 8.20408 6.31686 7.44093 6.87954 6.87825C7.44222 6.31557 8.20538 5.99946 9.00113 5.99946Z" fill="white"/>
</svg>
