<svg width="20" height="18" viewBox="0 0 20 18" fill="none" xmlns="http://www.w3.org/2000/svg">
<path d="M4.47048 2.00072C4.47022 2.53112 4.25926 3.0397 3.88402 3.41456C3.50878 3.78943 3 3.99988 2.46959 3.99961C1.93919 3.99935 1.43061 3.78839 1.05575 3.41315C0.680886 3.03791 0.470438 2.52912 0.470703 1.99872C0.470969 1.46832 0.681925 0.959743 1.05716 0.584879C1.4324 0.210015 1.94119 -0.000432798 2.47159 -0.000167596C3.002 9.76054e-05 3.51057 0.211054 3.88543 0.586293C4.2603 0.961533 4.47075 1.47032 4.47048 2.00072ZM4.53048 5.48053H0.5307V17.9998H4.53048V5.48053ZM10.8501 5.48053H6.87035V17.9998H10.8101V11.4302C10.8101 7.7704 15.5799 7.43042 15.5799 11.4302V17.9998H19.5296V10.0703C19.5296 3.90062 12.47 4.1306 10.8101 7.16043L10.8501 5.48053Z" fill="white"/>
</svg>
